Raleway-Medium-Italic-TTF.ufo
<glyph name="quotedbl" format="1">
  <advance width="318"/>
  <unicode hex="0022"/>
  <outline>
    <contour>
      <point x="106" y="502" type="line"/>
      <point x="152" y="718" type="line"/>
      <point x="228" y="718" type="line"/>
      <point x="182" y="502" type="line"/>
    </contour>
    <contour>
      <point x="218" y="502" type="line"/>
      <point x="264" y="718" type="line"/>
      <point x="340" y="718" type="line"/>
      <point x="294" y="502" type="line"/>
    </contour>
  </outline>
</glyph>
<glyph name="dollar" format="1">
  <advance width="596"/>
  <unicode hex="0024"/>
  <outline>
    <contour>
      <point x="540" y="561" type="line"/>
      <point x="524" y="587"/>
      <point x="442" y="631"/>
      <point x="386" y="634" type="qcurve"/>
      <point x="336" y="397" type="line"/>
      <point x="384" y="385"/>
      <point x="459" y="357"/>
      <point x="511" y="318"/>
      <point x="538" y="266"/>
      <point x="538" y="229" type="qcurve"/>
      <point x="538" y="170"/>
      <point x="493" y="83"/>
      <point x="416" y="25"/>
      <point x="314" y="-6"/>
      <point x="256" y="-7" type="qcurve"/>
      <point x="235" y="-107" type="line"/>
      <point x="192" y="-107" type="line"/>
      <point x="213" y="-6" type="line"/>
      <point x="146" y="-1"/>
      <point x="33" y="48"/>
      <point x="-9" y="93" type="qcurve"/>
      <point x="50" y="169" type="line"/>
      <point x="60" y="154"/>
      <point x="95" y="123"/>
      <point x="143" y="97"/>
      <point x="202" y="78"/>
      <point x="235" y="75" type="qcurve"/>
      <point x="286" y="314" type="line"/>
      <point x="276" y="316"/>
      <point x="271" y="318" type="qcurve"/>
      <point x="230" y="329"/>
      <point x="166" y="355"/>
      <point x="122" y="390"/>
      <point x="99" y="437"/>
      <point x="99" y="469" type="qcurve"/>
      <point x="99" y="524"/>
      <point x="141" y="611"/>
      <point x="213" y="674"/>
      <point x="310" y="711"/>
      <point x="366" y="714" type="qcurve"/>
      <point x="388" y="815" type="line"/>
      <point x="431" y="815" type="line"/>
      <point x="410" y="714" type="line"/>
      <point x="472" y="711"/>
      <point x="565" y="668"/>
      <point x="597" y="634" type="qcurve"/>
    </contour>
    <contour>
      <point x="438" y="201" type="qcurve"/>
      <point x="438" y="242"/>
      <point x="374" y="287"/>
      <point x="316" y="305" type="qcurve"/>
      <point x="267" y="74" type="line"/>
      <point x="347" y="75"/>
      <point x="438" y="141"/>
    </contour>
    <contour>
      <point x="198" y="498" type="qcurve"/>
      <point x="198" y="460"/>
      <point x="252" y="421"/>
      <point x="306" y="405" type="qcurve"/>
      <point x="355" y="634" type="line"/>
      <point x="273" y="630"/>
      <point x="198" y="555"/>
    </contour>
  </outline>
</glyph>
<glyph name="three" format="1">
  <advance width="519"/>
  <unicode hex="0033"/>
  <outline>
    <contour>
      <point x="152" y="-147" type="qcurve"/>
      <point x="80" y="-147"/>
      <point x="-18" y="-90"/>
      <point x="-38" y="-38" type="qcurve"/>
      <point x="32" y="21" type="line"/>
      <point x="46" y="-20"/>
      <point x="109" y="-67"/>
      <point x="168" y="-67" type="qcurve"/>
      <point x="246" y="-67"/>
      <point x="337" y="13"/>
      <point x="337" y="87" type="qcurve"/>
      <point x="337" y="137"/>
      <point x="272" y="196"/>
      <point x="206" y="196" type="qcurve"/>
      <point x="181" y="196" type="line"/>
      <point x="197" y="270" type="line"/>
      <point x="224" y="270" type="line"/>
      <point x="263" y="270"/>
      <point x="326" y="293"/>
      <point x="369" y="332"/>
      <point x="393" y="384"/>
      <point x="393" y="414" type="qcurve"/>
      <point x="393" y="456"/>
      <point x="337" y="497"/>
      <point x="291" y="497" type="qcurve"/>
      <point x="240" y="497"/>
      <point x="153" y="450"/>
      <point x="121" y="408" type="qcurve"/>
      <point x="79" y="464" type="line"/>
      <point x="97" y="489"/>
      <point x="149" y="530"/>
      <point x="212" y="560"/>
      <point x="281" y="576"/>
      <point x="317" y="576" type="qcurve"/>
      <point x="397" y="576"/>
      <point x="488" y="496"/>
      <point x="488" y="430" type="qcurve"/>
      <point x="488" y="396"/>
      <point x="464" y="331"/>
      <point x="422" y="278"/>
      <point x="364" y="242"/>
      <point x="330" y="236" type="qcurve"/>
      <point x="378" y="227"/>
      <point x="430" y="152"/>
      <point x="430" y="98" type="qcurve"/>
      <point x="430" y="44"/>
      <point x="388" y="-46"/>
      <point x="313" y="-111"/>
      <point x="212" y="-147"/>
    </contour>
  </outline>
</glyph>
<glyph name="five" format="1">
  <advance width="528"/>
  <unicode hex="0035"/>
  <outline>
    <contour>
      <point x="156" y="-149" type="qcurve"/>
      <point x="84" y="-149"/>
      <point x="-17" y="-77"/>
      <point x="-34" y="-17" type="qcurve"/>
      <point x="31" y="31" type="line"/>
      <point x="48" y="-15"/>
      <point x="122" y="-71"/>
      <point x="173" y="-71" type="qcurve"/>
      <point x="210" y="-71"/>
      <point x="277" y="-42"/>
      <point x="328" y="8"/>
      <point x="359" y="76"/>
      <point x="359" y="116" type="qcurve"/>
      <point x="359" y="170"/>
      <point x="297" y="237"/>
      <point x="246" y="237" type="qcurve"/>
      <point x="206" y="237"/>
      <point x="128" y="199"/>
      <point x="99" y="164" type="qcurve"/>
      <point x="20" y="164" type="line"/>
      <point x="23" y="171"/>
      <point x="50" y="237"/>
      <point x="86" y="328"/>
      <point x="126" y="429"/>
      <point x="160" y="515"/>
      <point x="182" y="571"/>
      <point x="183" y="571" type="qcurve"/>
      <point x="511" y="571" type="line"/>
      <point x="494" y="490" type="line"/>
      <point x="230" y="490" type="line"/>
      <point x="143" y="264" type="line"/>
      <point x="168" y="287"/>
      <point x="235" y="314"/>
      <point x="273" y="314" type="qcurve"/>
      <point x="313" y="314"/>
      <point x="379" y="287"/>
      <point x="425" y="239"/>
      <point x="451" y="172"/>
      <point x="451" y="132" type="qcurve"/>
      <point x="451" y="71"/>
      <point x="402" y="-32"/>
      <point x="320" y="-107"/>
      <point x="213" y="-149"/>
    </contour>
  </outline>
</glyph>
<glyph name="B" format="1">
  <advance width="647"/>
  <unicode hex="0042"/>
  <outline>
    <contour>
      <point x="171" y="710" type="line"/>
      <point x="509" y="710" type="line"/>
      <point x="539" y="710"/>
      <point x="584" y="685"/>
      <point x="614" y="645"/>
      <point x="629" y="593"/>
      <point x="629" y="565" type="qcurve"/>
      <point x="629" y="533"/>
      <point x="609" y="473"/>
      <point x="573" y="420"/>
      <point x="523" y="377"/>
      <point x="492" y="364" type="qcurve"/>
      <point x="537" y="349"/>
      <point x="584" y="272"/>
      <point x="584" y="221" type="qcurve"/>
      <point x="584" y="171"/>
      <point x="543" y="90"/>
      <point x="475" y="32"/>
      <point x="387" y="0"/>
      <point x="341" y="0" type="qcurve"/>
      <point x="20" y="0" type="line"/>
    </contour>
    <contour>
      <point x="357" y="78" type="line"/>
      <point x="383" y="78"/>
      <point x="433" y="102"/>
      <point x="472" y="143"/>
      <point x="495" y="195"/>
      <point x="495" y="224" type="qcurve"/>
      <point x="495" y="264"/>
      <point x="453" y="322"/>
      <point x="416" y="322" type="qcurve"/>
      <point x="178" y="322" type="line"/>
      <point x="127" y="78" type="line"/>
    </contour>
    <contour>
      <point x="405" y="395" type="line"/>
      <point x="430" y="395"/>
      <point x="477" y="418"/>
      <point x="513" y="458"/>
      <point x="535" y="510"/>
      <point x="535" y="539" type="qcurve"/>
      <point x="535" y="579"/>
      <point x="496" y="632"/>
      <point x="461" y="632" type="qcurve"/>
      <point x="244" y="632" type="line"/>
      <point x="194" y="395" type="line"/>
    </contour>
  </outline>
</glyph>
<glyph name="V" format="1">
  <advance width="650"/>
  <unicode hex="0056"/>
  <outline>
    <contour>
      <point x="95" y="710" type="line"/>
      <point x="190" y="710" type="line"/>
      <point x="282" y="113" type="line"/>
      <point x="627" y="710" type="line"/>
      <point x="722" y="710" type="line"/>
      <point x="297" y="0" type="line"/>
      <point x="219" y="0" type="line"/>
    </contour>
  </outline>
</glyph>
<glyph name="k" format="1">
  <advance width="542"/>
  <unicode hex="006B"/>
  <outline>
    <contour>
      <point x="218" y="0" type="move" name="bottom"/>
    </contour>
    <contour>
      <point x="160" y="730" type="line"/>
      <point x="248" y="730" type="line"/>
      <point x="175" y="385" type="line"/>
      <point x="198" y="415"/>
      <point x="251" y="468"/>
      <point x="309" y="508"/>
      <point x="374" y="531"/>
      <point x="409" y="531" type="qcurve"/>
      <point x="463" y="531"/>
      <point x="513" y="474"/>
      <point x="513" y="426" type="qcurve"/>
      <point x="513" y="362"/>
      <point x="428" y="254"/>
      <point x="345" y="219" type="qcurve"/>
      <point x="460" y="0" type="line"/>
      <point x="365" y="0" type="line"/>
      <point x="241" y="255" type="line"/>
      <point x="288" y="265"/>
      <point x="360" y="300"/>
      <point x="408" y="343"/>
      <point x="433" y="390"/>
      <point x="433" y="414" type="qcurve"/>
      <point x="433" y="440"/>
      <point x="407" y="459"/>
      <point x="386" y="459" type="qcurve"/>
      <point x="353" y="459"/>
      <point x="281" y="424"/>
      <point x="215" y="363"/>
      <point x="160" y="281"/>
      <point x="143" y="234" type="qcurve"/>
      <point x="93" y="0" type="line"/>
      <point x="5" y="0" type="line"/>
    </contour>
  </outline>
</glyph>
<glyph name="m" format="1">
  <advance width="883"/>
  <unicode hex="006D"/>
  <outline>
    <contour>
      <point x="116" y="522" type="line"/>
      <point x="196" y="522" type="line"/>
      <point x="172" y="410" type="line"/>
      <point x="212" y="466"/>
      <point x="324" y="531"/>
      <point x="382" y="531" type="qcurve"/>
      <point x="440" y="531"/>
      <point x="501" y="465"/>
      <point x="503" y="404" type="qcurve"/>
      <point x="549" y="467"/>
      <point x="657" y="531"/>
      <point x="717" y="531" type="qcurve"/>
      <point x="781" y="531"/>
      <point x="833" y="461"/>
      <point x="833" y="404" type="qcurve"/>
      <point x="833" y="364"/>
      <point x="822" y="312" type="qcurve"/>
      <point x="755" y="0" type="line"/>
      <point x="667" y="0" type="line"/>
      <point x="729" y="292" type="line"/>
      <point x="738" y="334"/>
      <point x="738" y="365" type="qcurve"/>
      <point x="738" y="452"/>
      <point x="666" y="452" type="qcurve"/>
      <point x="641" y="452"/>
      <point x="591" y="432"/>
      <point x="545" y="395"/>
      <point x="505" y="344"/>
      <point x="490" y="314" type="qcurve"/>
      <point x="424" y="0" type="line"/>
      <point x="336" y="0" type="line"/>
      <point x="398" y="292" type="line"/>
      <point x="407" y="335"/>
      <point x="407" y="366" type="qcurve"/>
      <point x="407" y="452"/>
      <point x="336" y="452" type="qcurve"/>
      <point x="286" y="452"/>
      <point x="190" y="377"/>
      <point x="160" y="315" type="qcurve"/>
      <point x="93" y="0" type="line"/>
      <point x="5" y="0" type="line"/>
    </contour>
  </outline>
</glyph>
<glyph name="p" format="1">
  <advance width="600"/>
  <unicode hex="0070"/>
  <outline>
    <contour>
      <point x="116" y="522" type="line"/>
      <point x="194" y="522" type="line"/>
      <point x="173" y="424" type="line"/>
      <point x="213" y="472"/>
      <point x="319" y="531"/>
      <point x="376" y="531" type="qcurve"/>
      <point x="419" y="531"/>
      <point x="487" y="496"/>
      <point x="535" y="436"/>
      <point x="560" y="357"/>
      <point x="560" y="313" type="qcurve"/>
      <point x="560" y="251"/>
      <point x="514" y="134"/>
      <point x="435" y="44"/>
      <point x="331" y="-10"/>
      <point x="273" y="-10" type="qcurve"/>
      <point x="212" y="-10"/>
      <point x="132" y="54"/>
      <point x="115" y="103" type="qcurve"/>
      <point x="48" y="-213" type="line"/>
      <point x="-40" y="-213" type="line"/>
    </contour>
    <contour>
      <point x="262" y="66" type="qcurve"/>
      <point x="304" y="66"/>
      <point x="378" y="107"/>
      <point x="435" y="174"/>
      <point x="468" y="257"/>
      <point x="468" y="299" type="qcurve"/>
      <point x="468" y="331"/>
      <point x="450" y="388"/>
      <point x="415" y="430"/>
      <point x="367" y="455"/>
      <point x="337" y="455" type="qcurve"/>
      <point x="315" y="455"/>
      <point x="263" y="436"/>
      <point x="215" y="405"/>
      <point x="175" y="362"/>
      <point x="165" y="338" type="qcurve"/>
      <point x="133" y="189" type="line"/>
      <point x="143" y="137"/>
      <point x="212" y="66"/>
    </contour>
  </outline>
</glyph>
<glyph name="q" format="1">
  <advance width="599"/>
  <unicode hex="0071"/>
  <outline>
    <contour>
      <point x="194" y="-10" type="qcurve"/>
      <point x="153" y="-10"/>
      <point x="89" y="24"/>
      <point x="45" y="82"/>
      <point x="22" y="159"/>
      <point x="22" y="203" type="qcurve"/>
      <point x="22" y="269"/>
      <point x="73" y="388"/>
      <point x="157" y="478"/>
      <point x="264" y="531"/>
      <point x="321" y="531" type="qcurve"/>
      <point x="379" y="531"/>
      <point x="461" y="471"/>
      <point x="478" y="423" type="qcurve"/>
      <point x="499" y="522" type="line"/>
      <point x="577" y="522" type="line"/>
      <point x="445" y="-101" type="line"/>
      <point x="444" y="-105"/>
      <point x="443" y="-111"/>
      <point x="443" y="-114" type="qcurve"/>
      <point x="443" y="-132"/>
      <point x="465" y="-133" type="qcurve"/>
      <point x="449" y="-209" type="line"/>
      <point x="429" y="-212"/>
      <point x="407" y="-212" type="qcurve"/>
      <point x="380" y="-212"/>
      <point x="346" y="-182"/>
      <point x="346" y="-157" type="qcurve"/>
      <point x="346" y="-152"/>
      <point x="348" y="-142" type="qcurve"/>
      <point x="400" y="103" type="line"/>
      <point x="355" y="47"/>
      <point x="251" y="-10"/>
    </contour>
    <contour>
      <point x="240" y="66" type="qcurve"/>
      <point x="292" y="66"/>
      <point x="382" y="131"/>
      <point x="416" y="178" type="qcurve"/>
      <point x="448" y="328" type="line"/>
      <point x="448" y="353"/>
      <point x="428" y="400"/>
      <point x="394" y="434"/>
      <point x="350" y="455"/>
      <point x="325" y="455" type="qcurve"/>
      <point x="284" y="455"/>
      <point x="207" y="414"/>
      <point x="149" y="347"/>
      <point x="114" y="262"/>
      <point x="114" y="218" type="qcurve"/>
      <point x="114" y="186"/>
      <point x="131" y="131"/>
      <point x="164" y="90"/>
      <point x="210" y="66"/>
    </contour>
  </outline>
</glyph>
<glyph name="t" format="1">
  <advance width="338"/>
  <unicode hex="0074"/>
  <outline>
    <contour>
      <point x="225" y="522" type="move" name="top"/>
    </contour>
    <contour>
      <point x="152" y="0" type="move" name="bottom"/>
    </contour>
    <contour>
      <point x="142" y="-7" type="qcurve"/>
      <point x="101" y="-7"/>
      <point x="48" y="31"/>
      <point x="48" y="73" type="qcurve"/>
      <point x="48" y="87"/>
      <point x="51" y="102" type="qcurve"/>
      <point x="126" y="453" type="line"/>
      <point x="58" y="453" type="line"/>
      <point x="73" y="522" type="line"/>
      <point x="140" y="522" type="line"/>
      <point x="177" y="696" type="line"/>
      <point x="265" y="696" type="line"/>
      <point x="228" y="522" type="line"/>
      <point x="339" y="522" type="line"/>
      <point x="324" y="453" type="line"/>
      <point x="214" y="453" type="line"/>
      <point x="145" y="129" type="line"/>
      <point x="143" y="119"/>
      <point x="143" y="114" type="qcurve"/>
      <point x="143" y="93"/>
      <point x="169" y="74"/>
      <point x="188" y="74" type="qcurve"/>
      <point x="213" y="74"/>
      <point x="257" y="91"/>
      <point x="266" y="96" type="qcurve"/>
      <point x="271" y="26" type="line"/>
      <point x="253" y="13"/>
      <point x="182" y="-7"/>
    </contour>
  </outline>
</glyph>
<glyph name="v" format="1">
  <advance width="508"/>
  <unicode hex="0076"/>
  <outline>
    <contour>
      <point x="56" y="522" type="line"/>
      <point x="147" y="522" type="line"/>
      <point x="206" y="77" type="line"/>
      <point x="287" y="189"/>
      <point x="404" y="410"/>
      <point x="433" y="522" type="qcurve"/>
      <point x="517" y="522" type="line"/>
      <point x="481" y="391"/>
      <point x="336" y="131"/>
      <point x="234" y="0" type="qcurve"/>
      <point x="139" y="0" type="line"/>
    </contour>
  </outline>
</glyph>
<glyph name="braceleft" format="1">
  <advance width="265"/>
  <unicode hex="007B"/>
  <outline>
    <contour>
      <point x="245" y="668" type="line"/>
      <point x="193" y="424" type="line"/>
      <point x="190" y="410"/>
      <point x="169" y="374"/>
      <point x="151" y="360" type="qcurve"/>
      <point x="160" y="350"/>
      <point x="167" y="324"/>
      <point x="167" y="311" type="qcurve"/>
      <point x="167" y="301"/>
      <point x="166" y="296" type="qcurve"/>
      <point x="112" y="41" type="line"/>
      <point x="164" y="41" type="line"/>
      <point x="149" y="-31" type="line"/>
      <point x="38" y="-31" type="line"/>
      <point x="32" y="-31"/>
      <point x="22" y="-23"/>
      <point x="22" y="-12" type="qcurve"/>
      <point x="22" y="-5"/>
      <point x="23" y="-1" type="qcurve"/>
      <point x="80" y="270" type="line"/>
      <point x="81" y="275"/>
      <point x="81" y="285" type="qcurve"/>
      <point x="81" y="302"/>
      <point x="66" y="327"/>
      <point x="52" y="329" type="qcurve"/>
      <point x="66" y="393" type="line"/>
      <point x="76" y="393"/>
      <point x="94" y="405"/>
      <point x="108" y="423"/>
      <point x="117" y="442"/>
      <point x="119" y="450" type="qcurve"/>
      <point x="174" y="710" type="line"/>
      <point x="178" y="729"/>
      <point x="197" y="740"/>
      <point x="202" y="740" type="qcurve"/>
      <point x="313" y="740" type="line"/>
      <point x="297" y="668" type="line"/>
    </contour>
  </outline>
</glyph>
<glyph name="currency" format="1">
  <advance width="567"/>
  <unicode hex="00A4"/>
  <outline>
    <contour>
      <point x="181" y="486" type="line"/>
      <point x="203" y="503"/>
      <point x="258" y="521"/>
      <point x="290" y="521" type="qcurve"/>
      <point x="322" y="521"/>
      <point x="376" y="503"/>
      <point x="399" y="486" type="qcurve"/>
      <point x="470" y="558" type="line"/>
      <point x="511" y="517" type="line"/>
      <point x="439" y="445" type="line"/>
      <point x="472" y="398"/>
      <point x="472" y="337" type="qcurve"/>
      <point x="472" y="277"/>
      <point x="438" y="229" type="qcurve"/>
      <point x="511" y="157" type="line"/>
      <point x="475" y="121" type="line"/>
      <point x="401" y="190" type="line"/>
      <point x="379" y="173"/>
      <point x="323" y="154"/>
      <point x="290" y="154" type="qcurve"/>
      <point x="257" y="154"/>
      <point x="201" y="173"/>
      <point x="178" y="190" type="qcurve"/>
      <point x="105" y="121" type="line"/>
      <point x="69" y="157" type="line"/>
      <point x="141" y="229" type="line"/>
      <point x="125" y="252"/>
      <point x="108" y="307"/>
      <point x="108" y="337" type="qcurve"/>
      <point x="108" y="399"/>
      <point x="140" y="445" type="qcurve"/>
      <point x="69" y="517" type="line"/>
      <point x="110" y="558" type="line"/>
    </contour>
    <contour>
      <point x="180" y="336" type="qcurve"/>
      <point x="180" y="310"/>
      <point x="197" y="266"/>
      <point x="227" y="234"/>
      <point x="267" y="215"/>
      <point x="290" y="215" type="qcurve"/>
      <point x="313" y="215"/>
      <point x="353" y="234"/>
      <point x="383" y="267"/>
      <point x="400" y="312"/>
      <point x="400" y="338" type="qcurve"/>
      <point x="400" y="364"/>
      <point x="383" y="408"/>
      <point x="353" y="441"/>
      <point x="313" y="459"/>
      <point x="290" y="459" type="qcurve"/>
      <point x="267" y="459"/>
      <point x="227" y="440"/>
      <point x="197" y="407"/>
      <point x="180" y="362"/>
    </contour>
  </outline>
</glyph>
<glyph name="brokenbar" format="1">
  <advance width="296"/>
  <unicode hex="00A6"/>
  <outline>
    <contour>
      <point x="191" y="273" type="line"/>
      <point x="191" y="-130" type="line"/>
      <point x="115" y="-130" type="line"/>
      <point x="115" y="273" type="line"/>
    </contour>
    <contour>
      <point x="191" y="775" type="line"/>
      <point x="191" y="372" type="line"/>
      <point x="115" y="372" type="line"/>
      <point x="115" y="775" type="line"/>
    </contour>
  </outline>
</glyph>
<glyph name="section" format="1">
  <advance width="498"/>
  <unicode hex="00A7"/>
  <outline>
    <contour>
      <point x="392" y="201" type="qcurve"/>
      <point x="415" y="181"/>
      <point x="415" y="132" type="qcurve"/>
      <point x="415" y="75"/>
      <point x="366" y="-8"/>
      <point x="293" y="-62"/>
      <point x="208" y="-88"/>
      <point x="172" y="-88" type="qcurve"/>
      <point x="137" y="-88"/>
      <point x="81" y="-70"/>
      <point x="38" y="-42"/>
      <point x="7" y="-8"/>
      <point x="-3" y="7" type="qcurve"/>
      <point x="65" y="61" type="line"/>
      <point x="91" y="27"/>
      <point x="149" y="-4"/>
      <point x="186" y="-4" type="qcurve"/>
      <point x="209" y="-4"/>
      <point x="257" y="12"/>
      <point x="296" y="41"/>
      <point x="321" y="84"/>
      <point x="321" y="111" type="qcurve"/>
      <point x="321" y="130"/>
      <point x="305" y="154"/>
      <point x="279" y="168"/>
      <point x="248" y="173"/>
      <point x="232" y="174" type="qcurve"/>
      <point x="158" y="179"/>
      <point x="73" y="247"/>
      <point x="73" y="310" type="qcurve"/>
      <point x="73" y="349"/>
      <point x="103" y="407"/>
      <point x="117" y="423" type="qcurve"/>
      <point x="106" y="434"/>
      <point x="93" y="479"/>
      <point x="93" y="506" type="qcurve"/>
      <point x="93" y="551"/>
      <point x="135" y="628"/>
      <point x="201" y="683"/>
      <point x="284" y="715"/>
      <point x="326" y="715" type="qcurve"/>
      <point x="364" y="715"/>
      <point x="418" y="696"/>
      <point x="457" y="666"/>
      <point x="481" y="629"/>
      <point x="489" y="611" type="qcurve"/>
      <point x="414" y="579" type="line"/>
      <point x="405" y="610"/>
      <point x="347" y="636"/>
      <point x="314" y="636" type="qcurve"/>
      <point x="290" y="636"/>
      <point x="244" y="620"/>
      <point x="206" y="589"/>
      <point x="183" y="546"/>
      <point x="183" y="519" type="qcurve"/>
      <point x="183" y="480"/>
      <point x="235" y="450"/>
      <point x="275" y="449" type="qcurve"/>
      <point x="306" y="449"/>
      <point x="365" y="435"/>
      <point x="412" y="404"/>
      <point x="441" y="355"/>
      <point x="441" y="319" type="qcurve"/>
      <point x="441" y="281"/>
      <point x="409" y="218"/>
    </contour>
    <contour>
      <point x="158" y="310" type="qcurve"/>
      <point x="158" y="277"/>
      <point x="194" y="248"/>
      <point x="245" y="237"/>
      <point x="298" y="233"/>
      <point x="315" y="225" type="qcurve"/>
      <point x="332" y="237"/>
      <point x="355" y="282"/>
      <point x="355" y="305" type="qcurve"/>
      <point x="355" y="325"/>
      <point x="338" y="353"/>
      <point x="311" y="370"/>
      <point x="279" y="377"/>
      <point x="263" y="377" type="qcurve"/>
      <point x="220" y="377"/>
      <point x="194" y="390" type="qcurve"/>
      <point x="180" y="378"/>
      <point x="158" y="335"/>
    </contour>
  </outline>
</glyph>
<glyph name="uni00AD" format="1">
  <advance width="560"/>
  <unicode hex="00AD"/>
  <outline>
    <contour>
      <point x="48" y="233" type="line"/>
      <point x="65" y="313" type="line"/>
      <point x="500" y="313" type="line"/>
      <point x="483" y="233" type="line"/>
    </contour>
  </outline>
</glyph>
<glyph name="registered" format="1">
  <advance width="849"/>
  <unicode hex="00AE"/>
  <outline>
    <contour>
      <point x="435" y="-7" type="qcurve"/>
      <point x="355" y="-7"/>
      <point x="220" y="48"/>
      <point x="121" y="145"/>
      <point x="65" y="277"/>
      <point x="65" y="355" type="qcurve"/>
      <point x="65" y="432"/>
      <point x="121" y="564"/>
      <point x="220" y="660"/>
      <point x="355" y="715"/>
      <point x="435" y="715" type="qcurve"/>
      <point x="515" y="715"/>
      <point x="651" y="660"/>
      <point x="751" y="564"/>
      <point x="807" y="432"/>
      <point x="807" y="355" type="qcurve"/>
      <point x="807" y="277"/>
      <point x="751" y="145"/>
      <point x="651" y="48"/>
      <point x="515" y="-7"/>
    </contour>
    <contour>
      <point x="435" y="30" type="qcurve"/>
      <point x="505" y="30"/>
      <point x="625" y="77"/>
      <point x="714" y="163"/>
      <point x="765" y="282"/>
      <point x="765" y="354" type="qcurve"/>
      <point x="765" y="423"/>
      <point x="715" y="541"/>
      <point x="627" y="628"/>
      <point x="506" y="677"/>
      <point x="435" y="677" type="qcurve"/>
      <point x="364" y="677"/>
      <point x="243" y="628"/>
      <point x="156" y="541"/>
      <point x="107" y="423"/>
      <point x="107" y="355" type="qcurve"/>
      <point x="107" y="286"/>
      <point x="156" y="167"/>
      <point x="243" y="80"/>
      <point x="364" y="30"/>
    </contour>
    <contour>
      <point x="280" y="579" type="line"/>
      <point x="472" y="579" type="line"/>
      <point x="502" y="579"/>
      <point x="552" y="554"/>
      <point x="588" y="513"/>
      <point x="608" y="461"/>
      <point x="608" y="435" type="qcurve"/>
      <point x="608" y="388"/>
      <point x="555" y="313"/>
      <point x="512" y="302" type="qcurve"/>
      <point x="621" y="130" type="line"/>
      <point x="548" y="130" type="line"/>
      <point x="446" y="292" type="line"/>
      <point x="345" y="292" type="line"/>
      <point x="345" y="130" type="line"/>
      <point x="280" y="130" type="line"/>
    </contour>
    <contour>
      <point x="469" y="349" type="line"/>
      <point x="505" y="349"/>
      <point x="544" y="397"/>
      <point x="544" y="435" type="qcurve"/>
      <point x="544" y="473"/>
      <point x="499" y="520"/>
      <point x="466" y="520" type="qcurve"/>
      <point x="345" y="520" type="line"/>
      <point x="345" y="349" type="line"/>
    </contour>
  </outline>
</glyph>
<glyph name="twosuperior" format="1">
  <advance width="383"/>
  <unicode hex="00B2"/>
  <outline>
    <contour>
      <point x="56" y="400" type="line"/>
      <point x="64" y="439"/>
      <point x="91" y="498"/>
      <point x="130" y="542"/>
      <point x="182" y="575"/>
      <point x="217" y="588" type="qcurve"/>
      <point x="243" y="598"/>
      <point x="297" y="617"/>
      <point x="341" y="641"/>
      <point x="369" y="675"/>
      <point x="369" y="701" type="qcurve"/>
      <point x="369" y="725"/>
      <point x="330" y="757"/>
      <point x="291" y="757" type="qcurve"/>
      <point x="245" y="757"/>
      <point x="179" y="721"/>
      <point x="160" y="704" type="qcurve"/>
      <point x="133" y="743" type="line"/>
      <point x="139" y="750"/>
      <point x="169" y="773"/>
      <point x="215" y="795"/>
      <point x="275" y="811"/>
      <point x="310" y="811" type="qcurve"/>
      <point x="372" y="811"/>
      <point x="432" y="756"/>
      <point x="432" y="712" type="qcurve"/>
      <point x="432" y="652"/>
      <point x="351" y="586"/>
      <point x="271" y="560" type="qcurve"/>
      <point x="240" y="550"/>
      <point x="198" y="524"/>
      <point x="171" y="496"/>
      <point x="157" y="467"/>
      <point x="154" y="454" type="qcurve"/>
      <point x="372" y="454" type="line"/>
      <point x="360" y="400" type="line"/>
    </contour>
  </outline>
</glyph>
<glyph name="paragraph" format="1">
  <advance width="595"/>
  <unicode hex="00B6"/>
  <outline>
    <contour>
      <point x="64" y="412" type="qcurve"/>
      <point x="64" y="479"/>
      <point x="110" y="589"/>
      <point x="195" y="667"/>
      <point x="316" y="710"/>
      <point x="391" y="710" type="qcurve"/>
      <point x="639" y="710" type="line"/>
      <point x="624" y="642" type="line"/>
      <point x="558" y="642" type="line"/>
      <point x="404" y="-80" type="line"/>
      <point x="328" y="-80" type="line"/>
      <point x="393" y="224" type="line"/>
      <point x="331" y="224" type="line"/>
      <point x="266" y="-80" type="line"/>
      <point x="190" y="-80" type="line"/>
      <point x="255" y="224" type="line"/>
      <point x="164" y="226"/>
      <point x="64" y="326"/>
    </contour>
    <contour>
      <point x="141" y="428" type="qcurve"/>
      <point x="141" y="362"/>
      <point x="214" y="296"/>
      <point x="269" y="292" type="qcurve"/>
      <point x="344" y="642" type="line"/>
      <point x="296" y="641"/>
      <point x="221" y="608"/>
      <point x="169" y="551"/>
      <point x="141" y="473"/>
    </contour>
    <contour>
      <point x="482" y="642" type="line"/>
      <point x="420" y="642" type="line"/>
      <point x="345" y="292" type="line"/>
      <point x="407" y="292" type="line"/>
    </contour>
  </outline>
</glyph>
<glyph name="onesuperior" format="1">
  <advance width="269"/>
  <unicode hex="00B9"/>
  <outline>
    <contour>
      <point x="282" y="455" type="line"/>
      <point x="270" y="400" type="line"/>
      <point x="69" y="400" type="line"/>
      <point x="81" y="455" type="line"/>
      <point x="157" y="455" type="line"/>
      <point x="219" y="749" type="line"/>
      <point x="213" y="743"/>
      <point x="188" y="726"/>
      <point x="159" y="711"/>
      <point x="130" y="700"/>
      <point x="118" y="700" type="qcurve"/>
      <point x="130" y="755" type="line"/>
      <point x="145" y="755"/>
      <point x="180" y="772"/>
      <point x="211" y="792"/>
      <point x="232" y="810"/>
      <point x="232" y="811" type="qcurve"/>
      <point x="288" y="811" type="line"/>
      <point x="212" y="455" type="line"/>
    </contour>
  </outline>
</glyph>
<glyph name="Agrave" format="1">
  <advance width="652"/>
  <unicode hex="00C0"/>
  <outline>
    <contour>
      <point x="378" y="710" type="line"/>
      <point x="455" y="710" type="line"/>
      <point x="578" y="0" type="line"/>
      <point x="482" y="0" type="line"/>
      <point x="448" y="208" type="line"/>
      <point x="170" y="208" type="line"/>
      <point x="49" y="0" type="line"/>
      <point x="-47" y="0" type="line"/>
    </contour>
    <contour>
      <point x="444" y="278" type="line"/>
      <point x="395" y="606" type="line"/>
      <point x="202" y="278" type="line"/>
    </contour>
    <contour>
      <point x="340" y="917" type="line"/>
      <point x="426" y="917" type="line"/>
      <point x="460" y="816" type="line"/>
      <point x="399" y="796" type="line"/>
    </contour>
  </outline>
</glyph>
<glyph name="Acircumflex" format="1">
  <advance width="652"/>
  <unicode hex="00C2"/>
  <outline>
    <contour>
      <point x="378" y="710" type="line"/>
      <point x="455" y="710" type="line"/>
      <point x="578" y="0" type="line"/>
      <point x="482" y="0" type="line"/>
      <point x="448" y="208" type="line"/>
      <point x="170" y="208" type="line"/>
      <point x="49" y="0" type="line"/>
      <point x="-47" y="0" type="line"/>
    </contour>
    <contour>
      <point x="444" y="278" type="line"/>
      <point x="395" y="606" type="line"/>
      <point x="202" y="278" type="line"/>
    </contour>
    <contour>
      <point x="312" y="826" type="line"/>
      <point x="428" y="916" type="line"/>
      <point x="492" y="916" type="line"/>
      <point x="569" y="826" type="line"/>
      <point x="516" y="802" type="line"/>
      <point x="449" y="865" type="line"/>
      <point x="355" y="802" type="line"/>
    </contour>
  </outline>
</glyph>
<glyph name="Ecircumflex" format="1">
  <advance width="580"/>
  <unicode hex="00CA"/>
  <outline>
    <contour>
      <point x="303" y="826" type="line"/>
      <point x="419" y="916" type="line"/>
      <point x="483" y="916" type="line"/>
      <point x="560" y="826" type="line"/>
      <point x="507" y="802" type="line"/>
      <point x="440" y="865" type="line"/>
      <point x="346" y="802" type="line"/>
    </contour>
    <contour>
      <point x="171" y="710" type="line"/>
      <point x="621" y="710" type="line"/>
      <point x="604" y="630" type="line"/>
      <point x="244" y="630" type="line"/>
      <point x="195" y="400" type="line"/>
      <point x="508" y="400" type="line"/>
      <point x="492" y="325" type="line"/>
      <point x="179" y="325" type="line"/>
      <point x="127" y="80" type="line"/>
      <point x="496" y="80" type="line"/>
      <point x="479" y="0" type="line"/>
      <point x="20" y="0" type="line"/>
    </contour>
  </outline>
</glyph>
<glyph name="Oslash" format="1">
  <advance width="721"/>
  <unicode hex="00D8"/>
  <outline>
    <contour>
      <point x="728" y="710" type="line"/>
      <point x="644" y="611" type="line"/>
      <point x="671" y="571"/>
      <point x="699" y="473"/>
      <point x="699" y="420" type="qcurve"/>
      <point x="699" y="339"/>
      <point x="632" y="186"/>
      <point x="519" y="67"/>
      <point x="373" y="-5"/>
      <point x="295" y="-5" type="qcurve"/>
      <point x="253" y="-5"/>
      <point x="183" y="19"/>
      <point x="154" y="40" type="qcurve"/>
      <point x="120" y="0" type="line"/>
      <point x="22" y="0" type="line"/>
      <point x="102" y="93" type="line"/>
      <point x="73" y="133"/>
      <point x="44" y="234"/>
      <point x="44" y="288" type="qcurve"/>
      <point x="44" y="369"/>
      <point x="112" y="523"/>
      <point x="225" y="643"/>
      <point x="372" y="715"/>
      <point x="450" y="715" type="qcurve"/>
      <point x="493" y="715"/>
      <point x="564" y="689"/>
      <point x="593" y="666" type="qcurve"/>
      <point x="630" y="710" type="line"/>
    </contour>
    <contour>
      <point x="136" y="296" type="qcurve"/>
      <point x="136" y="260"/>
      <point x="150" y="194"/>
      <point x="165" y="167" type="qcurve"/>
      <point x="533" y="597" type="line"/>
      <point x="513" y="614"/>
      <point x="462" y="633"/>
      <point x="431" y="633" type="qcurve"/>
      <point x="369" y="633"/>
      <point x="262" y="573"/>
      <point x="182" y="476"/>
      <point x="136" y="356"/>
    </contour>
    <contour>
      <point x="313" y="76" type="qcurve"/>
      <point x="374" y="76"/>
      <point x="482" y="137"/>
      <point x="561" y="234"/>
      <point x="607" y="354"/>
      <point x="607" y="413" type="qcurve"/>
      <point x="607" y="483"/>
      <point x="580" y="537" type="qcurve"/>
      <point x="213" y="109" type="line"/>
      <point x="255" y="76"/>
    </contour>
  </outline>
</glyph>
<glyph name="Ugrave" format="1">
  <advance width="724"/>
  <unicode hex="00D9"/>
  <outline>
    <contour>
      <point x="298" y="-5" type="qcurve"/>
      <point x="235" y="-5"/>
      <point x="149" y="32"/>
      <point x="95" y="96"/>
      <point x="71" y="182"/>
      <point x="71" y="232" type="qcurve"/>
      <point x="71" y="287"/>
      <point x="85" y="351" type="qcurve"/>
      <point x="161" y="710" type="line"/>
      <point x="251" y="710" type="line"/>
      <point x="175" y="351" type="line"/>
      <point x="163" y="297"/>
      <point x="163" y="247" type="qcurve"/>
      <point x="163" y="211"/>
      <point x="178" y="149"/>
      <point x="214" y="102"/>
      <point x="272" y="76"/>
      <point x="314" y="76" type="qcurve"/>
      <point x="372" y="76"/>
      <point x="458" y="124"/>
      <point x="520" y="201"/>
      <point x="560" y="300"/>
      <point x="571" y="351" type="qcurve"/>
      <point x="647" y="710" type="line"/>
      <point x="737" y="710" type="line"/>
      <point x="661" y="351" type="line"/>
      <point x="646" y="279"/>
      <point x="587" y="150"/>
      <point x="497" y="52"/>
      <point x="376" y="-5"/>
    </contour>
    <contour>
      <point x="401" y="917" type="line"/>
      <point x="487" y="917" type="line"/>
      <point x="521" y="816" type="line"/>
      <point x="460" y="796" type="line"/>
    </contour>
  </outline>
</glyph>
<glyph name="Uacute" format="1">
  <advance width="724"/>
  <unicode hex="00DA"/>
  <outline>
    <contour>
      <point x="464" y="795" type="line"/>
      <point x="410" y="815" type="line"/>
      <point x="486" y="916" type="line"/>
      <point x="573" y="916" type="line"/>
    </contour>
    <contour>
      <point x="298" y="-5" type="qcurve"/>
      <point x="235" y="-5"/>
      <point x="149" y="32"/>
      <point x="95" y="96"/>
      <point x="71" y="182"/>
      <point x="71" y="232" type="qcurve"/>
      <point x="71" y="287"/>
      <point x="85" y="351" type="qcurve"/>
      <point x="161" y="710" type="line"/>
      <point x="251" y="710" type="line"/>
      <point x="175" y="351" type="line"/>
      <point x="163" y="297"/>
      <point x="163" y="247" type="qcurve"/>
      <point x="163" y="211"/>
      <point x="178" y="149"/>
      <point x="214" y="102"/>
      <point x="272" y="76"/>
      <point x="314" y="76" type="qcurve"/>
      <point x="372" y="76"/>
      <point x="458" y="124"/>
      <point x="520" y="201"/>
      <point x="560" y="300"/>
      <point x="571" y="351" type="qcurve"/>
      <point x="647" y="710" type="line"/>
      <point x="737" y="710" type="line"/>
      <point x="661" y="351" type="line"/>
      <point x="646" y="279"/>
      <point x="587" y="150"/>
      <point x="497" y="52"/>
      <point x="376" y="-5"/>
    </contour>
  </outline>
</glyph>
<glyph name="Thorn" format="1">
  <advance width="581"/>
  <unicode hex="00DE"/>
  <outline>
    <contour>
      <point x="171" y="710" type="line"/>
      <point x="261" y="710" type="line"/>
      <point x="232" y="573" type="line"/>
      <point x="406" y="573" type="line"/>
      <point x="445" y="573"/>
      <point x="505" y="541"/>
      <point x="547" y="489"/>
      <point x="569" y="421"/>
      <point x="569" y="385" type="qcurve"/>
      <point x="569" y="336"/>
      <point x="528" y="241"/>
      <point x="459" y="165"/>
      <point x="367" y="118"/>
      <point x="315" y="118" type="qcurve"/>
      <point x="135" y="118" type="line"/>
      <point x="110" y="0" type="line"/>
      <point x="20" y="0" type="line"/>
    </contour>
    <contour>
      <point x="328" y="198" type="line"/>
      <point x="359" y="198"/>
      <point x="413" y="229"/>
      <point x="453" y="280"/>
      <point x="477" y="344"/>
      <point x="477" y="376" type="qcurve"/>
      <point x="477" y="425"/>
      <point x="427" y="493"/>
      <point x="385" y="493" type="qcurve"/>
      <point x="215" y="493" type="line"/>
      <point x="152" y="198" type="line"/>
    </contour>
  </outline>
</glyph>
<glyph name="germandbls" format="1">
  <advance width="532"/>
  <unicode hex="00DF"/>
  <outline>
    <contour>
      <point x="184" y="75" type="line"/>
      <point x="228" y="76"/>
      <point x="304" y="96"/>
      <point x="359" y="138"/>
      <point x="390" y="201"/>
      <point x="390" y="245" type="qcurve"/>
      <point x="390" y="296"/>
      <point x="330" y="357"/>
      <point x="277" y="357" type="qcurve"/>
      <point x="258" y="357" type="line"/>
      <point x="275" y="437" type="line"/>
      <point x="293" y="437" type="line"/>
      <point x="319" y="437"/>
      <point x="364" y="456"/>
      <point x="398" y="489"/>
      <point x="417" y="534"/>
      <point x="417" y="561" type="qcurve"/>
      <point x="417" y="600"/>
      <point x="369" y="638"/>
      <point x="335" y="638" type="qcurve"/>
      <point x="306" y="638"/>
      <point x="260" y="616"/>
      <point x="225" y="578"/>
      <point x="202" y="530"/>
      <point x="196" y="503" type="qcurve"/>
      <point x="89" y="0" type="line"/>
      <point x="5" y="0" type="line"/>
      <point x="115" y="517" type="line"/>
      <point x="124" y="560"/>
      <point x="169" y="633"/>
      <point x="233" y="685"/>
      <point x="312" y="714"/>
      <point x="355" y="714" type="qcurve"/>
      <point x="422" y="714"/>
      <point x="505" y="641"/>
      <point x="505" y="581" type="qcurve"/>
      <point x="505" y="551"/>
      <point x="482" y="492"/>
      <point x="446" y="444"/>
      <point x="399" y="409"/>
      <point x="375" y="402" type="qcurve"/>
      <point x="428" y="390"/>
      <point x="481" y="305"/>
      <point x="481" y="249" type="qcurve"/>
      <point x="481" y="188"/>
      <point x="432" y="95"/>
      <point x="347" y="31"/>
      <point x="232" y="-4"/>
      <point x="167" y="-6" type="qcurve"/>
    </contour>
  </outline>
</glyph>
<glyph name="ae" format="1">
  <advance width="888"/>
  <unicode hex="00E6"/>
  <outline>
    <contour>
      <point x="382" y="522" type="move" name="top"/>
    </contour>
    <contour>
      <point x="133" y="-10" type="qcurve"/>
      <point x="100" y="-10"/>
      <point x="49" y="10"/>
      <point x="13" y="46"/>
      <point x="-6" y="95"/>
      <point x="-6" y="124" type="qcurve"/>
      <point x="-6" y="166"/>
      <point x="32" y="235"/>
      <point x="99" y="286"/>
      <point x="189" y="314"/>
      <point x="240" y="314" type="qcurve"/>
      <point x="272" y="314"/>
      <point x="334" y="303"/>
      <point x="358" y="294" type="qcurve"/>
      <point x="366" y="320"/>
      <point x="385" y="357"/>
      <point x="385" y="381" type="qcurve"/>
      <point x="385" y="417"/>
      <point x="331" y="467"/>
      <point x="280" y="467" type="qcurve"/>
      <point x="242" y="467"/>
      <point x="158" y="436"/>
      <point x="110" y="406" type="qcurve"/>
      <point x="94" y="463" type="line"/>
      <point x="206" y="531"/>
      <point x="303" y="531" type="qcurve"/>
      <point x="363" y="531"/>
      <point x="440" y="481"/>
      <point x="454" y="436" type="qcurve"/>
      <point x="495" y="479"/>
      <point x="601" y="531"/>
      <point x="661" y="531" type="qcurve"/>
      <point x="709" y="531"/>
      <point x="783" y="497"/>
      <point x="834" y="437"/>
      <point x="861" y="357"/>
      <point x="861" y="311" type="qcurve"/>
      <point x="861" y="273"/>
      <point x="848" y="237"/>
      <point x="846" y="231" type="qcurve"/>
      <point x="429" y="231" type="line"/>
      <point x="426" y="216"/>
      <point x="426" y="201" type="qcurve"/>
      <point x="426" y="169"/>
      <point x="446" y="115"/>
      <point x="483" y="77"/>
      <point x="533" y="56"/>
      <point x="563" y="56" type="qcurve"/>
      <point x="586" y="56"/>
      <point x="632" y="69"/>
      <point x="674" y="91"/>
      <point x="709" y="123"/>
      <point x="721" y="143" type="qcurve"/>
      <point x="793" y="122" type="line"/>
      <point x="775" y="93"/>
      <point x="722" y="45"/>
      <point x="657" y="10"/>
      <point x="585" y="-10"/>
      <point x="547" y="-10" type="qcurve"/>
      <point x="479" y="-10"/>
      <point x="385" y="52"/>
      <point x="363" y="103" type="qcurve"/>
      <point x="340" y="72"/>
      <point x="281" y="29"/>
      <point x="218" y="2"/>
      <point x="157" y="-10"/>
    </contour>
    <contour>
      <point x="169" y="56" type="qcurve"/>
      <point x="193" y="56"/>
      <point x="249" y="72"/>
      <point x="299" y="100"/>
      <point x="338" y="135"/>
      <point x="345" y="155" type="qcurve"/>
      <point x="342" y="168"/>
      <point x="342" y="188" type="qcurve"/>
      <point x="342" y="217"/>
      <point x="347" y="242" type="qcurve"/>
      <point x="298" y="261"/>
      <point x="243" y="261" type="qcurve"/>
      <point x="208" y="261"/>
      <point x="148" y="243"/>
      <point x="105" y="212"/>
      <point x="80" y="168"/>
      <point x="80" y="141" type="qcurve"/>
      <point x="80" y="106"/>
      <point x="125" y="56"/>
    </contour>
    <contour>
      <point x="775" y="288" type="line"/>
      <point x="777" y="296"/>
      <point x="777" y="313"/>
      <point x="777" y="321" type="qcurve"/>
      <point x="777" y="386"/>
      <point x="706" y="465"/>
      <point x="644" y="465" type="qcurve"/>
      <point x="609" y="465"/>
      <point x="545" y="439"/>
      <point x="490" y="392"/>
      <point x="449" y="327"/>
      <point x="439" y="288" type="qcurve"/>
    </contour>
  </outline>
</glyph>
<glyph name="ccedilla" format="1">
  <advance width="531"/>
  <unicode hex="00E7"/>
  <outline>
    <contour>
      <point x="118" y="-126" type="line"/>
      <point x="129" y="-133"/>
      <point x="172" y="-145"/>
      <point x="197" y="-145" type="qcurve"/>
      <point x="226" y="-145"/>
      <point x="260" y="-125"/>
      <point x="260" y="-103" type="qcurve"/>
      <point x="260" y="-87"/>
      <point x="237" y="-75"/>
      <point x="218" y="-75" type="qcurve"/>
      <point x="198" y="-75"/>
      <point x="152" y="-84"/>
      <point x="139" y="-88" type="qcurve"/>
      <point x="196" y="-8" type="line"/>
      <point x="154" y="-3"/>
      <point x="90" y="35"/>
      <point x="45" y="93"/>
      <point x="22" y="168"/>
      <point x="22" y="210" type="qcurve"/>
      <point x="22" y="273"/>
      <point x="72" y="389"/>
      <point x="157" y="478"/>
      <point x="273" y="531"/>
      <point x="339" y="531" type="qcurve"/>
      <point x="414" y="531"/>
      <point x="507" y="462"/>
      <point x="522" y="404" type="qcurve"/>
      <point x="431" y="377" type="line"/>
      <point x="420" y="414"/>
      <point x="362" y="455"/>
      <point x="321" y="455" type="qcurve"/>
      <point x="281" y="455"/>
      <point x="206" y="418"/>
      <point x="148" y="355"/>
      <point x="113" y="269"/>
      <point x="113" y="221" type="qcurve"/>
      <point x="113" y="188"/>
      <point x="131" y="131"/>
      <point x="164" y="90"/>
      <point x="211" y="66"/>
      <point x="239" y="66" type="qcurve"/>
      <point x="260" y="66"/>
      <point x="305" y="79"/>
      <point x="344" y="101"/>
      <point x="376" y="130"/>
      <point x="385" y="147" type="qcurve"/>
      <point x="466" y="121" type="line"/>
      <point x="433" y="66"/>
      <point x="311" y="-5"/>
      <point x="239" y="-9" type="qcurve"/>
      <point x="208" y="-48" type="line"/>
      <point x="216" y="-45"/>
      <point x="235" y="-43"/>
      <point x="243" y="-43" type="qcurve"/>
      <point x="272" y="-43"/>
      <point x="306" y="-68"/>
      <point x="306" y="-94" type="qcurve"/>
      <point x="306" y="-133"/>
      <point x="243" y="-182"/>
      <point x="182" y="-182" type="qcurve"/>
      <point x="153" y="-182"/>
      <point x="107" y="-171"/>
      <point x="90" y="-163" type="qcurve"/>
    </contour>
  </outline>
</glyph>
<glyph name="eacute" format="1">
  <advance width="539"/>
  <unicode hex="00E9"/>
  <outline>
    <contour>
      <point x="344" y="609" type="line"/>
      <point x="290" y="629" type="line"/>
      <point x="366" y="730" type="line"/>
      <point x="453" y="730" type="line"/>
    </contour>
    <contour>
      <point x="228" y="-10" type="qcurve"/>
      <point x="179" y="-10"/>
      <point x="103" y="24"/>
      <point x="50" y="84"/>
      <point x="23" y="164"/>
      <point x="23" y="210" type="qcurve"/>
      <point x="23" y="273"/>
      <point x="71" y="389"/>
      <point x="157" y="478"/>
      <point x="273" y="531"/>
      <point x="341" y="531" type="qcurve"/>
      <point x="418" y="531"/>
      <point x="513" y="460"/>
      <point x="513" y="390" type="qcurve"/>
      <point x="513" y="310"/>
      <point x="374" y="229"/>
      <point x="228" y="229" type="qcurve"/>
      <point x="204" y="229"/>
      <point x="145" y="231"/>
      <point x="113" y="234" type="qcurve"/>
      <point x="112" y="228"/>
      <point x="112" y="216"/>
      <point x="112" y="211" type="qcurve"/>
      <point x="112" y="180"/>
      <point x="128" y="124"/>
      <point x="160" y="81"/>
      <point x="209" y="56"/>
      <point x="242" y="56" type="qcurve"/>
      <point x="288" y="56"/>
      <point x="376" y="103"/>
      <point x="401" y="143" type="qcurve"/>
      <point x="472" y="122" type="line"/>
      <point x="454" y="93"/>
      <point x="400" y="45"/>
      <point x="336" y="10"/>
      <point x="265" y="-10"/>
    </contour>
    <contour>
      <point x="333" y="465" type="qcurve"/>
      <point x="290" y="465"/>
      <point x="221" y="436"/>
      <point x="170" y="388"/>
      <point x="135" y="327"/>
      <point x="125" y="295" type="qcurve"/>
      <point x="155" y="292"/>
      <point x="208" y="290"/>
      <point x="231" y="290" type="qcurve"/>
      <point x="288" y="290"/>
      <point x="365" y="305"/>
      <point x="413" y="332"/>
      <point x="434" y="369"/>
      <point x="434" y="391" type="qcurve"/>
      <point x="434" y="429"/>
      <point x="379" y="465"/>
    </contour>
  </outline>
</glyph>
<glyph name="idieresis" format="1">
  <advance width="226"/>
  <unicode hex="00EF"/>
  <outline>
    <contour>
      <point x="62" y="624" type="line"/>
      <point x="84" y="726" type="line"/>
      <point x="158" y="726" type="line"/>
      <point x="136" y="624" type="line"/>
    </contour>
    <contour>
      <point x="219" y="624" type="line"/>
      <point x="241" y="726" type="line"/>
      <point x="314" y="726" type="line"/>
      <point x="293" y="624" type="line"/>
    </contour>
    <contour>
      <point x="116" y="522" type="line"/>
      <point x="204" y="522" type="line"/>
      <point x="93" y="0" type="line"/>
      <point x="5" y="0" type="line"/>
    </contour>
  </outline>
</glyph>
<glyph name="oslash" format="1">
  <advance width="578"/>
  <unicode hex="00F8"/>
  <outline>
    <contour>
      <point x="72" y="57" type="line"/>
      <point x="47" y="86"/>
      <point x="22" y="164"/>
      <point x="22" y="208" type="qcurve"/>
      <point x="22" y="271"/>
      <point x="73" y="387"/>
      <point x="159" y="477"/>
      <point x="274" y="531"/>
      <point x="338" y="531" type="qcurve"/>
      <point x="374" y="531"/>
      <point x="435" y="510"/>
      <point x="459" y="492" type="qcurve"/>
      <point x="491" y="524" type="line"/>
      <point x="546" y="524" type="line"/>
      <point x="487" y="465" type="line"/>
      <point x="513" y="435"/>
      <point x="539" y="357"/>
      <point x="539" y="312" type="qcurve"/>
      <point x="539" y="250"/>
      <point x="489" y="134"/>
      <point x="403" y="44"/>
      <point x="288" y="-10"/>
      <point x="223" y="-10" type="qcurve"/>
      <point x="185" y="-10"/>
      <point x="123" y="11"/>
      <point x="99" y="30" type="qcurve"/>
      <point x="67" y="-2" type="line"/>
      <point x="13" y="-2" type="line"/>
    </contour>
    <contour>
      <point x="239" y="66" type="qcurve"/>
      <point x="278" y="66"/>
      <point x="352" y="104"/>
      <point x="411" y="168"/>
      <point x="447" y="253"/>
      <point x="447" y="301" type="qcurve"/>
      <point x="447" y="356"/>
      <point x="422" y="397" type="qcurve"/>
      <point x="160" y="95" type="line"/>
      <point x="192" y="66"/>
    </contour>
    <contour>
      <point x="113" y="219" type="qcurve"/>
      <point x="113" y="164"/>
      <point x="138" y="123" type="qcurve"/>
      <point x="398" y="425" type="line"/>
      <point x="366" y="455"/>
      <point x="321" y="455" type="qcurve"/>
      <point x="283" y="455"/>
      <point x="208" y="417"/>
      <point x="149" y="352"/>
      <point x="113" y="266"/>
    </contour>
  </outline>
</glyph>
<glyph name="udieresis" format="1">
  <advance width="577"/>
  <unicode hex="00FC"/>
  <outline>
    <contour>
      <point x="231" y="624" type="line"/>
      <point x="253" y="726" type="line"/>
      <point x="327" y="726" type="line"/>
      <point x="305" y="624" type="line"/>
    </contour>
    <contour>
      <point x="388" y="624" type="line"/>
      <point x="410" y="726" type="line"/>
      <point x="483" y="726" type="line"/>
      <point x="462" y="624" type="line"/>
    </contour>
    <contour>
      <point x="155" y="-10" type="qcurve"/>
      <point x="33" y="-10"/>
      <point x="33" y="122" type="qcurve"/>
      <point x="33" y="157"/>
      <point x="44" y="209" type="qcurve"/>
      <point x="111" y="522" type="line"/>
      <point x="198" y="522" type="line"/>
      <point x="135" y="226" type="line"/>
      <point x="126" y="185"/>
      <point x="126" y="157" type="qcurve"/>
      <point x="126" y="66"/>
      <point x="204" y="66" type="qcurve"/>
      <point x="254" y="66"/>
      <point x="357" y="135"/>
      <point x="392" y="195" type="qcurve"/>
      <point x="461" y="522" type="line"/>
      <point x="549" y="522" type="line"/>
      <point x="461" y="108" type="line"/>
      <point x="460" y="104"/>
      <point x="459" y="98"/>
      <point x="459" y="95" type="qcurve"/>
      <point x="459" y="77"/>
      <point x="481" y="76" type="qcurve"/>
      <point x="465" y="0" type="line"/>
      <point x="454" y="-2"/>
      <point x="437" y="-4"/>
      <point x="430" y="-4" type="qcurve"/>
      <point x="403" y="-4"/>
      <point x="375" y="20"/>
      <point x="375" y="40" type="qcurve"/>
      <point x="375" y="49"/>
      <point x="379" y="80"/>
      <point x="386" y="112" type="qcurve"/>
      <point x="341" y="53"/>
      <point x="219" y="-10"/>
    </contour>
  </outline>
</glyph>
<glyph name="Abreve" format="1">
  <advance width="652"/>
  <unicode hex="0102"/>
  <outline>
    <contour>
      <point x="378" y="710" type="line"/>
      <point x="455" y="710" type="line"/>
      <point x="578" y="0" type="line"/>
      <point x="482" y="0" type="line"/>
      <point x="448" y="208" type="line"/>
      <point x="170" y="208" type="line"/>
      <point x="49" y="0" type="line"/>
      <point x="-47" y="0" type="line"/>
    </contour>
    <contour>
      <point x="444" y="278" type="line"/>
      <point x="395" y="606" type="line"/>
      <point x="202" y="278" type="line"/>
    </contour>
    <contour>
      <point x="438" y="848" type="qcurve"/>
      <point x="458" y="848"/>
      <point x="498" y="887"/>
      <point x="507" y="916" type="qcurve"/>
      <point x="557" y="916" type="line"/>
      <point x="552" y="892"/>
      <point x="527" y="852"/>
      <point x="493" y="822"/>
      <point x="451" y="805"/>
      <point x="429" y="805" type="qcurve"/>
      <point x="390" y="805"/>
      <point x="344" y="852"/>
      <point x="344" y="890" type="qcurve"/>
      <point x="344" y="902"/>
      <point x="347" y="916" type="qcurve"/>
      <point x="398" y="916" type="line"/>
      <point x="397" y="911"/>
      <point x="396" y="904"/>
      <point x="396" y="899" type="qcurve"/>
      <point x="396" y="878"/>
      <point x="419" y="848"/>
    </contour>
  </outline>
</glyph>
<glyph name="Aogonek" format="1">
  <advance width="652"/>
  <unicode hex="0104"/>
  <outline>
    <contour>
      <point x="494" y="-181" type="line"/>
      <point x="460" y="-174"/>
      <point x="426" y="-139"/>
      <point x="426" y="-116" type="qcurve"/>
      <point x="426" y="-87"/>
      <point x="472" y="-30"/>
      <point x="523" y="0" type="qcurve"/>
      <point x="482" y="0" type="line"/>
      <point x="448" y="208" type="line"/>
      <point x="170" y="208" type="line"/>
      <point x="49" y="0" type="line"/>
      <point x="-47" y="0" type="line"/>
      <point x="378" y="710" type="line"/>
      <point x="455" y="710" type="line"/>
      <point x="578" y="0" type="line"/>
      <point x="524" y="-31"/>
      <point x="480" y="-76"/>
      <point x="480" y="-99" type="qcurve"/>
      <point x="480" y="-131"/>
      <point x="525" y="-135" type="qcurve"/>
    </contour>
    <contour>
      <point x="444" y="278" type="line"/>
      <point x="395" y="606" type="line"/>
      <point x="202" y="278" type="line"/>
    </contour>
  </outline>
</glyph>
<glyph name="eogonek" format="1">
  <advance width="539"/>
  <unicode hex="0119"/>
  <outline>
    <contour>
      <point x="192" y="-186" type="line"/>
      <point x="158" y="-179"/>
      <point x="124" y="-144"/>
      <point x="124" y="-121" type="qcurve"/>
      <point x="124" y="-93"/>
      <point x="167" y="-39"/>
      <point x="214" y="-10" type="qcurve"/>
      <point x="168" y="-7"/>
      <point x="97" y="29"/>
      <point x="48" y="87"/>
      <point x="23" y="165"/>
      <point x="23" y="210" type="qcurve"/>
      <point x="23" y="273"/>
      <point x="71" y="389"/>
      <point x="157" y="478"/>
      <point x="273" y="531"/>
      <point x="341" y="531" type="qcurve"/>
      <point x="418" y="531"/>
      <point x="513" y="460"/>
      <point x="513" y="390" type="qcurve"/>
      <point x="513" y="310"/>
      <point x="374" y="229"/>
      <point x="228" y="229" type="qcurve"/>
      <point x="204" y="229"/>
      <point x="145" y="231"/>
      <point x="113" y="234" type="qcurve"/>
      <point x="112" y="228"/>
      <point x="112" y="216"/>
      <point x="112" y="211" type="qcurve"/>
      <point x="112" y="180"/>
      <point x="128" y="124"/>
      <point x="160" y="81"/>
      <point x="209" y="56"/>
      <point x="242" y="56" type="qcurve"/>
      <point x="288" y="56"/>
      <point x="376" y="103"/>
      <point x="401" y="143" type="qcurve"/>
      <point x="472" y="122" type="line"/>
      <point x="440" y="73"/>
      <point x="335" y="5"/>
      <point x="274" y="-6" type="qcurve"/>
      <point x="221" y="-36"/>
      <point x="178" y="-81"/>
      <point x="178" y="-104" type="qcurve"/>
      <point x="178" y="-136"/>
      <point x="223" y="-140" type="qcurve"/>
    </contour>
    <contour>
      <point x="333" y="465" type="qcurve"/>
      <point x="290" y="465"/>
      <point x="221" y="436"/>
      <point x="170" y="388"/>
      <point x="135" y="327"/>
      <point x="125" y="295" type="qcurve"/>
      <point x="155" y="292"/>
      <point x="208" y="290"/>
      <point x="231" y="290" type="qcurve"/>
      <point x="288" y="290"/>
      <point x="365" y="305"/>
      <point x="413" y="332"/>
      <point x="434" y="369"/>
      <point x="434" y="391" type="qcurve"/>
      <point x="434" y="429"/>
      <point x="379" y="465"/>
    </contour>
  </outline>
</glyph>
<glyph name="Hbar" format="1">
  <advance width="723"/>
  <unicode hex="0126"/>
  <outline>
    <contour>
      <point x="105" y="595" type="line"/>
      <point x="152" y="595" type="line"/>
      <point x="177" y="710" type="line"/>
      <point x="267" y="710" type="line"/>
      <point x="242" y="595" type="line"/>
      <point x="607" y="595" type="line"/>
      <point x="632" y="710" type="line"/>
      <point x="722" y="710" type="line"/>
      <point x="697" y="595" type="line"/>
      <point x="745" y="595" type="line"/>
      <point x="735" y="548" type="line"/>
      <point x="687" y="548" type="line"/>
      <point x="571" y="0" type="line"/>
      <point x="481" y="0" type="line"/>
      <point x="550" y="323" type="line"/>
      <point x="185" y="323" type="line"/>
      <point x="116" y="0" type="line"/>
      <point x="26" y="0" type="line"/>
      <point x="142" y="548" type="line"/>
      <point x="95" y="548" type="line"/>
    </contour>
    <contour>
      <point x="567" y="403" type="line"/>
      <point x="597" y="548" type="line"/>
      <point x="232" y="548" type="line"/>
      <point x="202" y="403" type="line"/>
    </contour>
  </outline>
</glyph>
<glyph name="hbar" format="1">
  <advance width="567"/>
  <unicode hex="0127"/>
  <outline>
    <contour>
      <point x="75" y="657" type="line"/>
      <point x="144" y="657" type="line"/>
      <point x="160" y="730" type="line"/>
      <point x="248" y="730" type="line"/>
      <point x="232" y="657" type="line"/>
      <point x="331" y="657" type="line"/>
      <point x="319" y="601" type="line"/>
      <point x="220" y="601" type="line"/>
      <point x="180" y="410" type="line"/>
      <point x="222" y="467"/>
      <point x="335" y="531"/>
      <point x="395" y="531" type="qcurve"/>
      <point x="461" y="531"/>
      <point x="515" y="459"/>
      <point x="515" y="401" type="qcurve"/>
      <point x="515" y="358"/>
      <point x="505" y="312" type="qcurve"/>
      <point x="439" y="0" type="line"/>
      <point x="351" y="0" type="line"/>
      <point x="413" y="292" type="line"/>
      <point x="417" y="312"/>
      <point x="421" y="345"/>
      <point x="421" y="360" type="qcurve"/>
      <point x="421" y="452"/>
      <point x="344" y="452" type="qcurve"/>
      <point x="320" y="452"/>
      <point x="268" y="431"/>
      <point x="218" y="395"/>
      <point x="174" y="345"/>
      <point x="160" y="315" type="qcurve"/>
      <point x="93" y="0" type="line"/>
      <point x="5" y="0" type="line"/>
      <point x="132" y="601" type="line"/>
      <point x="63" y="601" type="line"/>
    </contour>
  </outline>
</glyph>
<glyph name="ibreve" format="1">
  <advance width="226"/>
  <unicode hex="012D"/>
  <outline>
    <contour>
      <point x="116" y="522" type="line"/>
      <point x="204" y="522" type="line"/>
      <point x="93" y="0" type="line"/>
      <point x="5" y="0" type="line"/>
    </contour>
    <contour>
      <point x="179" y="662" type="qcurve"/>
      <point x="199" y="662"/>
      <point x="239" y="701"/>
      <point x="248" y="730" type="qcurve"/>
      <point x="298" y="730" type="line"/>
      <point x="293" y="706"/>
      <point x="268" y="666"/>
      <point x="234" y="636"/>
      <point x="192" y="619"/>
      <point x="170" y="619" type="qcurve"/>
      <point x="131" y="619"/>
      <point x="85" y="666"/>
      <point x="85" y="704" type="qcurve"/>
      <point x="85" y="716"/>
      <point x="88" y="730" type="qcurve"/>
      <point x="139" y="730" type="line"/>
      <point x="138" y="725"/>
      <point x="137" y="718"/>
      <point x="137" y="713" type="qcurve"/>
      <point x="137" y="692"/>
      <point x="160" y="662"/>
    </contour>
  </outline>
</glyph>
<glyph name="iogonek" format="1">
  <advance width="226"/>
  <unicode hex="012F"/>
  <outline>
    <contour>
      <point x="116" y="522" type="line"/>
      <point x="204" y="522" type="line"/>
      <point x="93" y="0" type="line"/>
      <point x="39" y="-31"/>
      <point x="-5" y="-76"/>
      <point x="-5" y="-99" type="qcurve"/>
      <point x="-5" y="-131"/>
      <point x="40" y="-135" type="qcurve"/>
      <point x="9" y="-181" type="line"/>
      <point x="-25" y="-174"/>
      <point x="-59" y="-139"/>
      <point x="-59" y="-116" type="qcurve"/>
      <point x="-59" y="-87"/>
      <point x="-13" y="-30"/>
      <point x="38" y="0" type="qcurve"/>
      <point x="5" y="0" type="line"/>
    </contour>
    <contour>
      <point x="160" y="730" type="line"/>
      <point x="248" y="730" type="line"/>
      <point x="225" y="620" type="line"/>
      <point x="137" y="620" type="line"/>
    </contour>
  </outline>
</glyph>
<glyph name="IJ" format="1">
  <advance width="730"/>
  <unicode hex="0132"/>
  <outline>
    <contour>
      <point x="171" y="709" type="line"/>
      <point x="261" y="709" type="line"/>
      <point x="110" y="0" type="line"/>
      <point x="20" y="0" type="line"/>
    </contour>
    <contour>
      <point x="356" y="-11" type="qcurve"/>
      <point x="271" y="-11"/>
      <point x="219" y="33" type="qcurve"/>
      <point x="257" y="106" type="line"/>
      <point x="272" y="92"/>
      <point x="332" y="70"/>
      <point x="373" y="70" type="qcurve"/>
      <point x="420" y="70"/>
      <point x="484" y="106"/>
      <point x="528" y="177"/>
      <point x="559" y="281"/>
      <point x="574" y="349" type="qcurve"/>
      <point x="651" y="709" type="line"/>
      <point x="741" y="709" type="line"/>
      <point x="664" y="349" type="line"/>
      <point x="647" y="268"/>
      <point x="604" y="135"/>
      <point x="536" y="41"/>
      <point x="433" y="-11"/>
    </contour>
  </outline>
</glyph>
<glyph name="Jcircumflex" format="1">
  <advance width="472"/>
  <unicode hex="0134"/>
  <outline>
    <contour>
      <point x="333" y="826" type="line"/>
      <point x="449" y="916" type="line"/>
      <point x="513" y="916" type="line"/>
      <point x="590" y="826" type="line"/>
      <point x="537" y="802" type="line"/>
      <point x="470" y="865" type="line"/>
      <point x="376" y="802" type="line"/>
    </contour>
    <contour>
      <point x="98" y="-11" type="qcurve"/>
      <point x="13" y="-11"/>
      <point x="-39" y="33" type="qcurve"/>
      <point x="-1" y="106" type="line"/>
      <point x="14" y="92"/>
      <point x="74" y="70"/>
      <point x="115" y="70" type="qcurve"/>
      <point x="162" y="70"/>
      <point x="226" y="106"/>
      <point x="270" y="177"/>
      <point x="301" y="281"/>
      <point x="316" y="349" type="qcurve"/>
      <point x="393" y="709" type="line"/>
      <point x="483" y="709" type="line"/>
      <point x="406" y="349" type="line"/>
      <point x="389" y="268"/>
      <point x="346" y="135"/>
      <point x="278" y="41"/>
      <point x="175" y="-11"/>
    </contour>
  </outline>
</glyph>
<glyph name="jcircumflex" format="1">
  <advance width="226"/>
  <unicode hex="0135"/>
  <outline>
    <contour>
      <point x="-103" y="-186" type="qcurve"/>
      <point x="-136" y="-186"/>
      <point x="-190" y="-166"/>
      <point x="-209" y="-144" type="qcurve"/>
      <point x="-156" y="-85" type="line"/>
      <point x="-145" y="-98"/>
      <point x="-113" y="-108"/>
      <point x="-96" y="-108" type="qcurve"/>
      <point x="-81" y="-108"/>
      <point x="-50" y="-95"/>
      <point x="-23" y="-73"/>
      <point x="-4" y="-41"/>
      <point x="0" y="-23" type="qcurve"/>
      <point x="116" y="522" type="line"/>
      <point x="204" y="522" type="line"/>
      <point x="89" y="-17" type="line"/>
      <point x="81" y="-54"/>
      <point x="42" y="-116"/>
      <point x="-10" y="-161"/>
      <point x="-72" y="-186"/>
    </contour>
    <contour>
      <point x="54" y="640" type="line"/>
      <point x="170" y="730" type="line"/>
      <point x="234" y="730" type="line"/>
      <point x="311" y="640" type="line"/>
      <point x="258" y="616" type="line"/>
      <point x="191" y="679" type="line"/>
      <point x="97" y="616" type="line"/>
    </contour>
  </outline>
</glyph>
<glyph name="lcommaaccent" format="1">
  <advance width="280"/>
  <unicode hex="013C"/>
  <outline>
    <contour>
      <point x="29" y="-213" type="line"/>
      <point x="66" y="-132" type="line"/>
      <point x="41" y="-132" type="line"/>
      <point x="59" y="-48" type="line"/>
      <point x="136" y="-48" type="line"/>
      <point x="118" y="-132" type="line"/>
      <point x="72" y="-213" type="line"/>
    </contour>
    <contour>
      <point x="112" y="-7" type="qcurve"/>
      <point x="70" y="-7"/>
      <point x="25" y="34"/>
      <point x="25" y="71" type="qcurve"/>
      <point x="25" y="79"/>
      <point x="27" y="95"/>
      <point x="29" y="103" type="qcurve"/>
      <point x="162" y="730" type="line"/>
      <point x="249" y="730" type="line"/>
      <point x="123" y="135" type="line"/>
      <point x="122" y="130"/>
      <point x="121" y="121"/>
      <point x="121" y="116" type="qcurve"/>
      <point x="121" y="73"/>
      <point x="166" y="73" type="qcurve"/>
      <point x="177" y="73"/>
      <point x="207" y="80"/>
      <point x="221" y="85" type="qcurve"/>
      <point x="218" y="14" type="line"/>
      <point x="195" y="5"/>
      <point x="135" y="-7"/>
    </contour>
  </outline>
</glyph>
<glyph name="Ldot" format="1">
  <advance width="559"/>
  <unicode hex="013F"/>
  <outline>
    <contour>
      <point x="171" y="710" type="line"/>
      <point x="261" y="710" type="line"/>
      <point x="127" y="80" type="line"/>
      <point x="500" y="80" type="line"/>
      <point x="483" y="0" type="line"/>
      <point x="20" y="0" type="line"/>
    </contour>
    <contour>
      <point x="327" y="343" type="line"/>
      <point x="353" y="467" type="line"/>
      <point x="427" y="467" type="line"/>
      <point x="401" y="343" type="line"/>
    </contour>
  </outline>
</glyph>
<glyph name="lslash" format="1">
  <advance width="301"/>
  <unicode hex="0142"/>
  <outline>
    <contour>
      <point x="15" y="332" type="line"/>
      <point x="109" y="393" type="line"/>
      <point x="181" y="730" type="line"/>
      <point x="269" y="730" type="line"/>
      <point x="211" y="459" type="line"/>
      <point x="308" y="522" type="line"/>
      <point x="324" y="473" type="line"/>
      <point x="197" y="391" type="line"/>
      <point x="147" y="155" type="line"/>
      <point x="141" y="129"/>
      <point x="141" y="116" type="qcurve"/>
      <point x="141" y="73"/>
      <point x="185" y="73" type="qcurve"/>
      <point x="196" y="73"/>
      <point x="227" y="80"/>
      <point x="241" y="85" type="qcurve"/>
      <point x="238" y="14" type="line"/>
      <point x="215" y="5"/>
      <point x="154" y="-7"/>
      <point x="131" y="-7" type="qcurve"/>
      <point x="89" y="-7"/>
      <point x="44" y="34"/>
      <point x="44" y="71" type="qcurve"/>
      <point x="44" y="79"/>
      <point x="46" y="95"/>
      <point x="48" y="103" type="qcurve"/>
      <point x="95" y="325" type="line"/>
      <point x="30" y="283" type="line"/>
    </contour>
  </outline>
</glyph>
<glyph name="Ncommaaccent" format="1">
  <advance width="739"/>
  <unicode hex="0145"/>
  <outline>
    <contour>
      <point x="228" y="-213" type="line"/>
      <point x="265" y="-132" type="line"/>
      <point x="240" y="-132" type="line"/>
      <point x="258" y="-48" type="line"/>
      <point x="335" y="-48" type="line"/>
      <point x="317" y="-132" type="line"/>
      <point x="271" y="-213" type="line"/>
    </contour>
    <contour>
      <point x="171" y="710" type="line"/>
      <point x="241" y="710" type="line"/>
      <point x="535" y="157" type="line"/>
      <point x="652" y="709" type="line"/>
      <point x="742" y="709" type="line"/>
      <point x="591" y="0" type="line"/>
      <point x="516" y="0" type="line"/>
      <point x="225" y="542" type="line"/>
      <point x="110" y="0" type="line"/>
      <point x="20" y="0" type="line"/>
    </contour>
  </outline>
</glyph>
<glyph name="Obreve" format="1">
  <advance width="721"/>
  <unicode hex="014E"/>
  <outline>
    <contour>
      <point x="295" y="-5" type="qcurve"/>
      <point x="235" y="-5"/>
      <point x="141" y="44"/>
      <point x="77" y="125"/>
      <point x="44" y="231"/>
      <point x="44" y="288" type="qcurve"/>
      <point x="44" y="369"/>
      <point x="112" y="523"/>
      <point x="225" y="643"/>
      <point x="372" y="715"/>
      <point x="450" y="715" type="qcurve"/>
      <point x="510" y="715"/>
      <point x="603" y="665"/>
      <point x="666" y="583"/>
      <point x="699" y="477"/>
      <point x="699" y="420" type="qcurve"/>
      <point x="699" y="339"/>
      <point x="632" y="186"/>
      <point x="519" y="67"/>
      <point x="373" y="-5"/>
    </contour>
    <contour>
      <point x="313" y="76" type="qcurve"/>
      <point x="374" y="76"/>
      <point x="482" y="137"/>
      <point x="561" y="234"/>
      <point x="607" y="354"/>
      <point x="607" y="413" type="qcurve"/>
      <point x="607" y="457"/>
      <point x="584" y="537"/>
      <point x="539" y="597"/>
      <point x="473" y="633"/>
      <point x="431" y="633" type="qcurve"/>
      <point x="369" y="633"/>
      <point x="262" y="573"/>
      <point x="182" y="476"/>
      <point x="136" y="356"/>
      <point x="136" y="296" type="qcurve"/>
      <point x="136" y="252"/>
      <point x="159" y="172"/>
      <point x="204" y="112"/>
      <point x="270" y="76"/>
    </contour>
    <contour>
      <point x="472" y="848" type="qcurve"/>
      <point x="492" y="848"/>
      <point x="532" y="887"/>
      <point x="541" y="916" type="qcurve"/>
      <point x="591" y="916" type="line"/>
      <point x="586" y="892"/>
      <point x="561" y="852"/>
      <point x="527" y="822"/>
      <point x="485" y="805"/>
      <point x="463" y="805" type="qcurve"/>
      <point x="424" y="805"/>
      <point x="378" y="852"/>
      <point x="378" y="890" type="qcurve"/>
      <point x="378" y="902"/>
      <point x="381" y="916" type="qcurve"/>
      <point x="432" y="916" type="line"/>
      <point x="431" y="911"/>
      <point x="430" y="904"/>
      <point x="430" y="899" type="qcurve"/>
      <point x="430" y="878"/>
      <point x="453" y="848"/>
    </contour>
  </outline>
</glyph>
<glyph name="oe" format="1">
  <advance width="979"/>
  <unicode hex="0153"/>
  <outline>
    <contour>
      <point x="222" y="-10" type="qcurve"/>
      <point x="176" y="-10"/>
      <point x="102" y="23"/>
      <point x="50" y="81"/>
      <point x="22" y="160"/>
      <point x="22" y="207" type="qcurve"/>
      <point x="22" y="273"/>
      <point x="75" y="391"/>
      <point x="162" y="480"/>
      <point x="276" y="531"/>
      <point x="338" y="531" type="qcurve"/>
      <point x="407" y="531"/>
      <point x="498" y="450"/>
      <point x="511" y="379" type="qcurve"/>
      <point x="557" y="452"/>
      <point x="680" y="531"/>
      <point x="752" y="531" type="qcurve"/>
      <point x="798" y="531"/>
      <point x="872" y="499"/>
      <point x="923" y="442"/>
      <point x="950" y="360"/>
      <point x="950" y="311" type="qcurve"/>
      <point x="950" y="275"/>
      <point x="940" y="237"/>
      <point x="937" y="231" type="qcurve"/>
      <point x="529" y="231" type="line"/>
      <point x="527" y="223"/>
      <point x="527" y="209"/>
      <point x="527" y="201" type="qcurve"/>
      <point x="527" y="169"/>
      <point x="546" y="116"/>
      <point x="582" y="77"/>
      <point x="631" y="55"/>
      <point x="661" y="55" type="qcurve"/>
      <point x="685" y="55"/>
      <point x="732" y="68"/>
      <point x="774" y="91"/>
      <point x="809" y="123"/>
      <point x="820" y="143" type="qcurve"/>
      <point x="890" y="122" type="line"/>
      <point x="870" y="92"/>
      <point x="815" y="44"/>
      <point x="751" y="9"/>
      <point x="680" y="-10"/>
      <point x="644" y="-10" type="qcurve"/>
      <point x="577" y="-10"/>
      <point x="482" y="70"/>
      <point x="461" y="139" type="qcurve"/>
      <point x="410" y="68"/>
      <point x="288" y="-10"/>
    </contour>
    <contour>
      <point x="239" y="66" type="qcurve"/>
      <point x="279" y="66"/>
      <point x="354" y="104"/>
      <point x="412" y="168"/>
      <point x="447" y="253"/>
      <point x="447" y="301" type="qcurve"/>
      <point x="447" y="334"/>
      <point x="429" y="390"/>
      <point x="397" y="431"/>
      <point x="350" y="455"/>
      <point x="322" y="455" type="qcurve"/>
      <point x="283" y="455"/>
      <point x="207" y="417"/>
      <point x="149" y="351"/>
      <point x="113" y="265"/>
      <point x="113" y="217" type="qcurve"/>
      <point x="113" y="185"/>
      <point x="131" y="129"/>
      <point x="164" y="89"/>
      <point x="210" y="66"/>
    </contour>
    <contour>
      <point x="865" y="288" type="line"/>
      <point x="866" y="296"/>
      <point x="867" y="312"/>
      <point x="867" y="320" type="qcurve"/>
      <point x="867" y="386"/>
      <point x="795" y="465"/>
      <point x="736" y="465" type="qcurve"/>
      <point x="703" y="465"/>
      <point x="641" y="439"/>
      <point x="589" y="392"/>
      <point x="549" y="327"/>
      <point x="539" y="288" type="qcurve"/>
    </contour>
  </outline>
</glyph>
<glyph name="scircumflex" format="1">
  <advance width="475"/>
  <unicode hex="015D"/>
  <outline>
    <contour>
      <point x="190" y="640" type="line"/>
      <point x="306" y="730" type="line"/>
      <point x="370" y="730" type="line"/>
      <point x="447" y="640" type="line"/>
      <point x="394" y="616" type="line"/>
      <point x="327" y="679" type="line"/>
      <point x="233" y="616" type="line"/>
    </contour>
    <contour>
      <point x="178" y="-10" type="qcurve"/>
      <point x="118" y="-10"/>
      <point x="10" y="29"/>
      <point x="-24" y="66" type="qcurve"/>
      <point x="26" y="125" type="line"/>
      <point x="62" y="90"/>
      <point x="142" y="55"/>
      <point x="190" y="55" type="qcurve"/>
      <point x="250" y="55"/>
      <point x="324" y="109"/>
      <point x="324" y="154" type="qcurve"/>
      <point x="324" y="186"/>
      <point x="265" y="216"/>
      <point x="205" y="232" type="qcurve"/>
      <point x="168" y="242"/>
      <point x="114" y="262"/>
      <point x="78" y="288"/>
      <point x="60" y="321"/>
      <point x="60" y="344" type="qcurve"/>
      <point x="60" y="388"/>
      <point x="98" y="457"/>
      <point x="161" y="505"/>
      <point x="244" y="531"/>
      <point x="289" y="531" type="qcurve"/>
      <point x="345" y="531"/>
      <point x="433" y="493"/>
      <point x="461" y="462" type="qcurve"/>
      <point x="410" y="409" type="line"/>
      <point x="384" y="438"/>
      <point x="313" y="467"/>
      <point x="273" y="467" type="qcurve"/>
      <point x="247" y="467"/>
      <point x="202" y="455"/>
      <point x="167" y="430"/>
      <point x="147" y="392"/>
      <point x="147" y="367" type="qcurve"/>
      <point x="147" y="339"/>
      <point x="194" y="313"/>
      <point x="246" y="299" type="qcurve"/>
      <point x="287" y="288"/>
      <point x="350" y="266"/>
      <point x="392" y="237"/>
      <point x="413" y="200"/>
      <point x="413" y="174" type="qcurve"/>
      <point x="413" y="133"/>
      <point x="378" y="66"/>
      <point x="316" y="17"/>
      <point x="229" y="-10"/>
    </contour>
  </outline>
</glyph>
<glyph name="uni0163" format="1">
  <advance width="338"/>
  <unicode hex="0163"/>
  <outline>
    <contour>
      <point x="42" y="-126" type="line"/>
      <point x="53" y="-133"/>
      <point x="96" y="-145"/>
      <point x="121" y="-145" type="qcurve"/>
      <point x="150" y="-145"/>
      <point x="184" y="-125"/>
      <point x="184" y="-103" type="qcurve"/>
      <point x="184" y="-87"/>
      <point x="161" y="-75"/>
      <point x="142" y="-75" type="qcurve"/>
      <point x="122" y="-75"/>
      <point x="76" y="-84"/>
      <point x="63" y="-88" type="qcurve"/>
      <point x="121" y="-6" type="line"/>
      <point x="89" y="-1"/>
      <point x="48" y="37"/>
      <point x="48" y="73" type="qcurve"/>
      <point x="48" y="87"/>
      <point x="51" y="102" type="qcurve"/>
      <point x="126" y="453" type="line"/>
      <point x="58" y="453" type="line"/>
      <point x="73" y="522" type="line"/>
      <point x="140" y="522" type="line"/>
      <point x="177" y="696" type="line"/>
      <point x="265" y="696" type="line"/>
      <point x="228" y="522" type="line"/>
      <point x="339" y="522" type="line"/>
      <point x="324" y="453" type="line"/>
      <point x="214" y="453" type="line"/>
      <point x="145" y="129" type="line"/>
      <point x="143" y="119"/>
      <point x="143" y="114" type="qcurve"/>
      <point x="143" y="93"/>
      <point x="169" y="74"/>
      <point x="188" y="74" type="qcurve"/>
      <point x="213" y="74"/>
      <point x="257" y="91"/>
      <point x="266" y="96" type="qcurve"/>
      <point x="271" y="26" type="line"/>
      <point x="255" y="15"/>
      <point x="199" y="-3"/>
      <point x="166" y="-6" type="qcurve"/>
      <point x="132" y="-48" type="line"/>
      <point x="140" y="-45"/>
      <point x="159" y="-43"/>
      <point x="167" y="-43" type="qcurve"/>
      <point x="196" y="-43"/>
      <point x="230" y="-68"/>
      <point x="230" y="-94" type="qcurve"/>
      <point x="230" y="-133"/>
      <point x="167" y="-182"/>
      <point x="106" y="-182" type="qcurve"/>
      <point x="77" y="-182"/>
      <point x="31" y="-171"/>
      <point x="14" y="-163" type="qcurve"/>
    </contour>
  </outline>
</glyph>
<glyph name="tbar" format="1">
  <advance width="338"/>
  <unicode hex="0167"/>
  <outline>
    <contour>
      <point x="37" y="350" type="line"/>
      <point x="104" y="350" type="line"/>
      <point x="126" y="453" type="line"/>
      <point x="59" y="453" type="line"/>
      <point x="73" y="522" type="line"/>
      <point x="141" y="522" type="line"/>
      <point x="178" y="696" type="line"/>
      <point x="266" y="696" type="line"/>
      <point x="229" y="522" type="line"/>
      <point x="339" y="522" type="line"/>
      <point x="325" y="453" type="line"/>
      <point x="214" y="453" type="line"/>
      <point x="192" y="350" type="line"/>
      <point x="303" y="350" type="line"/>
      <point x="291" y="294" type="line"/>
      <point x="180" y="294" type="line"/>
      <point x="148" y="145" type="line"/>
      <point x="144" y="126"/>
      <point x="144" y="117" type="qcurve"/>
      <point x="144" y="94"/>
      <point x="169" y="74"/>
      <point x="189" y="74" type="qcurve"/>
      <point x="213" y="74"/>
      <point x="258" y="91"/>
      <point x="266" y="96" type="qcurve"/>
      <point x="272" y="26" type="line"/>
      <point x="253" y="13"/>
      <point x="182" y="-7"/>
      <point x="142" y="-7" type="qcurve"/>
      <point x="101" y="-7"/>
      <point x="48" y="31"/>
      <point x="48" y="73" type="qcurve"/>
      <point x="48" y="87"/>
      <point x="51" y="102" type="qcurve"/>
      <point x="92" y="294" type="line"/>
      <point x="25" y="294" type="line"/>
    </contour>
  </outline>
</glyph>
<glyph name="Utilde" format="1">
  <advance width="724"/>
  <unicode hex="0168"/>
  <outline>
    <contour>
      <point x="298" y="-5" type="qcurve"/>
      <point x="235" y="-5"/>
      <point x="149" y="32"/>
      <point x="95" y="96"/>
      <point x="71" y="182"/>
      <point x="71" y="232" type="qcurve"/>
      <point x="71" y="287"/>
      <point x="85" y="351" type="qcurve"/>
      <point x="161" y="710" type="line"/>
      <point x="251" y="710" type="line"/>
      <point x="175" y="351" type="line"/>
      <point x="163" y="297"/>
      <point x="163" y="247" type="qcurve"/>
      <point x="163" y="211"/>
      <point x="178" y="149"/>
      <point x="214" y="102"/>
      <point x="272" y="76"/>
      <point x="314" y="76" type="qcurve"/>
      <point x="372" y="76"/>
      <point x="458" y="124"/>
      <point x="520" y="201"/>
      <point x="560" y="300"/>
      <point x="571" y="351" type="qcurve"/>
      <point x="647" y="710" type="line"/>
      <point x="737" y="710" type="line"/>
      <point x="661" y="351" type="line"/>
      <point x="646" y="279"/>
      <point x="587" y="150"/>
      <point x="497" y="52"/>
      <point x="376" y="-5"/>
    </contour>
    <contour>
      <point x="522" y="813" type="qcurve"/>
      <point x="501" y="813"/>
      <point x="471" y="826"/>
      <point x="447" y="842"/>
      <point x="423" y="855"/>
      <point x="408" y="855" type="qcurve"/>
      <point x="392" y="855"/>
      <point x="371" y="841"/>
      <point x="358" y="824"/>
      <point x="352" y="808"/>
      <point x="352" y="807" type="qcurve"/>
      <point x="300" y="807" type="line"/>
      <point x="301" y="813"/>
      <point x="317" y="847"/>
      <point x="347" y="883"/>
      <point x="389" y="910"/>
      <point x="418" y="910" type="qcurve"/>
      <point x="438" y="910"/>
      <point x="466" y="897"/>
      <point x="489" y="880"/>
      <point x="514" y="867"/>
      <point x="531" y="867" type="qcurve"/>
      <point x="549" y="867"/>
      <point x="573" y="881"/>
      <point x="588" y="899"/>
      <point x="595" y="914"/>
      <point x="595" y="916" type="qcurve"/>
      <point x="646" y="916" type="line"/>
      <point x="645" y="910"/>
      <point x="629" y="877"/>
      <point x="598" y="841"/>
      <point x="553" y="813"/>
    </contour>
  </outline>
</glyph>
<glyph name="utilde" format="1">
  <advance width="577"/>
  <unicode hex="0169"/>
  <outline>
    <contour>
      <point x="155" y="-10" type="qcurve"/>
      <point x="33" y="-10"/>
      <point x="33" y="122" type="qcurve"/>
      <point x="33" y="157"/>
      <point x="44" y="209" type="qcurve"/>
      <point x="111" y="522" type="line"/>
      <point x="198" y="522" type="line"/>
      <point x="135" y="226" type="line"/>
      <point x="126" y="185"/>
      <point x="126" y="157" type="qcurve"/>
      <point x="126" y="66"/>
      <point x="204" y="66" type="qcurve"/>
      <point x="254" y="66"/>
      <point x="357" y="135"/>
      <point x="392" y="195" type="qcurve"/>
      <point x="461" y="522" type="line"/>
      <point x="549" y="522" type="line"/>
      <point x="461" y="108" type="line"/>
      <point x="460" y="104"/>
      <point x="459" y="98"/>
      <point x="459" y="95" type="qcurve"/>
      <point x="459" y="77"/>
      <point x="481" y="76" type="qcurve"/>
      <point x="465" y="0" type="line"/>
      <point x="454" y="-2"/>
      <point x="437" y="-4"/>
      <point x="430" y="-4" type="qcurve"/>
      <point x="403" y="-4"/>
      <point x="375" y="20"/>
      <point x="375" y="40" type="qcurve"/>
      <point x="375" y="49"/>
      <point x="379" y="80"/>
      <point x="386" y="112" type="qcurve"/>
      <point x="341" y="53"/>
      <point x="219" y="-10"/>
    </contour>
    <contour>
      <point x="400" y="627" type="qcurve"/>
      <point x="379" y="627"/>
      <point x="349" y="640"/>
      <point x="325" y="656"/>
      <point x="301" y="669"/>
      <point x="286" y="669" type="qcurve"/>
      <point x="270" y="669"/>
      <point x="249" y="655"/>
      <point x="236" y="638"/>
      <point x="230" y="622"/>
      <point x="230" y="621" type="qcurve"/>
      <point x="178" y="621" type="line"/>
      <point x="179" y="627"/>
      <point x="195" y="661"/>
      <point x="225" y="697"/>
      <point x="267" y="724"/>
      <point x="296" y="724" type="qcurve"/>
      <point x="316" y="724"/>
      <point x="344" y="711"/>
      <point x="367" y="694"/>
      <point x="392" y="681"/>
      <point x="409" y="681" type="qcurve"/>
      <point x="427" y="681"/>
      <point x="451" y="695"/>
      <point x="466" y="713"/>
      <point x="473" y="728"/>
      <point x="473" y="730" type="qcurve"/>
      <point x="524" y="730" type="line"/>
      <point x="523" y="724"/>
      <point x="507" y="691"/>
      <point x="476" y="655"/>
      <point x="431" y="627"/>
    </contour>
  </outline>
</glyph>
<glyph name="Ubreve" format="1">
  <advance width="724"/>
  <unicode hex="016C"/>
  <outline>
    <contour>
      <point x="298" y="-5" type="qcurve"/>
      <point x="235" y="-5"/>
      <point x="149" y="32"/>
      <point x="95" y="96"/>
      <point x="71" y="182"/>
      <point x="71" y="232" type="qcurve"/>
      <point x="71" y="287"/>
      <point x="85" y="351" type="qcurve"/>
      <point x="161" y="710" type="line"/>
      <point x="251" y="710" type="line"/>
      <point x="175" y="351" type="line"/>
      <point x="163" y="297"/>
      <point x="163" y="247" type="qcurve"/>
      <point x="163" y="211"/>
      <point x="178" y="149"/>
      <point x="214" y="102"/>
      <point x="272" y="76"/>
      <point x="314" y="76" type="qcurve"/>
      <point x="372" y="76"/>
      <point x="458" y="124"/>
      <point x="520" y="201"/>
      <point x="560" y="300"/>
      <point x="571" y="351" type="qcurve"/>
      <point x="647" y="710" type="line"/>
      <point x="737" y="710" type="line"/>
      <point x="661" y="351" type="line"/>
      <point x="646" y="279"/>
      <point x="587" y="150"/>
      <point x="497" y="52"/>
      <point x="376" y="-5"/>
    </contour>
    <contour>
      <point x="465" y="848" type="qcurve"/>
      <point x="485" y="848"/>
      <point x="525" y="887"/>
      <point x="534" y="916" type="qcurve"/>
      <point x="584" y="916" type="line"/>
      <point x="579" y="892"/>
      <point x="554" y="852"/>
      <point x="520" y="822"/>
      <point x="478" y="805"/>
      <point x="456" y="805" type="qcurve"/>
      <point x="417" y="805"/>
      <point x="371" y="852"/>
      <point x="371" y="890" type="qcurve"/>
      <point x="371" y="902"/>
      <point x="374" y="916" type="qcurve"/>
      <point x="425" y="916" type="line"/>
      <point x="424" y="911"/>
      <point x="423" y="904"/>
      <point x="423" y="899" type="qcurve"/>
      <point x="423" y="878"/>
      <point x="446" y="848"/>
    </contour>
  </outline>
</glyph>
<glyph name="Uring" format="1">
  <advance width="724"/>
  <unicode hex="016E"/>
  <outline>
    <contour>
      <point x="394" y="834" type="qcurve"/>
      <point x="394" y="871"/>
      <point x="450" y="916"/>
      <point x="489" y="916" type="qcurve"/>
      <point x="520" y="916"/>
      <point x="554" y="886"/>
      <point x="554" y="860" type="qcurve"/>
      <point x="554" y="824"/>
      <point x="500" y="778"/>
      <point x="459" y="778" type="qcurve"/>
      <point x="429" y="778"/>
      <point x="394" y="808"/>
    </contour>
    <contour>
      <point x="482" y="885" type="qcurve"/>
      <point x="464" y="885"/>
      <point x="435" y="860"/>
      <point x="435" y="840" type="qcurve"/>
      <point x="435" y="827"/>
      <point x="452" y="809"/>
      <point x="466" y="809" type="qcurve"/>
      <point x="483" y="809"/>
      <point x="514" y="834"/>
      <point x="514" y="854" type="qcurve"/>
      <point x="514" y="868"/>
      <point x="496" y="885"/>
    </contour>
    <contour>
      <point x="298" y="-5" type="qcurve"/>
      <point x="235" y="-5"/>
      <point x="149" y="32"/>
      <point x="95" y="96"/>
      <point x="71" y="182"/>
      <point x="71" y="232" type="qcurve"/>
      <point x="71" y="287"/>
      <point x="85" y="351" type="qcurve"/>
      <point x="161" y="710" type="line"/>
      <point x="251" y="710" type="line"/>
      <point x="175" y="351" type="line"/>
      <point x="163" y="297"/>
      <point x="163" y="247" type="qcurve"/>
      <point x="163" y="211"/>
      <point x="178" y="149"/>
      <point x="214" y="102"/>
      <point x="272" y="76"/>
      <point x="314" y="76" type="qcurve"/>
      <point x="372" y="76"/>
      <point x="458" y="124"/>
      <point x="520" y="201"/>
      <point x="560" y="300"/>
      <point x="571" y="351" type="qcurve"/>
      <point x="647" y="710" type="line"/>
      <point x="737" y="710" type="line"/>
      <point x="661" y="351" type="line"/>
      <point x="646" y="279"/>
      <point x="587" y="150"/>
      <point x="497" y="52"/>
      <point x="376" y="-5"/>
    </contour>
  </outline>
</glyph>
<glyph name="uogonek" format="1">
  <advance width="577"/>
  <unicode hex="0173"/>
  <outline>
    <contour>
      <point x="155" y="-10" type="qcurve"/>
      <point x="33" y="-10"/>
      <point x="33" y="122" type="qcurve"/>
      <point x="33" y="157"/>
      <point x="44" y="209" type="qcurve"/>
      <point x="111" y="522" type="line"/>
      <point x="198" y="522" type="line"/>
      <point x="135" y="226" type="line"/>
      <point x="126" y="185"/>
      <point x="126" y="157" type="qcurve"/>
      <point x="126" y="66"/>
      <point x="204" y="66" type="qcurve"/>
      <point x="254" y="66"/>
      <point x="357" y="135"/>
      <point x="392" y="195" type="qcurve"/>
      <point x="461" y="522" type="line"/>
      <point x="549" y="522" type="line"/>
      <point x="461" y="108" type="line"/>
      <point x="460" y="104"/>
      <point x="459" y="98"/>
      <point x="459" y="95" type="qcurve"/>
      <point x="459" y="77"/>
      <point x="481" y="76" type="qcurve"/>
      <point x="465" y="0" type="line"/>
      <point x="411" y="-31"/>
      <point x="367" y="-76"/>
      <point x="367" y="-99" type="qcurve"/>
      <point x="367" y="-131"/>
      <point x="412" y="-135" type="qcurve"/>
      <point x="381" y="-181" type="line"/>
      <point x="347" y="-174"/>
      <point x="313" y="-139"/>
      <point x="313" y="-116" type="qcurve"/>
      <point x="313" y="-87"/>
      <point x="359" y="-31"/>
      <point x="408" y="-1" type="qcurve"/>
      <point x="375" y="6"/>
      <point x="375" y="40" type="qcurve"/>
      <point x="375" y="49"/>
      <point x="379" y="80"/>
      <point x="386" y="112" type="qcurve"/>
      <point x="341" y="53"/>
      <point x="219" y="-10"/>
    </contour>
  </outline>
</glyph>
<glyph name="Wcircumflex" format="1">
  <advance width="1002"/>
  <unicode hex="0174"/>
  <outline>
    <contour>
      <point x="477" y="826" type="line"/>
      <point x="593" y="916" type="line"/>
      <point x="657" y="916" type="line"/>
      <point x="734" y="826" type="line"/>
      <point x="681" y="802" type="line"/>
      <point x="614" y="865" type="line"/>
      <point x="520" y="802" type="line"/>
    </contour>
    <contour>
      <point x="93" y="710" type="line"/>
      <point x="190" y="710" type="line"/>
      <point x="286" y="104" type="line"/>
      <point x="461" y="397" type="line"/>
      <point x="410" y="706" type="line"/>
      <point x="495" y="706" type="line"/>
      <point x="530" y="459" type="line"/>
      <point x="671" y="706" type="line"/>
      <point x="756" y="706" type="line"/>
      <point x="574" y="397" type="line"/>
      <point x="624" y="104" type="line"/>
      <point x="977" y="710" type="line"/>
      <point x="1076" y="710" type="line"/>
      <point x="643" y="0" type="line"/>
      <point x="566" y="0" type="line"/>
      <point x="505" y="335" type="line"/>
      <point x="300" y="0" type="line"/>
      <point x="223" y="0" type="line"/>
    </contour>
  </outline>
</glyph>
<glyph name="Ycircumflex" format="1">
  <advance width="612"/>
  <unicode hex="0176"/>
  <outline>
    <contour>
      <point x="248" y="261" type="line"/>
      <point x="89" y="710" type="line"/>
      <point x="188" y="710" type="line"/>
      <point x="310" y="340" type="line"/>
      <point x="591" y="710" type="line"/>
      <point x="689" y="710" type="line"/>
      <point x="337" y="259" type="line"/>
      <point x="282" y="0" type="line"/>
      <point x="192" y="0" type="line"/>
    </contour>
    <contour>
      <point x="273" y="826" type="line"/>
      <point x="389" y="916" type="line"/>
      <point x="453" y="916" type="line"/>
      <point x="530" y="826" type="line"/>
      <point x="477" y="802" type="line"/>
      <point x="410" y="865" type="line"/>
      <point x="316" y="802" type="line"/>
    </contour>
  </outline>
</glyph>
<glyph name="zcaron" format="1">
  <advance width="470"/>
  <unicode hex="017E"/>
  <outline>
    <contour>
      <point x="171" y="706" type="line"/>
      <point x="224" y="730" type="line"/>
      <point x="291" y="667" type="line"/>
      <point x="385" y="730" type="line"/>
      <point x="428" y="706" type="line"/>
      <point x="312" y="616" type="line"/>
      <point x="248" y="616" type="line"/>
    </contour>
    <contour>
      <point x="-23" y="57" type="line"/>
      <point x="371" y="458" type="line"/>
      <point x="71" y="458" type="line"/>
      <point x="85" y="522" type="line"/>
      <point x="483" y="522" type="line"/>
      <point x="471" y="465" type="line"/>
      <point x="79" y="64" type="line"/>
      <point x="387" y="64" type="line"/>
      <point x="373" y="0" type="line"/>
      <point x="-35" y="0" type="line"/>
    </contour>
  </outline>
</glyph>
<glyph name="florin" format="1">
  <advance width="512"/>
  <unicode hex="0192"/>
  <outline>
    <contour>
      <point x="42" y="-186" type="qcurve"/>
      <point x="10" y="-186"/>
      <point x="-45" y="-166"/>
      <point x="-64" y="-144" type="qcurve"/>
      <point x="-11" y="-85" type="line"/>
      <point x="0" y="-98"/>
      <point x="32" y="-108"/>
      <point x="49" y="-108" type="qcurve"/>
      <point x="64" y="-108"/>
      <point x="95" y="-95"/>
      <point x="122" y="-73"/>
      <point x="141" y="-41"/>
      <point x="145" y="-23" type="qcurve"/>
      <point x="233" y="392" type="line"/>
      <point x="166" y="392" type="line"/>
      <point x="180" y="461" type="line"/>
      <point x="248" y="461" type="line"/>
      <point x="263" y="533" type="line"/>
      <point x="283" y="630"/>
      <point x="389" y="740"/>
      <point x="460" y="740" type="qcurve"/>
      <point x="489" y="740"/>
      <point x="544" y="723"/>
      <point x="564" y="708" type="qcurve"/>
      <point x="529" y="643" type="line"/>
      <point x="518" y="653"/>
      <point x="481" y="665"/>
      <point x="462" y="665" type="qcurve"/>
      <point x="421" y="665"/>
      <point x="366" y="599"/>
      <point x="352" y="536" type="qcurve"/>
      <point x="336" y="461" type="line"/>
      <point x="467" y="461" type="line"/>
      <point x="452" y="392" type="line"/>
      <point x="321" y="392" type="line"/>
      <point x="233" y="-21" type="line"/>
      <point x="225" y="-57"/>
      <point x="187" y="-118"/>
      <point x="134" y="-162"/>
      <point x="73" y="-186"/>
    </contour>
  </outline>
</glyph>
<glyph name="uni01C4" format="1">
  <advance width="1292"/>
  <unicode hex="01C4"/>
  <outline>
    <contour>
      <point x="171" y="710" type="line"/>
      <point x="406" y="710" type="line"/>
      <point x="473" y="710"/>
      <point x="572" y="668"/>
      <point x="636" y="594"/>
      <point x="668" y="494"/>
      <point x="668" y="437" type="qcurve"/>
      <point x="668" y="343"/>
      <point x="606" y="183"/>
      <point x="495" y="66"/>
      <point x="344" y="0"/>
      <point x="255" y="0" type="qcurve"/>
      <point x="20" y="0" type="line"/>
    </contour>
    <contour>
      <point x="272" y="80" type="line"/>
      <point x="342" y="80"/>
      <point x="454" y="136"/>
      <point x="533" y="231"/>
      <point x="575" y="355"/>
      <point x="575" y="423" type="qcurve"/>
      <point x="575" y="468"/>
      <point x="551" y="544"/>
      <point x="505" y="599"/>
      <point x="435" y="630"/>
      <point x="389" y="630" type="qcurve"/>
      <point x="244" y="630" type="line"/>
      <point x="127" y="80" type="line"/>
    </contour>
    <contour>
      <point x="977" y="892" type="line"/>
      <point x="1030" y="916" type="line"/>
      <point x="1097" y="853" type="line"/>
      <point x="1191" y="916" type="line"/>
      <point x="1234" y="892" type="line"/>
      <point x="1118" y="802" type="line"/>
      <point x="1054" y="802" type="line"/>
    </contour>
    <contour>
      <point x="673" y="70" type="line"/>
      <point x="1222" y="630" type="line"/>
      <point x="801" y="630" type="line"/>
      <point x="818" y="710" type="line"/>
      <point x="1344" y="710" type="line"/>
      <point x="1329" y="640" type="line"/>
      <point x="788" y="80" type="line"/>
      <point x="1210" y="80" type="line"/>
      <point x="1193" y="0" type="line"/>
      <point x="658" y="0" type="line"/>
    </contour>
  </outline>
</glyph>
<glyph name="uni01CB" format="1">
  <advance width="971"/>
  <unicode hex="01CB"/>
  <outline>
    <contour>
      <point x="171" y="710" type="line"/>
      <point x="241" y="710" type="line"/>
      <point x="535" y="157" type="line"/>
      <point x="652" y="709" type="line"/>
      <point x="742" y="709" type="line"/>
      <point x="591" y="0" type="line"/>
      <point x="516" y="0" type="line"/>
      <point x="225" y="542" type="line"/>
      <point x="110" y="0" type="line"/>
      <point x="20" y="0" type="line"/>
    </contour>
    <contour>
      <point x="642" y="-186" type="qcurve"/>
      <point x="609" y="-186"/>
      <point x="555" y="-166"/>
      <point x="536" y="-144" type="qcurve"/>
      <point x="589" y="-85" type="line"/>
      <point x="600" y="-98"/>
      <point x="632" y="-108"/>
      <point x="649" y="-108" type="qcurve"/>
      <point x="664" y="-108"/>
      <point x="695" y="-95"/>
      <point x="722" y="-73"/>
      <point x="741" y="-41"/>
      <point x="745" y="-23" type="qcurve"/>
      <point x="861" y="522" type="line"/>
      <point x="949" y="522" type="line"/>
      <point x="834" y="-17" type="line"/>
      <point x="826" y="-54"/>
      <point x="787" y="-116"/>
      <point x="735" y="-161"/>
      <point x="673" y="-186"/>
    </contour>
    <contour>
      <point x="905" y="730" type="line"/>
      <point x="993" y="730" type="line"/>
      <point x="969" y="620" type="line"/>
      <point x="881" y="620" type="line"/>
    </contour>
  </outline>
</glyph>
<glyph name="uni01F1" format="1">
  <advance width="1281"/>
  <unicode hex="01F1"/>
  <outline>
    <contour>
      <point x="171" y="710" type="line"/>
      <point x="406" y="710" type="line"/>
      <point x="473" y="710"/>
      <point x="572" y="668"/>
      <point x="636" y="594"/>
      <point x="668" y="494"/>
      <point x="668" y="437" type="qcurve"/>
      <point x="668" y="343"/>
      <point x="606" y="183"/>
      <point x="495" y="66"/>
      <point x="344" y="0"/>
      <point x="255" y="0" type="qcurve"/>
      <point x="20" y="0" type="line"/>
    </contour>
    <contour>
      <point x="272" y="80" type="line"/>
      <point x="342" y="80"/>
      <point x="454" y="136"/>
      <point x="533" y="231"/>
      <point x="575" y="355"/>
      <point x="575" y="423" type="qcurve"/>
      <point x="575" y="468"/>
      <point x="551" y="544"/>
      <point x="505" y="599"/>
      <point x="435" y="630"/>
      <point x="389" y="630" type="qcurve"/>
      <point x="244" y="630" type="line"/>
      <point x="127" y="80" type="line"/>
    </contour>
    <contour>
      <point x="662" y="70" type="line"/>
      <point x="1211" y="630" type="line"/>
      <point x="790" y="630" type="line"/>
      <point x="807" y="710" type="line"/>
      <point x="1333" y="710" type="line"/>
      <point x="1318" y="640" type="line"/>
      <point x="777" y="80" type="line"/>
      <point x="1199" y="80" type="line"/>
      <point x="1182" y="0" type="line"/>
      <point x="647" y="0" type="line"/>
    </contour>
  </outline>
</glyph>
<glyph name="aeacute" format="1">
  <advance width="886"/>
  <unicode hex="01FD"/>
  <outline>
    <contour>
      <point x="514" y="609" type="line"/>
      <point x="460" y="629" type="line"/>
      <point x="536" y="730" type="line"/>
      <point x="623" y="730" type="line"/>
    </contour>
    <contour>
      <point x="131" y="-10" type="qcurve"/>
      <point x="98" y="-10"/>
      <point x="47" y="10"/>
      <point x="11" y="46"/>
      <point x="-8" y="95"/>
      <point x="-8" y="124" type="qcurve"/>
      <point x="-8" y="166"/>
      <point x="30" y="235"/>
      <point x="97" y="286"/>
      <point x="187" y="314"/>
      <point x="238" y="314" type="qcurve"/>
      <point x="270" y="314"/>
      <point x="332" y="303"/>
      <point x="356" y="294" type="qcurve"/>
      <point x="364" y="320"/>
      <point x="383" y="357"/>
      <point x="383" y="381" type="qcurve"/>
      <point x="383" y="417"/>
      <point x="329" y="467"/>
      <point x="278" y="467" type="qcurve"/>
      <point x="240" y="467"/>
      <point x="156" y="436"/>
      <point x="108" y="406" type="qcurve"/>
      <point x="92" y="463" type="line"/>
      <point x="204" y="531"/>
      <point x="301" y="531" type="qcurve"/>
      <point x="361" y="531"/>
      <point x="438" y="481"/>
      <point x="452" y="436" type="qcurve"/>
      <point x="493" y="479"/>
      <point x="599" y="531"/>
      <point x="659" y="531" type="qcurve"/>
      <point x="707" y="531"/>
      <point x="781" y="497"/>
      <point x="832" y="437"/>
      <point x="859" y="357"/>
      <point x="859" y="311" type="qcurve"/>
      <point x="859" y="273"/>
      <point x="846" y="237"/>
      <point x="844" y="231" type="qcurve"/>
      <point x="427" y="231" type="line"/>
      <point x="424" y="216"/>
      <point x="424" y="201" type="qcurve"/>
      <point x="424" y="169"/>
      <point x="444" y="115"/>
      <point x="481" y="77"/>
      <point x="531" y="56"/>
      <point x="561" y="56" type="qcurve"/>
      <point x="584" y="56"/>
      <point x="630" y="69"/>
      <point x="672" y="91"/>
      <point x="707" y="123"/>
      <point x="719" y="143" type="qcurve"/>
      <point x="791" y="122" type="line"/>
      <point x="773" y="93"/>
      <point x="720" y="45"/>
      <point x="655" y="10"/>
      <point x="583" y="-10"/>
      <point x="545" y="-10" type="qcurve"/>
      <point x="477" y="-10"/>
      <point x="383" y="52"/>
      <point x="361" y="103" type="qcurve"/>
      <point x="338" y="72"/>
      <point x="279" y="29"/>
      <point x="216" y="2"/>
      <point x="155" y="-10"/>
    </contour>
    <contour>
      <point x="167" y="56" type="qcurve"/>
      <point x="191" y="56"/>
      <point x="247" y="72"/>
      <point x="297" y="100"/>
      <point x="336" y="135"/>
      <point x="343" y="155" type="qcurve"/>
      <point x="340" y="168"/>
      <point x="340" y="188" type="qcurve"/>
      <point x="340" y="217"/>
      <point x="345" y="242" type="qcurve"/>
      <point x="296" y="261"/>
      <point x="241" y="261" type="qcurve"/>
      <point x="206" y="261"/>
      <point x="146" y="243"/>
      <point x="103" y="212"/>
      <point x="78" y="168"/>
      <point x="78" y="141" type="qcurve"/>
      <point x="78" y="106"/>
      <point x="123" y="56"/>
    </contour>
    <contour>
      <point x="773" y="288" type="line"/>
      <point x="775" y="296"/>
      <point x="775" y="313"/>
      <point x="775" y="321" type="qcurve"/>
      <point x="775" y="386"/>
      <point x="704" y="465"/>
      <point x="642" y="465" type="qcurve"/>
      <point x="607" y="465"/>
      <point x="543" y="439"/>
      <point x="488" y="392"/>
      <point x="447" y="327"/>
      <point x="437" y="288" type="qcurve"/>
    </contour>
  </outline>
</glyph>
<glyph name="Einvertedbreve" format="1">
  <advance width="580"/>
  <unicode hex="0206"/>
  <outline>
    <contour>
      <point x="171" y="710" type="line"/>
      <point x="621" y="710" type="line"/>
      <point x="604" y="630" type="line"/>
      <point x="244" y="630" type="line"/>
      <point x="195" y="400" type="line"/>
      <point x="508" y="400" type="line"/>
      <point x="492" y="325" type="line"/>
      <point x="179" y="325" type="line"/>
      <point x="127" y="80" type="line"/>
      <point x="496" y="80" type="line"/>
      <point x="479" y="0" type="line"/>
      <point x="20" y="0" type="line"/>
    </contour>
    <contour>
      <point x="317" y="805" type="line"/>
      <point x="322" y="829"/>
      <point x="346" y="869"/>
      <point x="381" y="899"/>
      <point x="422" y="916"/>
      <point x="444" y="916" type="qcurve"/>
      <point x="482" y="916"/>
      <point x="529" y="865"/>
      <point x="529" y="829" type="qcurve"/>
      <point x="529" y="817"/>
      <point x="526" y="805" type="qcurve"/>
      <point x="477" y="805" type="line"/>
      <point x="478" y="812"/>
      <point x="479" y="824"/>
      <point x="479" y="830" type="qcurve"/>
      <point x="479" y="873"/>
      <point x="438" y="873" type="qcurve"/>
      <point x="406" y="873"/>
      <point x="374" y="834"/>
      <point x="367" y="805" type="qcurve"/>
    </contour>
  </outline>
</glyph>
<glyph name="Idblgrave" format="1">
  <advance width="258"/>
  <unicode hex="0208"/>
  <outline>
    <contour>
      <point x="171" y="709" type="line"/>
      <point x="261" y="709" type="line"/>
      <point x="110" y="0" type="line"/>
      <point x="20" y="0" type="line"/>
    </contour>
    <contour>
      <point x="238" y="918" type="line"/>
      <point x="312" y="918" type="line"/>
      <point x="342" y="817" type="line"/>
      <point x="292" y="797" type="line"/>
    </contour>
    <contour>
      <point x="106" y="918" type="line"/>
      <point x="181" y="918" type="line"/>
      <point x="210" y="817" type="line"/>
      <point x="160" y="797" type="line"/>
    </contour>
  </outline>
</glyph>
<glyph name="iinvertedbreve" format="1">
  <advance width="226"/>
  <unicode hex="020B"/>
  <outline>
    <contour>
      <point x="116" y="522" type="line"/>
      <point x="204" y="522" type="line"/>
      <point x="93" y="0" type="line"/>
      <point x="5" y="0" type="line"/>
    </contour>
    <contour>
      <point x="75" y="619" type="line"/>
      <point x="80" y="643"/>
      <point x="104" y="683"/>
      <point x="139" y="713"/>
      <point x="180" y="730"/>
      <point x="202" y="730" type="qcurve"/>
      <point x="240" y="730"/>
      <point x="287" y="679"/>
      <point x="287" y="643" type="qcurve"/>
      <point x="287" y="631"/>
      <point x="284" y="619" type="qcurve"/>
      <point x="235" y="619" type="line"/>
      <point x="236" y="626"/>
      <point x="237" y="638"/>
      <point x="237" y="644" type="qcurve"/>
      <point x="237" y="687"/>
      <point x="196" y="687" type="qcurve"/>
      <point x="164" y="687"/>
      <point x="132" y="648"/>
      <point x="125" y="619" type="qcurve"/>
    </contour>
  </outline>
</glyph>
<glyph name="Rdblgrave" format="1">
  <advance width="633"/>
  <unicode hex="0210"/>
  <outline>
    <contour>
      <point x="20" y="0" type="line"/>
      <point x="171" y="710" type="line"/>
      <point x="461" y="710" type="line"/>
      <point x="499" y="710"/>
      <point x="559" y="678"/>
      <point x="601" y="626"/>
      <point x="623" y="558"/>
      <point x="623" y="522" type="qcurve"/>
      <point x="623" y="480"/>
      <point x="593" y="399"/>
      <point x="542" y="332"/>
      <point x="473" y="282"/>
      <point x="433" y="272" type="qcurve"/>
      <point x="538" y="0" type="line"/>
      <point x="436" y="0" type="line"/>
      <point x="338" y="255" type="line"/>
      <point x="164" y="255" type="line"/>
      <point x="110" y="0" type="line"/>
    </contour>
    <contour>
      <point x="382" y="335" type="line"/>
      <point x="412" y="335"/>
      <point x="466" y="366"/>
      <point x="506" y="416"/>
      <point x="530" y="479"/>
      <point x="530" y="512" type="qcurve"/>
      <point x="530" y="536"/>
      <point x="516" y="579"/>
      <point x="492" y="611"/>
      <point x="459" y="630"/>
      <point x="439" y="630" type="qcurve"/>
      <point x="244" y="630" type="line"/>
      <point x="181" y="335" type="line"/>
    </contour>
    <contour>
      <point x="416" y="918" type="line"/>
      <point x="490" y="918" type="line"/>
      <point x="520" y="817" type="line"/>
      <point x="470" y="797" type="line"/>
    </contour>
    <contour>
      <point x="284" y="918" type="line"/>
      <point x="359" y="918" type="line"/>
      <point x="388" y="817" type="line"/>
      <point x="338" y="797" type="line"/>
    </contour>
  </outline>
</glyph>
<glyph name="rinvertedbreve" format="1">
  <advance width="354"/>
  <unicode hex="0213"/>
  <outline>
    <contour>
      <point x="116" y="522" type="line"/>
      <point x="198" y="522" type="line"/>
      <point x="172" y="401" type="line"/>
      <point x="210" y="455"/>
      <point x="307" y="523"/>
      <point x="355" y="523" type="qcurve"/>
      <point x="364" y="523"/>
      <point x="376" y="522"/>
      <point x="381" y="521" type="qcurve"/>
      <point x="365" y="445" type="line"/>
      <point x="302" y="443"/>
      <point x="193" y="379"/>
      <point x="161" y="322" type="qcurve"/>
      <point x="93" y="0" type="line"/>
      <point x="5" y="0" type="line"/>
    </contour>
    <contour>
      <point x="154" y="619" type="line"/>
      <point x="159" y="643"/>
      <point x="183" y="683"/>
      <point x="218" y="713"/>
      <point x="259" y="730"/>
      <point x="281" y="730" type="qcurve"/>
      <point x="319" y="730"/>
      <point x="366" y="679"/>
      <point x="366" y="643" type="qcurve"/>
      <point x="366" y="631"/>
      <point x="363" y="619" type="qcurve"/>
      <point x="314" y="619" type="line"/>
      <point x="315" y="626"/>
      <point x="316" y="638"/>
      <point x="316" y="644" type="qcurve"/>
      <point x="316" y="687"/>
      <point x="275" y="687" type="qcurve"/>
      <point x="243" y="687"/>
      <point x="211" y="648"/>
      <point x="204" y="619" type="qcurve"/>
    </contour>
  </outline>
</glyph>
<glyph name="uinvertedbreve" format="1">
  <advance width="577"/>
  <unicode hex="0217"/>
  <outline>
    <contour>
      <point x="155" y="-10" type="qcurve"/>
      <point x="33" y="-10"/>
      <point x="33" y="122" type="qcurve"/>
      <point x="33" y="157"/>
      <point x="44" y="209" type="qcurve"/>
      <point x="111" y="522" type="line"/>
      <point x="198" y="522" type="line"/>
      <point x="135" y="226" type="line"/>
      <point x="126" y="185"/>
      <point x="126" y="157" type="qcurve"/>
      <point x="126" y="66"/>
      <point x="204" y="66" type="qcurve"/>
      <point x="254" y="66"/>
      <point x="357" y="135"/>
      <point x="392" y="195" type="qcurve"/>
      <point x="461" y="522" type="line"/>
      <point x="549" y="522" type="line"/>
      <point x="461" y="108" type="line"/>
      <point x="460" y="104"/>
      <point x="459" y="98"/>
      <point x="459" y="95" type="qcurve"/>
      <point x="459" y="77"/>
      <point x="481" y="76" type="qcurve"/>
      <point x="465" y="0" type="line"/>
      <point x="454" y="-2"/>
      <point x="437" y="-4"/>
      <point x="430" y="-4" type="qcurve"/>
      <point x="403" y="-4"/>
      <point x="375" y="20"/>
      <point x="375" y="40" type="qcurve"/>
      <point x="375" y="49"/>
      <point x="379" y="80"/>
      <point x="386" y="112" type="qcurve"/>
      <point x="341" y="53"/>
      <point x="219" y="-10"/>
    </contour>
    <contour>
      <point x="236" y="619" type="line"/>
      <point x="241" y="643"/>
      <point x="265" y="683"/>
      <point x="300" y="713"/>
      <point x="341" y="730"/>
      <point x="363" y="730" type="qcurve"/>
      <point x="401" y="730"/>
      <point x="448" y="679"/>
      <point x="448" y="643" type="qcurve"/>
      <point x="448" y="631"/>
      <point x="445" y="619" type="qcurve"/>
      <point x="396" y="619" type="line"/>
      <point x="397" y="626"/>
      <point x="398" y="638"/>
      <point x="398" y="644" type="qcurve"/>
      <point x="398" y="687"/>
      <point x="357" y="687" type="qcurve"/>
      <point x="325" y="687"/>
      <point x="293" y="648"/>
      <point x="286" y="619" type="qcurve"/>
    </contour>
  </outline>
</glyph>
<glyph name="schwa" format="1">
  <advance width="567"/>
  <unicode hex="0259"/>
  <outline>
    <contour>
      <point x="213" y="-10" type="qcurve"/>
      <point x="165" y="-10"/>
      <point x="89" y="22"/>
      <point x="37" y="77"/>
      <point x="10" y="153"/>
      <point x="10" y="197" type="qcurve"/>
      <point x="10" y="219"/>
      <point x="17" y="269"/>
      <point x="26" y="290" type="qcurve"/>
      <point x="434" y="290" type="line"/>
      <point x="435" y="298"/>
      <point x="436" y="314"/>
      <point x="436" y="322" type="qcurve"/>
      <point x="436" y="386"/>
      <point x="365" y="464"/>
      <point x="308" y="464" type="qcurve"/>
      <point x="285" y="464"/>
      <point x="239" y="451"/>
      <point x="197" y="429"/>
      <point x="162" y="397"/>
      <point x="150" y="378" type="qcurve"/>
      <point x="79" y="399" type="line"/>
      <point x="97" y="427"/>
      <point x="150" y="476"/>
      <point x="215" y="511"/>
      <point x="288" y="531"/>
      <point x="326" y="531" type="qcurve"/>
      <point x="374" y="531"/>
      <point x="449" y="497"/>
      <point x="501" y="437"/>
      <point x="528" y="357"/>
      <point x="528" y="311" type="qcurve"/>
      <point x="528" y="248"/>
      <point x="478" y="132"/>
      <point x="393" y="43"/>
      <point x="278" y="-10"/>
    </contour>
    <contour>
      <point x="228" y="56" type="qcurve"/>
      <point x="260" y="56"/>
      <point x="322" y="82"/>
      <point x="374" y="129"/>
      <point x="413" y="194"/>
      <point x="424" y="232" type="qcurve"/>
      <point x="97" y="232" type="line"/>
      <point x="95" y="224"/>
      <point x="95" y="208"/>
      <point x="95" y="200" type="qcurve"/>
      <point x="95" y="135"/>
      <point x="169" y="56"/>
    </contour>
  </outline>
</glyph>
<glyph name="circumflex" format="1">
  <advance width="327"/>
  <unicode hex="02C6"/>
  <outline>
    <contour>
      <point x="171" y="522" type="move" name="_top"/>
    </contour>
    <contour>
      <point x="61" y="640" type="line"/>
      <point x="177" y="730" type="line"/>
      <point x="241" y="730" type="line"/>
      <point x="318" y="640" type="line"/>
      <point x="265" y="616" type="line"/>
      <point x="198" y="679" type="line"/>
      <point x="104" y="616" type="line"/>
    </contour>
  </outline>
</glyph>
<glyph name="breve" format="1">
  <advance width="284"/>
  <unicode hex="02D8"/>
  <outline>
    <contour>
      <point x="148" y="522" type="move" name="_top"/>
    </contour>
    <contour>
      <point x="159" y="662" type="qcurve"/>
      <point x="179" y="662"/>
      <point x="219" y="701"/>
      <point x="228" y="730" type="qcurve"/>
      <point x="278" y="730" type="line"/>
      <point x="273" y="706"/>
      <point x="248" y="666"/>
      <point x="214" y="636"/>
      <point x="172" y="619"/>
      <point x="150" y="619" type="qcurve"/>
      <point x="111" y="619"/>
      <point x="65" y="666"/>
      <point x="65" y="704" type="qcurve"/>
      <point x="65" y="716"/>
      <point x="68" y="730" type="qcurve"/>
      <point x="119" y="730" type="line"/>
      <point x="118" y="725"/>
      <point x="117" y="718"/>
      <point x="117" y="713" type="qcurve"/>
      <point x="117" y="692"/>
      <point x="140" y="662"/>
    </contour>
  </outline>
</glyph>
<glyph name="ogonek" format="1">
  <advance width="245"/>
  <unicode hex="02DB"/>
  <outline>
    <contour>
      <point x="167" y="0" type="move" name="_bottom"/>
    </contour>
    <contour>
      <point x="100" y="-181" type="line"/>
      <point x="66" y="-174"/>
      <point x="32" y="-139"/>
      <point x="32" y="-116" type="qcurve"/>
      <point x="32" y="-83"/>
      <point x="94" y="-18"/>
      <point x="162" y="18" type="qcurve"/>
      <point x="184" y="0" type="line"/>
      <point x="130" y="-31"/>
      <point x="86" y="-76"/>
      <point x="86" y="-99" type="qcurve"/>
      <point x="86" y="-131"/>
      <point x="131" y="-135" type="qcurve"/>
    </contour>
  </outline>
</glyph>
<glyph name="pi" format="1">
  <advance width="692"/>
  <unicode hex="03C0"/>
  <outline>
    <contour>
      <point x="510" y="-7" type="qcurve"/>
      <point x="461" y="-7"/>
      <point x="403" y="51"/>
      <point x="403" y="103" type="qcurve"/>
      <point x="403" y="442" type="line"/>
      <point x="222" y="442" type="line"/>
      <point x="222" y="0" type="line"/>
      <point x="137" y="0" type="line"/>
      <point x="137" y="442" type="line"/>
      <point x="57" y="442" type="line"/>
      <point x="57" y="522" type="line"/>
      <point x="598" y="522" type="line"/>
      <point x="598" y="442" type="line"/>
      <point x="488" y="442" type="line"/>
      <point x="488" y="135" type="line"/>
      <point x="488" y="106"/>
      <point x="519" y="73"/>
      <point x="547" y="73" type="qcurve"/>
      <point x="558" y="73"/>
      <point x="588" y="80"/>
      <point x="601" y="85" type="qcurve"/>
      <point x="615" y="14" type="line"/>
      <point x="593" y="5"/>
      <point x="533" y="-7"/>
    </contour>
  </outline>
</glyph>
<glyph name="zdotbelow" format="1">
  <advance width="470"/>
  <unicode hex="1E93"/>
  <outline>
    <contour>
      <point x="-23" y="57" type="line"/>
      <point x="371" y="458" type="line"/>
      <point x="71" y="458" type="line"/>
      <point x="85" y="522" type="line"/>
      <point x="483" y="522" type="line"/>
      <point x="471" y="465" type="line"/>
      <point x="79" y="64" type="line"/>
      <point x="387" y="64" type="line"/>
      <point x="373" y="0" type="line"/>
      <point x="-35" y="0" type="line"/>
    </contour>
    <contour>
      <point x="91" y="-182" type="line"/>
      <point x="114" y="-76" type="line"/>
      <point x="193" y="-76" type="line"/>
      <point x="171" y="-182" type="line"/>
    </contour>
  </outline>
</glyph>
<glyph name="Ytilde" format="1">
  <advance width="612"/>
  <unicode hex="1EF8"/>
  <outline>
    <contour>
      <point x="248" y="261" type="line"/>
      <point x="89" y="710" type="line"/>
      <point x="188" y="710" type="line"/>
      <point x="310" y="340" type="line"/>
      <point x="591" y="710" type="line"/>
      <point x="689" y="710" type="line"/>
      <point x="337" y="259" type="line"/>
      <point x="282" y="0" type="line"/>
      <point x="192" y="0" type="line"/>
    </contour>
    <contour>
      <point x="457" y="813" type="qcurve"/>
      <point x="436" y="813"/>
      <point x="406" y="826"/>
      <point x="382" y="842"/>
      <point x="358" y="855"/>
      <point x="343" y="855" type="qcurve"/>
      <point x="327" y="855"/>
      <point x="306" y="841"/>
      <point x="293" y="824"/>
      <point x="287" y="808"/>
      <point x="287" y="807" type="qcurve"/>
      <point x="235" y="807" type="line"/>
      <point x="236" y="813"/>
      <point x="252" y="847"/>
      <point x="282" y="883"/>
      <point x="324" y="910"/>
      <point x="353" y="910" type="qcurve"/>
      <point x="373" y="910"/>
      <point x="401" y="897"/>
      <point x="424" y="880"/>
      <point x="449" y="867"/>
      <point x="466" y="867" type="qcurve"/>
      <point x="484" y="867"/>
      <point x="508" y="881"/>
      <point x="523" y="899"/>
      <point x="530" y="914"/>
      <point x="530" y="916" type="qcurve"/>
      <point x="581" y="916" type="line"/>
      <point x="580" y="910"/>
      <point x="564" y="877"/>
      <point x="533" y="841"/>
      <point x="488" y="813"/>
    </contour>
  </outline>
</glyph>
<glyph name="ytilde" format="1">
  <advance width="501"/>
  <unicode hex="1EF9"/>
  <outline>
    <contour>
      <point x="-35" y="-153" type="line"/>
      <point x="-4" y="-149"/>
      <point x="41" y="-136"/>
      <point x="76" y="-115"/>
      <point x="106" y="-81"/>
      <point x="123" y="-55" type="qcurve"/>
      <point x="152" y="-11" type="line"/>
      <point x="51" y="522" type="line"/>
      <point x="142" y="522" type="line"/>
      <point x="214" y="79" type="line"/>
      <point x="248" y="135" type="line"/>
      <point x="290" y="204"/>
      <point x="348" y="308"/>
      <point x="389" y="396"/>
      <point x="417" y="477"/>
      <point x="429" y="522" type="qcurve"/>
      <point x="516" y="522" type="line"/>
      <point x="502" y="474"/>
      <point x="472" y="390"/>
      <point x="426" y="297"/>
      <point x="359" y="183"/>
      <point x="310" y="103" type="qcurve"/>
      <point x="230" y="-26" type="line"/>
      <point x="196" y="-81"/>
      <point x="136" y="-156"/>
      <point x="77" y="-202"/>
      <point x="14" y="-223"/>
      <point x="-23" y="-224" type="qcurve"/>
    </contour>
    <contour>
      <point x="353" y="627" type="qcurve"/>
      <point x="332" y="627"/>
      <point x="302" y="640"/>
      <point x="278" y="656"/>
      <point x="254" y="669"/>
      <point x="239" y="669" type="qcurve"/>
      <point x="223" y="669"/>
      <point x="202" y="655"/>
      <point x="189" y="638"/>
      <point x="183" y="622"/>
      <point x="183" y="621" type="qcurve"/>
      <point x="131" y="621" type="line"/>
      <point x="132" y="627"/>
      <point x="148" y="661"/>
      <point x="178" y="697"/>
      <point x="220" y="724"/>
      <point x="249" y="724" type="qcurve"/>
      <point x="269" y="724"/>
      <point x="297" y="711"/>
      <point x="320" y="694"/>
      <point x="345" y="681"/>
      <point x="362" y="681" type="qcurve"/>
      <point x="380" y="681"/>
      <point x="404" y="695"/>
      <point x="419" y="713"/>
      <point x="426" y="728"/>
      <point x="426" y="730" type="qcurve"/>
      <point x="477" y="730" type="line"/>
      <point x="476" y="724"/>
      <point x="460" y="691"/>
      <point x="429" y="655"/>
      <point x="384" y="627"/>
    </contour>
  </outline>
</glyph>
<glyph name="emdash" format="1">
  <advance width="872"/>
  <unicode hex="2014"/>
  <outline>
    <contour>
      <point x="48" y="233" type="line"/>
      <point x="65" y="313" type="line"/>
      <point x="812" y="313" type="line"/>
      <point x="795" y="233" type="line"/>
    </contour>
  </outline>
</glyph>
<glyph name="perthousand" format="1">
  <advance width="1053"/>
  <unicode hex="2030"/>
  <outline>
    <contour>
      <point x="220" y="428" type="qcurve"/>
      <point x="192" y="428"/>
      <point x="147" y="447"/>
      <point x="115" y="479"/>
      <point x="98" y="523"/>
      <point x="98" y="548" type="qcurve"/>
      <point x="98" y="583"/>
      <point x="129" y="645"/>
      <point x="180" y="692"/>
      <point x="245" y="720"/>
      <point x="279" y="720" type="qcurve"/>
      <point x="306" y="720"/>
      <point x="351" y="701"/>
      <point x="383" y="669"/>
      <point x="400" y="624"/>
      <point x="400" y="599" type="qcurve"/>
      <point x="400" y="564"/>
      <point x="369" y="502"/>
      <point x="318" y="456"/>
      <point x="254" y="428"/>
    </contour>
    <contour>
      <point x="230" y="476" type="qcurve"/>
      <point x="249" y="476"/>
      <point x="287" y="496"/>
      <point x="317" y="529"/>
      <point x="335" y="571"/>
      <point x="335" y="594" type="qcurve"/>
      <point x="335" y="626"/>
      <point x="298" y="672"/>
      <point x="268" y="672" type="qcurve"/>
      <point x="249" y="672"/>
      <point x="211" y="652"/>
      <point x="181" y="619"/>
      <point x="163" y="577"/>
      <point x="163" y="554" type="qcurve"/>
      <point x="163" y="522"/>
      <point x="200" y="476"/>
    </contour>
    <contour>
      <point x="464" y="-10" type="qcurve"/>
      <point x="436" y="-10"/>
      <point x="391" y="9"/>
      <point x="359" y="41"/>
      <point x="342" y="85"/>
      <point x="342" y="111" type="qcurve"/>
      <point x="342" y="145"/>
      <point x="373" y="208"/>
      <point x="424" y="254"/>
      <point x="488" y="282"/>
      <point x="522" y="282" type="qcurve"/>
      <point x="550" y="282"/>
      <point x="594" y="263"/>
      <point x="626" y="231"/>
      <point x="643" y="187"/>
      <point x="643" y="162" type="qcurve"/>
      <point x="643" y="127"/>
      <point x="612" y="65"/>
      <point x="562" y="18"/>
      <point x="498" y="-10"/>
    </contour>
    <contour>
      <point x="473" y="38" type="qcurve"/>
      <point x="492" y="38"/>
      <point x="530" y="58"/>
      <point x="560" y="91"/>
      <point x="579" y="133"/>
      <point x="579" y="156" type="qcurve"/>
      <point x="579" y="188"/>
      <point x="542" y="234"/>
      <point x="512" y="234" type="qcurve"/>
      <point x="492" y="234"/>
      <point x="454" y="214"/>
      <point x="424" y="181"/>
      <point x="406" y="139"/>
      <point x="406" y="116" type="qcurve"/>
      <point x="406" y="84"/>
      <point x="443" y="38"/>
    </contour>
    <contour>
      <point x="809" y="-10" type="qcurve"/>
      <point x="781" y="-10"/>
      <point x="736" y="9"/>
      <point x="704" y="41"/>
      <point x="687" y="85"/>
      <point x="687" y="110" type="qcurve"/>
      <point x="687" y="145"/>
      <point x="718" y="207"/>
      <point x="769" y="254"/>
      <point x="834" y="282"/>
      <point x="868" y="282" type="qcurve"/>
      <point x="895" y="282"/>
      <point x="940" y="263"/>
      <point x="971" y="231"/>
      <point x="988" y="187"/>
      <point x="988" y="162" type="qcurve"/>
      <point x="988" y="127"/>
      <point x="957" y="65"/>
      <point x="907" y="18"/>
      <point x="843" y="-10"/>
    </contour>
    <contour>
      <point x="818" y="38" type="qcurve"/>
      <point x="837" y="38"/>
      <point x="875" y="58"/>
      <point x="905" y="91"/>
      <point x="924" y="133"/>
      <point x="924" y="156" type="qcurve"/>
      <point x="924" y="188"/>
      <point x="887" y="234"/>
      <point x="857" y="234" type="qcurve"/>
      <point x="837" y="234"/>
      <point x="799" y="214"/>
      <point x="769" y="181"/>
      <point x="751" y="139"/>
      <point x="751" y="116" type="qcurve"/>
      <point x="751" y="84"/>
      <point x="788" y="38"/>
    </contour>
    <contour>
      <point x="21" y="33" type="line"/>
      <point x="359" y="370" type="line"/>
      <point x="686" y="715" type="line"/>
      <point x="721" y="678" type="line"/>
      <point x="387" y="343" type="line"/>
      <point x="55" y="-5" type="line"/>
    </contour>
  </outline>
</glyph>
<glyph name="sixsuperior" format="1">
  <advance width="399"/>
  <unicode hex="2076"/>
  <outline>
    <contour>
      <point x="420" y="557" type="qcurve"/>
      <point x="420" y="524"/>
      <point x="388" y="465"/>
      <point x="334" y="421"/>
      <point x="263" y="395"/>
      <point x="224" y="395" type="qcurve"/>
      <point x="163" y="395"/>
      <point x="94" y="468"/>
      <point x="94" y="532" type="qcurve"/>
      <point x="94" y="590"/>
      <point x="127" y="692"/>
      <point x="187" y="767"/>
      <point x="270" y="810"/>
      <point x="320" y="810" type="qcurve"/>
      <point x="363" y="810"/>
      <point x="427" y="774"/>
      <point x="440" y="741" type="qcurve"/>
      <point x="399" y="704" type="line"/>
      <point x="391" y="728"/>
      <point x="341" y="758"/>
      <point x="307" y="758" type="qcurve"/>
      <point x="255" y="758"/>
      <point x="175" y="683"/>
      <point x="160" y="614" type="qcurve"/>
      <point x="170" y="627"/>
      <point x="199" y="649"/>
      <point x="233" y="664"/>
      <point x="269" y="672"/>
      <point x="287" y="672" type="qcurve"/>
      <point x="347" y="672"/>
      <point x="420" y="606"/>
    </contour>
    <contour>
      <point x="237" y="446" type="qcurve"/>
      <point x="261" y="446"/>
      <point x="308" y="463"/>
      <point x="344" y="491"/>
      <point x="366" y="527"/>
      <point x="366" y="547" type="qcurve"/>
      <point x="366" y="579"/>
      <point x="315" y="624"/>
      <point x="274" y="624" type="qcurve"/>
      <point x="249" y="624"/>
      <point x="203" y="608"/>
      <point x="167" y="580"/>
      <point x="145" y="544"/>
      <point x="145" y="524" type="qcurve"/>
      <point x="145" y="492"/>
      <point x="197" y="446"/>
    </contour>
  </outline>
</glyph>
<glyph name="ninesuperior" format="1">
  <advance width="399"/>
  <unicode hex="2079"/>
  <outline>
    <contour>
      <point x="107" y="648" type="qcurve"/>
      <point x="107" y="681"/>
      <point x="139" y="740"/>
      <point x="193" y="784"/>
      <point x="264" y="810"/>
      <point x="302" y="810" type="qcurve"/>
      <point x="363" y="810"/>
      <point x="433" y="737"/>
      <point x="433" y="673" type="qcurve"/>
      <point x="433" y="614"/>
      <point x="400" y="513"/>
      <point x="340" y="438"/>
      <point x="257" y="395"/>
      <point x="207" y="395" type="qcurve"/>
      <point x="164" y="395"/>
      <point x="100" y="432"/>
      <point x="87" y="465" type="qcurve"/>
      <point x="128" y="501" type="line"/>
      <point x="136" y="476"/>
      <point x="185" y="447"/>
      <point x="220" y="447" type="qcurve"/>
      <point x="272" y="447"/>
      <point x="352" y="522"/>
      <point x="367" y="591" type="qcurve"/>
      <point x="347" y="565"/>
      <point x="275" y="533"/>
      <point x="239" y="533" type="qcurve"/>
      <point x="179" y="533"/>
      <point x="107" y="599"/>
    </contour>
    <contour>
      <point x="290" y="759" type="qcurve"/>
      <point x="266" y="759"/>
      <point x="219" y="742"/>
      <point x="183" y="714"/>
      <point x="161" y="678"/>
      <point x="161" y="658" type="qcurve"/>
      <point x="161" y="626"/>
      <point x="213" y="582"/>
      <point x="253" y="582" type="qcurve"/>
      <point x="277" y="582"/>
      <point x="324" y="598"/>
      <point x="360" y="625"/>
      <point x="382" y="661"/>
      <point x="382" y="681" type="qcurve"/>
      <point x="382" y="713"/>
      <point x="330" y="759"/>
    </contour>
  </outline>
</glyph>
<glyph name="oneinferior" format="1">
  <advance width="291"/>
  <unicode hex="2081"/>
  <outline>
    <contour>
      <point x="202" y="-26" type="line"/>
      <point x="191" y="-80" type="line"/>
      <point x="-33" y="-80" type="line"/>
      <point x="-22" y="-26" type="line"/>
      <point x="65" y="-26" type="line"/>
      <point x="128" y="269" type="line"/>
      <point x="121" y="262"/>
      <point x="94" y="245"/>
      <point x="62" y="230"/>
      <point x="29" y="220"/>
      <point x="16" y="220" type="qcurve"/>
      <point x="28" y="275" type="line"/>
      <point x="45" y="275"/>
      <point x="84" y="292"/>
      <point x="118" y="312"/>
      <point x="141" y="330"/>
      <point x="141" y="331" type="qcurve"/>
      <point x="197" y="331" type="line"/>
      <point x="121" y="-26" type="line"/>
    </contour>
  </outline>
</glyph>
<glyph name="twoinferior" format="1">
  <advance width="386"/>
  <unicode hex="2082"/>
  <outline>
    <contour>
      <point x="-46" y="-80" type="line"/>
      <point x="-38" y="-41"/>
      <point x="-11" y="18"/>
      <point x="28" y="62"/>
      <point x="81" y="95"/>
      <point x="116" y="108" type="qcurve"/>
      <point x="142" y="118"/>
      <point x="196" y="136"/>
      <point x="239" y="160"/>
      <point x="267" y="194"/>
      <point x="267" y="220" type="qcurve"/>
      <point x="267" y="245"/>
      <point x="228" y="277"/>
      <point x="189" y="277" type="qcurve"/>
      <point x="143" y="277"/>
      <point x="77" y="240"/>
      <point x="58" y="223" type="qcurve"/>
      <point x="31" y="263" type="line"/>
      <point x="37" y="270"/>
      <point x="68" y="293"/>
      <point x="113" y="315"/>
      <point x="173" y="331"/>
      <point x="208" y="331" type="qcurve"/>
      <point x="270" y="331"/>
      <point x="330" y="276"/>
      <point x="330" y="232" type="qcurve"/>
      <point x="330" y="203"/>
      <point x="311" y="158"/>
      <point x="272" y="122"/>
      <point x="211" y="93"/>
      <point x="170" y="80" type="qcurve"/>
      <point x="139" y="70"/>
      <point x="97" y="44"/>
      <point x="70" y="16"/>
      <point x="56" y="-13"/>
      <point x="53" y="-26" type="qcurve"/>
      <point x="278" y="-26" type="line"/>
      <point x="266" y="-80" type="line"/>
    </contour>
  </outline>
</glyph>
<glyph name="threeinferior" format="1">
  <advance width="380"/>
  <unicode hex="2083"/>
  <outline>
    <contour>
      <point x="100" y="-85" type="qcurve"/>
      <point x="41" y="-85"/>
      <point x="-31" y="-40"/>
      <point x="-32" y="1" type="qcurve"/>
      <point x="7" y="38" type="line"/>
      <point x="7" y="27"/>
      <point x="20" y="4"/>
      <point x="46" y="-17"/>
      <point x="85" y="-30"/>
      <point x="111" y="-30" type="qcurve"/>
      <point x="135" y="-30"/>
      <point x="178" y="-20"/>
      <point x="211" y="0"/>
      <point x="231" y="26"/>
      <point x="231" y="43" type="qcurve"/>
      <point x="231" y="72"/>
      <point x="164" y="104"/>
      <point x="104" y="104" type="qcurve"/>
      <point x="82" y="104" type="line"/>
      <point x="92" y="154" type="line"/>
      <point x="114" y="154" type="line"/>
      <point x="179" y="154"/>
      <point x="257" y="189"/>
      <point x="257" y="225" type="qcurve"/>
      <point x="257" y="251"/>
      <point x="208" y="280"/>
      <point x="176" y="280" type="qcurve"/>
      <point x="137" y="280"/>
      <point x="75" y="250"/>
      <point x="55" y="226" type="qcurve"/>
      <point x="28" y="269" type="line"/>
      <point x="53" y="298"/>
      <point x="140" y="331"/>
      <point x="186" y="331" type="qcurve"/>
      <point x="246" y="331"/>
      <point x="317" y="277"/>
      <point x="317" y="235" type="qcurve"/>
      <point x="317" y="194"/>
      <point x="260" y="142"/>
      <point x="208" y="131" type="qcurve"/>
      <point x="246" y="125"/>
      <point x="287" y="77"/>
      <point x="287" y="45" type="qcurve"/>
      <point x="287" y="13"/>
      <point x="255" y="-35"/>
      <point x="202" y="-68"/>
      <point x="135" y="-85"/>
    </contour>
  </outline>
</glyph>
<glyph name="fiveinferior" format="1">
  <advance width="369"/>
  <unicode hex="2085"/>
  <outline>
    <contour>
      <point x="162" y="180" type="qcurve"/>
      <point x="218" y="180"/>
      <point x="286" y="120"/>
      <point x="286" y="72" type="qcurve"/>
      <point x="286" y="38"/>
      <point x="254" y="-20"/>
      <point x="201" y="-62"/>
      <point x="132" y="-85"/>
      <point x="94" y="-85" type="qcurve"/>
      <point x="46" y="-85"/>
      <point x="-23" y="-45"/>
      <point x="-36" y="-12" type="qcurve"/>
      <point x="6" y="22" type="line"/>
      <point x="19" y="-3"/>
      <point x="71" y="-33"/>
      <point x="108" y="-33" type="qcurve"/>
      <point x="132" y="-33"/>
      <point x="176" y="-19"/>
      <point x="209" y="8"/>
      <point x="229" y="44"/>
      <point x="229" y="67" type="qcurve"/>
      <point x="229" y="102"/>
      <point x="179" y="137"/>
      <point x="148" y="137" type="qcurve"/>
      <point x="120" y="137"/>
      <point x="63" y="111"/>
      <point x="45" y="90" type="qcurve"/>
      <point x="-5" y="90" type="line"/>
      <point x="4" y="111"/>
      <point x="33" y="178"/>
      <point x="64" y="248"/>
      <point x="91" y="310"/>
      <point x="97" y="326" type="qcurve"/>
      <point x="316" y="326" type="line"/>
      <point x="304" y="271" type="line"/>
      <point x="126" y="271" type="line"/>
      <point x="73" y="154" type="line"/>
      <point x="90" y="166"/>
      <point x="136" y="180"/>
    </contour>
  </outline>
</glyph>
<glyph name="eightinferior" format="1">
  <advance width="391"/>
  <unicode hex="2088"/>
  <outline>
    <contour>
      <point x="300" y="51" type="qcurve"/>
      <point x="300" y="21"/>
      <point x="268" y="-29"/>
      <point x="215" y="-65"/>
      <point x="148" y="-85"/>
      <point x="112" y="-85" type="qcurve"/>
      <point x="51" y="-85"/>
      <point x="-22" y="-24"/>
      <point x="-22" y="20" type="qcurve"/>
      <point x="-22" y="43"/>
      <point x="-3" y="81"/>
      <point x="28" y="110"/>
      <point x="67" y="131"/>
      <point x="87" y="138" type="qcurve"/>
      <point x="64" y="147"/>
      <point x="33" y="182"/>
      <point x="33" y="208" type="qcurve"/>
      <point x="33" y="235"/>
      <point x="64" y="278"/>
      <point x="113" y="309"/>
      <point x="172" y="326"/>
      <point x="200" y="326" type="qcurve"/>
      <point x="224" y="326"/>
      <point x="268" y="313"/>
      <point x="303" y="290"/>
      <point x="324" y="256"/>
      <point x="324" y="235" type="qcurve"/>
      <point x="324" y="199"/>
      <point x="270" y="150"/>
      <point x="233" y="138" type="qcurve"/>
      <point x="262" y="126"/>
      <point x="300" y="82"/>
    </contour>
    <contour>
      <point x="244" y="50" type="qcurve"/>
      <point x="244" y="65"/>
      <point x="229" y="88"/>
      <point x="204" y="104"/>
      <point x="172" y="113"/>
      <point x="155" y="113" type="qcurve"/>
      <point x="134" y="113"/>
      <point x="91" y="101"/>
      <point x="56" y="80"/>
      <point x="35" y="49"/>
      <point x="35" y="31" type="qcurve"/>
      <point x="35" y="17"/>
      <point x="51" y="-6"/>
      <point x="76" y="-22"/>
      <point x="109" y="-30"/>
      <point x="126" y="-30" type="qcurve"/>
      <point x="147" y="-30"/>
      <point x="189" y="-19"/>
      <point x="223" y="2"/>
      <point x="244" y="32"/>
    </contour>
    <contour>
      <point x="88" y="208" type="qcurve"/>
      <point x="88" y="196"/>
      <point x="101" y="178"/>
      <point x="123" y="165"/>
      <point x="151" y="158"/>
      <point x="165" y="158" type="qcurve"/>
      <point x="181" y="158"/>
      <point x="217" y="167"/>
      <point x="247" y="184"/>
      <point x="267" y="208"/>
      <point x="267" y="223" type="qcurve"/>
      <point x="267" y="246"/>
      <point x="221" y="273"/>
      <point x="189" y="273" type="qcurve"/>
      <point x="170" y="273"/>
      <point x="134" y="264"/>
      <point x="105" y="247"/>
      <point x="88" y="223"/>
    </contour>
  </outline>
</glyph>
<glyph name="colonmonetary" format="1">
  <advance width="536"/>
  <unicode hex="20A1"/>
  <outline>
    <contour>
      <point x="154" y="2" type="line"/>
      <point x="123" y="13"/>
      <point x="74" y="54"/>
      <point x="41" y="108"/>
      <point x="24" y="174"/>
      <point x="24" y="210" type="qcurve"/>
      <point x="24" y="264"/>
      <point x="60" y="364"/>
      <point x="125" y="447"/>
      <point x="213" y="507"/>
      <point x="265" y="521" type="qcurve"/>
      <point x="291" y="645" type="line"/>
      <point x="335" y="645" type="line"/>
      <point x="310" y="529" type="line"/>
      <point x="318" y="530"/>
      <point x="333" y="531"/>
      <point x="341" y="531" type="qcurve"/>
      <point x="348" y="531"/>
      <point x="362" y="530"/>
      <point x="367" y="529" type="qcurve"/>
      <point x="392" y="645" type="line"/>
      <point x="436" y="645" type="line"/>
      <point x="409" y="521" type="line"/>
      <point x="454" y="507"/>
      <point x="513" y="447"/>
      <point x="524" y="404" type="qcurve"/>
      <point x="433" y="377" type="line"/>
      <point x="422" y="414"/>
      <point x="364" y="455"/>
      <point x="323" y="455" type="qcurve"/>
      <point x="283" y="455"/>
      <point x="208" y="418"/>
      <point x="150" y="355"/>
      <point x="115" y="269"/>
      <point x="115" y="221" type="qcurve"/>
      <point x="115" y="188"/>
      <point x="133" y="131"/>
      <point x="166" y="90"/>
      <point x="213" y="66"/>
      <point x="241" y="66" type="qcurve"/>
      <point x="262" y="66"/>
      <point x="307" y="79"/>
      <point x="346" y="101"/>
      <point x="378" y="130"/>
      <point x="387" y="147" type="qcurve"/>
      <point x="468" y="121" type="line"/>
      <point x="442" y="77"/>
      <point x="352" y="13"/>
      <point x="298" y="-1" type="qcurve"/>
      <point x="273" y="-120" type="line"/>
      <point x="229" y="-120" type="line"/>
      <point x="253" y="-9" type="line"/>
      <point x="246" y="-10"/>
      <point x="233" y="-10"/>
      <point x="227" y="-10" type="qcurve"/>
      <point x="219" y="-10"/>
      <point x="204" y="-9"/>
      <point x="196" y="-8" type="qcurve"/>
      <point x="172" y="-120" type="line"/>
      <point x="129" y="-120" type="line"/>
    </contour>
  </outline>
</glyph>
<glyph name="lira" format="1">
  <advance width="481"/>
  <unicode hex="20A4"/>
  <outline>
    <contour>
      <point x="73" y="404" type="line"/>
      <point x="142" y="404" type="line"/>
      <point x="134" y="431"/>
      <point x="122" y="484"/>
      <point x="122" y="512" type="qcurve"/>
      <point x="122" y="554"/>
      <point x="160" y="627"/>
      <point x="222" y="683"/>
      <point x="302" y="715"/>
      <point x="344" y="715" type="qcurve"/>
      <point x="398" y="715"/>
      <point x="482" y="659"/>
      <point x="503" y="610" type="qcurve"/>
      <point x="443" y="556" type="line"/>
      <point x="429" y="595"/>
      <point x="365" y="642"/>
      <point x="327" y="642" type="qcurve"/>
      <point x="303" y="642"/>
      <point x="257" y="622"/>
      <point x="223" y="586"/>
      <point x="202" y="539"/>
      <point x="202" y="512" type="qcurve"/>
      <point x="202" y="486"/>
      <point x="216" y="433"/>
      <point x="224" y="404" type="qcurve"/>
      <point x="406" y="404" type="line"/>
      <point x="395" y="352" type="line"/>
      <point x="235" y="352" type="line"/>
      <point x="237" y="341"/>
      <point x="239" y="315"/>
      <point x="239" y="293" type="qcurve"/>
      <point x="382" y="293" type="line"/>
      <point x="371" y="241" type="line"/>
      <point x="231" y="241" type="line"/>
      <point x="226" y="223"/>
      <point x="207" y="186"/>
      <point x="175" y="144"/>
      <point x="131" y="97"/>
      <point x="100" y="69" type="qcurve"/>
      <point x="137" y="79"/>
      <point x="172" y="79" type="qcurve"/>
      <point x="191" y="79"/>
      <point x="224" y="73"/>
      <point x="254" y="67"/>
      <point x="284" y="61"/>
      <point x="301" y="61" type="qcurve"/>
      <point x="319" y="61"/>
      <point x="359" y="70"/>
      <point x="385" y="79" type="qcurve"/>
      <point x="392" y="12" type="line"/>
      <point x="366" y="-1"/>
      <point x="307" y="-15"/>
      <point x="281" y="-15" type="qcurve"/>
      <point x="260" y="-15"/>
      <point x="221" y="-7"/>
      <point x="183" y="2"/>
      <point x="143" y="10"/>
      <point x="121" y="10" type="qcurve"/>
      <point x="98" y="10"/>
      <point x="36" y="0"/>
      <point x="8" y="-8" type="qcurve"/>
      <point x="0" y="56" type="line"/>
      <point x="69" y="114"/>
      <point x="140" y="199"/>
      <point x="152" y="241" type="qcurve"/>
      <point x="38" y="241" type="line"/>
      <point x="49" y="293" type="line"/>
      <point x="160" y="293" type="line"/>
      <point x="160" y="325"/>
      <point x="154" y="352" type="qcurve"/>
      <point x="62" y="352" type="line"/>
    </contour>
  </outline>
</glyph>
<glyph name="uni2113" format="1">
  <advance width="343"/>
  <unicode hex="2113"/>
  <outline>
    <contour>
      <point x="180" y="-7" type="qcurve"/>
      <point x="128" y="-7"/>
      <point x="70" y="51"/>
      <point x="70" y="103" type="qcurve"/>
      <point x="70" y="610" type="line"/>
      <point x="70" y="638"/>
      <point x="91" y="685"/>
      <point x="127" y="720"/>
      <point x="176" y="740"/>
      <point x="205" y="740" type="qcurve"/>
      <point x="262" y="740"/>
      <point x="331" y="668"/>
      <point x="331" y="610" type="qcurve"/>
      <point x="331" y="571"/>
      <point x="300" y="470"/>
      <point x="249" y="368"/>
      <point x="183" y="274"/>
      <point x="148" y="241" type="qcurve"/>
      <point x="148" y="135" type="line"/>
      <point x="148" y="106"/>
      <point x="184" y="73"/>
      <point x="215" y="73" type="qcurve"/>
      <point x="227" y="73"/>
      <point x="257" y="80"/>
      <point x="271" y="85" type="qcurve"/>
      <point x="285" y="14" type="line"/>
      <point x="263" y="5"/>
      <point x="203" y="-7"/>
    </contour>
    <contour>
      <point x="260" y="604" type="qcurve"/>
      <point x="260" y="636"/>
      <point x="232" y="671"/>
      <point x="206" y="671" type="qcurve"/>
      <point x="180" y="671"/>
      <point x="148" y="637"/>
      <point x="148" y="610" type="qcurve"/>
      <point x="148" y="333" type="line"/>
      <point x="170" y="360"/>
      <point x="210" y="431"/>
      <point x="241" y="506"/>
      <point x="260" y="577"/>
    </contour>
  </outline>
</glyph>
<glyph name="servicemark" format="1">
  <advance width="712"/>
  <unicode hex="2120"/>
  <outline>
    <contour>
      <point x="645" y="710" type="line"/>
      <point x="731" y="710" type="line"/>
      <point x="669" y="420" type="line"/>
      <point x="610" y="420" type="line"/>
      <point x="654" y="628" type="line"/>
      <point x="546" y="462" type="line"/>
      <point x="497" y="462" type="line"/>
      <point x="460" y="628" type="line"/>
      <point x="415" y="420" type="line"/>
      <point x="356" y="420" type="line"/>
      <point x="417" y="710" type="line"/>
      <point x="502" y="710" type="line"/>
      <point x="536" y="532" type="line"/>
    </contour>
    <contour>
      <point x="321" y="632" type="line"/>
      <point x="313" y="643"/>
      <point x="272" y="663"/>
      <point x="246" y="663" type="qcurve"/>
      <point x="189" y="663"/>
      <point x="189" y="628" type="qcurve"/>
      <point x="189" y="618"/>
      <point x="212" y="602"/>
      <point x="244" y="594" type="qcurve"/>
      <point x="285" y="584"/>
      <point x="332" y="551"/>
      <point x="332" y="516" type="qcurve"/>
      <point x="332" y="490"/>
      <point x="311" y="452"/>
      <point x="275" y="428"/>
      <point x="226" y="416"/>
      <point x="198" y="416" type="qcurve"/>
      <point x="128" y="416"/>
      <point x="83" y="458" type="qcurve"/>
      <point x="120" y="503" type="line"/>
      <point x="130" y="490"/>
      <point x="178" y="469"/>
      <point x="210" y="469" type="qcurve"/>
      <point x="237" y="469"/>
      <point x="267" y="484"/>
      <point x="267" y="500" type="qcurve"/>
      <point x="267" y="514"/>
      <point x="241" y="530"/>
      <point x="207" y="539" type="qcurve"/>
      <point x="168" y="550"/>
      <point x="126" y="580"/>
      <point x="126" y="611" type="qcurve"/>
      <point x="126" y="636"/>
      <point x="147" y="674"/>
      <point x="183" y="701"/>
      <point x="231" y="715"/>
      <point x="258" y="715" type="qcurve"/>
      <point x="290" y="715"/>
      <point x="337" y="697"/>
      <point x="354" y="682" type="qcurve"/>
    </contour>
  </outline>
</glyph>
<glyph name="estimated" format="1">
  <advance width="606"/>
  <unicode hex="212E"/>
  <outline>
    <contour>
      <point x="300" y="27" type="qcurve"/>
      <point x="369" y="27"/>
      <point x="460" y="71"/>
      <point x="489" y="101" type="qcurve"/>
      <point x="515" y="73" type="line"/>
      <point x="480" y="38"/>
      <point x="375" y="-10"/>
      <point x="300" y="-10" type="qcurve"/>
      <point x="241" y="-10"/>
      <point x="144" y="34"/>
      <point x="75" y="108"/>
      <point x="37" y="206"/>
      <point x="37" y="260" type="qcurve"/>
      <point x="37" y="315"/>
      <point x="76" y="413"/>
      <point x="145" y="487"/>
      <point x="242" y="531"/>
      <point x="300" y="531" type="qcurve"/>
      <point x="358" y="531"/>
      <point x="456" y="487"/>
      <point x="525" y="412"/>
      <point x="564" y="312"/>
      <point x="564" y="255" type="qcurve"/>
      <point x="144" y="255" type="line"/>
      <point x="144" y="105" type="line"/>
      <point x="173" y="69"/>
      <point x="253" y="27"/>
    </contour>
    <contour>
      <point x="300" y="494" type="qcurve"/>
      <point x="253" y="494"/>
      <point x="173" y="451"/>
      <point x="144" y="414" type="qcurve"/>
      <point x="144" y="295" type="line"/>
      <point x="458" y="295" type="line"/>
      <point x="458" y="413" type="line"/>
      <point x="429" y="451"/>
      <point x="348" y="494"/>
    </contour>
  </outline>
</glyph>
<glyph name="onethird" format="1">
  <advance width="849"/>
  <unicode hex="2153"/>
  <outline>
    <contour>
      <point x="586" y="-5" type="qcurve"/>
      <point x="526" y="-5"/>
      <point x="455" y="40"/>
      <point x="454" y="81" type="qcurve"/>
      <point x="493" y="118" type="line"/>
      <point x="493" y="107"/>
      <point x="506" y="84"/>
      <point x="532" y="63"/>
      <point x="571" y="50"/>
      <point x="597" y="50" type="qcurve"/>
      <point x="621" y="50"/>
      <point x="664" y="60"/>
      <point x="697" y="80"/>
      <point x="717" y="106"/>
      <point x="717" y="123" type="qcurve"/>
      <point x="717" y="152"/>
      <point x="650" y="184"/>
      <point x="590" y="184" type="qcurve"/>
      <point x="568" y="184" type="line"/>
      <point x="578" y="234" type="line"/>
      <point x="600" y="234" type="line"/>
      <point x="665" y="234"/>
      <point x="743" y="269"/>
      <point x="743" y="305" type="qcurve"/>
      <point x="743" y="331"/>
      <point x="694" y="360"/>
      <point x="662" y="360" type="qcurve"/>
      <point x="623" y="360"/>
      <point x="561" y="330"/>
      <point x="541" y="306" type="qcurve"/>
      <point x="514" y="349" type="line"/>
      <point x="539" y="378"/>
      <point x="626" y="411"/>
      <point x="672" y="411" type="qcurve"/>
      <point x="732" y="411"/>
      <point x="803" y="357"/>
      <point x="803" y="315" type="qcurve"/>
      <point x="803" y="274"/>
      <point x="746" y="222"/>
      <point x="694" y="211" type="qcurve"/>
      <point x="732" y="205"/>
      <point x="773" y="157"/>
      <point x="773" y="125" type="qcurve"/>
      <point x="773" y="93"/>
      <point x="741" y="45"/>
      <point x="688" y="12"/>
      <point x="621" y="-5"/>
    </contour>
    <contour>
      <point x="275" y="375" type="line"/>
      <point x="263" y="320" type="line"/>
      <point x="62" y="320" type="line"/>
      <point x="74" y="375" type="line"/>
      <point x="150" y="375" type="line"/>
      <point x="212" y="669" type="line"/>
      <point x="206" y="663"/>
      <point x="181" y="646"/>
      <point x="152" y="631"/>
      <point x="123" y="620"/>
      <point x="111" y="620" type="qcurve"/>
      <point x="123" y="675" type="line"/>
      <point x="138" y="675"/>
      <point x="173" y="692"/>
      <point x="204" y="712"/>
      <point x="225" y="730"/>
      <point x="225" y="731" type="qcurve"/>
      <point x="281" y="731" type="line"/>
      <point x="205" y="375" type="line"/>
    </contour>
    <contour>
      <point x="50" y="33" type="line"/>
      <point x="388" y="370" type="line"/>
      <point x="715" y="715" type="line"/>
      <point x="750" y="678" type="line"/>
      <point x="416" y="343" type="line"/>
      <point x="84" y="-5" type="line"/>
    </contour>
  </outline>
</glyph>
<glyph name="oneeighth" format="1">
  <advance width="848"/>
  <unicode hex="215B"/>
  <outline>
    <contour>
      <point x="586" y="-5" type="qcurve"/>
      <point x="525" y="-5"/>
      <point x="452" y="56"/>
      <point x="452" y="100" type="qcurve"/>
      <point x="452" y="123"/>
      <point x="471" y="161"/>
      <point x="502" y="190"/>
      <point x="541" y="211"/>
      <point x="561" y="218" type="qcurve"/>
      <point x="538" y="227"/>
      <point x="507" y="262"/>
      <point x="507" y="288" type="qcurve"/>
      <point x="507" y="315"/>
      <point x="538" y="358"/>
      <point x="587" y="389"/>
      <point x="646" y="406"/>
      <point x="674" y="406" type="qcurve"/>
      <point x="698" y="406"/>
      <point x="742" y="393"/>
      <point x="777" y="370"/>
      <point x="798" y="336"/>
      <point x="798" y="315" type="qcurve"/>
      <point x="798" y="279"/>
      <point x="744" y="230"/>
      <point x="707" y="218" type="qcurve"/>
      <point x="736" y="206"/>
      <point x="774" y="162"/>
      <point x="774" y="131" type="qcurve"/>
      <point x="774" y="101"/>
      <point x="742" y="51"/>
      <point x="689" y="15"/>
      <point x="622" y="-5"/>
    </contour>
    <contour>
      <point x="600" y="50" type="qcurve"/>
      <point x="621" y="50"/>
      <point x="663" y="61"/>
      <point x="697" y="82"/>
      <point x="718" y="112"/>
      <point x="718" y="130" type="qcurve"/>
      <point x="718" y="145"/>
      <point x="703" y="168"/>
      <point x="678" y="184"/>
      <point x="646" y="193"/>
      <point x="629" y="193" type="qcurve"/>
      <point x="608" y="193"/>
      <point x="565" y="181"/>
      <point x="530" y="160"/>
      <point x="509" y="129"/>
      <point x="509" y="111" type="qcurve"/>
      <point x="509" y="97"/>
      <point x="525" y="74"/>
      <point x="550" y="58"/>
      <point x="583" y="50"/>
    </contour>
    <contour>
      <point x="639" y="238" type="qcurve"/>
      <point x="656" y="238"/>
      <point x="692" y="247"/>
      <point x="722" y="264"/>
      <point x="741" y="288"/>
      <point x="741" y="303" type="qcurve"/>
      <point x="741" y="326"/>
      <point x="694" y="353"/>
      <point x="663" y="353" type="qcurve"/>
      <point x="644" y="353"/>
      <point x="608" y="344"/>
      <point x="579" y="327"/>
      <point x="562" y="303"/>
      <point x="562" y="288" type="qcurve"/>
      <point x="562" y="276"/>
      <point x="575" y="258"/>
      <point x="597" y="245"/>
      <point x="625" y="238"/>
    </contour>
    <contour>
      <point x="274" y="375" type="line"/>
      <point x="262" y="320" type="line"/>
      <point x="61" y="320" type="line"/>
      <point x="73" y="375" type="line"/>
      <point x="149" y="375" type="line"/>
      <point x="211" y="669" type="line"/>
      <point x="205" y="663"/>
      <point x="180" y="646"/>
      <point x="151" y="631"/>
      <point x="122" y="620"/>
      <point x="110" y="620" type="qcurve"/>
      <point x="122" y="675" type="line"/>
      <point x="137" y="675"/>
      <point x="172" y="692"/>
      <point x="203" y="712"/>
      <point x="224" y="730"/>
      <point x="224" y="731" type="qcurve"/>
      <point x="280" y="731" type="line"/>
      <point x="204" y="375" type="line"/>
    </contour>
    <contour>
      <point x="61" y="33" type="line"/>
      <point x="399" y="370" type="line"/>
      <point x="726" y="715" type="line"/>
      <point x="761" y="678" type="line"/>
      <point x="427" y="343" type="line"/>
      <point x="95" y="-5" type="line"/>
    </contour>
  </outline>
</glyph>
<glyph name="threeeighths" format="1">
  <advance width="854"/>
  <unicode hex="215C"/>
  <outline>
    <contour>
      <point x="191" y="314" type="qcurve"/>
      <point x="131" y="314"/>
      <point x="61" y="360"/>
      <point x="59" y="400" type="qcurve"/>
      <point x="99" y="438" type="line"/>
      <point x="99" y="427"/>
      <point x="112" y="403"/>
      <point x="137" y="383"/>
      <point x="176" y="370"/>
      <point x="202" y="370" type="qcurve"/>
      <point x="226" y="370"/>
      <point x="270" y="380"/>
      <point x="303" y="400"/>
      <point x="323" y="426"/>
      <point x="323" y="443" type="qcurve"/>
      <point x="323" y="472"/>
      <point x="255" y="503"/>
      <point x="195" y="503" type="qcurve"/>
      <point x="173" y="503" type="line"/>
      <point x="183" y="554" type="line"/>
      <point x="205" y="554" type="line"/>
      <point x="271" y="554"/>
      <point x="348" y="589"/>
      <point x="348" y="625" type="qcurve"/>
      <point x="348" y="651"/>
      <point x="300" y="680"/>
      <point x="267" y="680" type="qcurve"/>
      <point x="229" y="680"/>
      <point x="166" y="650"/>
      <point x="146" y="626" type="qcurve"/>
      <point x="119" y="669" type="line"/>
      <point x="144" y="698"/>
      <point x="231" y="731"/>
      <point x="278" y="731" type="qcurve"/>
      <point x="337" y="731"/>
      <point x="408" y="677"/>
      <point x="408" y="635" type="qcurve"/>
      <point x="408" y="594"/>
      <point x="351" y="542"/>
      <point x="299" y="531" type="qcurve"/>
      <point x="337" y="525"/>
      <point x="378" y="477"/>
      <point x="378" y="445" type="qcurve"/>
      <point x="378" y="413"/>
      <point x="346" y="365"/>
      <point x="293" y="331"/>
      <point x="226" y="314"/>
    </contour>
    <contour>
      <point x="591" y="-5" type="qcurve"/>
      <point x="530" y="-5"/>
      <point x="457" y="56"/>
      <point x="457" y="100" type="qcurve"/>
      <point x="457" y="123"/>
      <point x="476" y="161"/>
      <point x="507" y="190"/>
      <point x="546" y="211"/>
      <point x="566" y="218" type="qcurve"/>
      <point x="543" y="227"/>
      <point x="512" y="262"/>
      <point x="512" y="288" type="qcurve"/>
      <point x="512" y="315"/>
      <point x="543" y="358"/>
      <point x="592" y="389"/>
      <point x="651" y="406"/>
      <point x="679" y="406" type="qcurve"/>
      <point x="703" y="406"/>
      <point x="747" y="393"/>
      <point x="782" y="370"/>
      <point x="803" y="336"/>
      <point x="803" y="315" type="qcurve"/>
      <point x="803" y="279"/>
      <point x="749" y="230"/>
      <point x="712" y="218" type="qcurve"/>
      <point x="741" y="206"/>
      <point x="779" y="162"/>
      <point x="779" y="131" type="qcurve"/>
      <point x="779" y="101"/>
      <point x="747" y="51"/>
      <point x="694" y="15"/>
      <point x="627" y="-5"/>
    </contour>
    <contour>
      <point x="605" y="50" type="qcurve"/>
      <point x="626" y="50"/>
      <point x="668" y="61"/>
      <point x="702" y="82"/>
      <point x="723" y="112"/>
      <point x="723" y="130" type="qcurve"/>
      <point x="723" y="145"/>
      <point x="708" y="168"/>
      <point x="683" y="184"/>
      <point x="651" y="193"/>
      <point x="634" y="193" type="qcurve"/>
      <point x="613" y="193"/>
      <point x="570" y="181"/>
      <point x="535" y="160"/>
      <point x="514" y="129"/>
      <point x="514" y="111" type="qcurve"/>
      <point x="514" y="97"/>
      <point x="530" y="74"/>
      <point x="555" y="58"/>
      <point x="588" y="50"/>
    </contour>
    <contour>
      <point x="644" y="238" type="qcurve"/>
      <point x="661" y="238"/>
      <point x="697" y="247"/>
      <point x="727" y="264"/>
      <point x="746" y="288"/>
      <point x="746" y="303" type="qcurve"/>
      <point x="746" y="326"/>
      <point x="699" y="353"/>
      <point x="668" y="353" type="qcurve"/>
      <point x="649" y="353"/>
      <point x="613" y="344"/>
      <point x="584" y="327"/>
      <point x="567" y="303"/>
      <point x="567" y="288" type="qcurve"/>
      <point x="567" y="276"/>
      <point x="580" y="258"/>
      <point x="602" y="245"/>
      <point x="630" y="238"/>
    </contour>
    <contour>
      <point x="86" y="33" type="line"/>
      <point x="424" y="370" type="line"/>
      <point x="751" y="715" type="line"/>
      <point x="786" y="678" type="line"/>
      <point x="452" y="343" type="line"/>
      <point x="120" y="-5" type="line"/>
    </contour>
  </outline>
</glyph>
<glyph name="fiveeighths" format="1">
  <advance width="864"/>
  <unicode hex="215D"/>
  <outline>
    <contour>
      <point x="601" y="-5" type="qcurve"/>
      <point x="540" y="-5"/>
      <point x="467" y="56"/>
      <point x="467" y="100" type="qcurve"/>
      <point x="467" y="123"/>
      <point x="486" y="161"/>
      <point x="517" y="190"/>
      <point x="556" y="211"/>
      <point x="576" y="218" type="qcurve"/>
      <point x="553" y="227"/>
      <point x="522" y="262"/>
      <point x="522" y="288" type="qcurve"/>
      <point x="522" y="315"/>
      <point x="553" y="358"/>
      <point x="602" y="389"/>
      <point x="661" y="406"/>
      <point x="689" y="406" type="qcurve"/>
      <point x="713" y="406"/>
      <point x="757" y="393"/>
      <point x="792" y="370"/>
      <point x="813" y="336"/>
      <point x="813" y="315" type="qcurve"/>
      <point x="813" y="279"/>
      <point x="759" y="230"/>
      <point x="722" y="218" type="qcurve"/>
      <point x="751" y="206"/>
      <point x="789" y="162"/>
      <point x="789" y="131" type="qcurve"/>
      <point x="789" y="101"/>
      <point x="757" y="51"/>
      <point x="704" y="15"/>
      <point x="637" y="-5"/>
    </contour>
    <contour>
      <point x="615" y="50" type="qcurve"/>
      <point x="636" y="50"/>
      <point x="678" y="61"/>
      <point x="712" y="82"/>
      <point x="733" y="112"/>
      <point x="733" y="130" type="qcurve"/>
      <point x="733" y="145"/>
      <point x="718" y="168"/>
      <point x="693" y="184"/>
      <point x="661" y="193"/>
      <point x="644" y="193" type="qcurve"/>
      <point x="623" y="193"/>
      <point x="580" y="181"/>
      <point x="545" y="160"/>
      <point x="524" y="129"/>
      <point x="524" y="111" type="qcurve"/>
      <point x="524" y="97"/>
      <point x="540" y="74"/>
      <point x="565" y="58"/>
      <point x="598" y="50"/>
    </contour>
    <contour>
      <point x="654" y="238" type="qcurve"/>
      <point x="671" y="238"/>
      <point x="707" y="247"/>
      <point x="737" y="264"/>
      <point x="756" y="288"/>
      <point x="756" y="303" type="qcurve"/>
      <point x="756" y="326"/>
      <point x="709" y="353"/>
      <point x="678" y="353" type="qcurve"/>
      <point x="659" y="353"/>
      <point x="623" y="344"/>
      <point x="594" y="327"/>
      <point x="577" y="303"/>
      <point x="577" y="288" type="qcurve"/>
      <point x="577" y="276"/>
      <point x="590" y="258"/>
      <point x="612" y="245"/>
      <point x="640" y="238"/>
    </contour>
    <contour>
      <point x="253" y="584" type="qcurve"/>
      <point x="309" y="584"/>
      <point x="377" y="525"/>
      <point x="377" y="477" type="qcurve"/>
      <point x="377" y="442"/>
      <point x="345" y="384"/>
      <point x="292" y="342"/>
      <point x="222" y="319"/>
      <point x="184" y="319" type="qcurve"/>
      <point x="136" y="319"/>
      <point x="67" y="359"/>
      <point x="55" y="393" type="qcurve"/>
      <point x="97" y="427" type="line"/>
      <point x="109" y="401"/>
      <point x="162" y="372"/>
      <point x="199" y="372" type="qcurve"/>
      <point x="223" y="372"/>
      <point x="267" y="386"/>
      <point x="300" y="412"/>
      <point x="320" y="448"/>
      <point x="320" y="471" type="qcurve"/>
      <point x="320" y="506"/>
      <point x="270" y="541"/>
      <point x="239" y="541" type="qcurve"/>
      <point x="211" y="541"/>
      <point x="154" y="515"/>
      <point x="136" y="494" type="qcurve"/>
      <point x="86" y="494" type="line"/>
      <point x="95" y="515"/>
      <point x="124" y="582"/>
      <point x="155" y="652"/>
      <point x="182" y="714"/>
      <point x="188" y="730" type="qcurve"/>
      <point x="407" y="730" type="line"/>
      <point x="395" y="675" type="line"/>
      <point x="217" y="675" type="line"/>
      <point x="164" y="558" type="line"/>
      <point x="181" y="570"/>
      <point x="227" y="584"/>
    </contour>
    <contour>
      <point x="86" y="33" type="line"/>
      <point x="424" y="370" type="line"/>
      <point x="751" y="715" type="line"/>
      <point x="786" y="678" type="line"/>
      <point x="452" y="343" type="line"/>
      <point x="120" y="-5" type="line"/>
    </contour>
  </outline>
</glyph>
<glyph name="seveneighths" format="1">
  <advance width="835"/>
  <unicode hex="215E"/>
  <outline>
    <contour>
      <point x="573" y="-5" type="qcurve"/>
      <point x="512" y="-5"/>
      <point x="439" y="56"/>
      <point x="439" y="100" type="qcurve"/>
      <point x="439" y="123"/>
      <point x="458" y="161"/>
      <point x="489" y="190"/>
      <point x="528" y="211"/>
      <point x="548" y="218" type="qcurve"/>
      <point x="525" y="227"/>
      <point x="494" y="262"/>
      <point x="494" y="288" type="qcurve"/>
      <point x="494" y="315"/>
      <point x="525" y="358"/>
      <point x="574" y="389"/>
      <point x="633" y="406"/>
      <point x="661" y="406" type="qcurve"/>
      <point x="685" y="406"/>
      <point x="729" y="393"/>
      <point x="764" y="370"/>
      <point x="785" y="336"/>
      <point x="785" y="315" type="qcurve"/>
      <point x="785" y="279"/>
      <point x="731" y="230"/>
      <point x="694" y="218" type="qcurve"/>
      <point x="723" y="206"/>
      <point x="761" y="162"/>
      <point x="761" y="131" type="qcurve"/>
      <point x="761" y="101"/>
      <point x="729" y="51"/>
      <point x="676" y="15"/>
      <point x="609" y="-5"/>
    </contour>
    <contour>
      <point x="587" y="50" type="qcurve"/>
      <point x="608" y="50"/>
      <point x="650" y="61"/>
      <point x="684" y="82"/>
      <point x="705" y="112"/>
      <point x="705" y="130" type="qcurve"/>
      <point x="705" y="145"/>
      <point x="690" y="168"/>
      <point x="665" y="184"/>
      <point x="633" y="193"/>
      <point x="616" y="193" type="qcurve"/>
      <point x="595" y="193"/>
      <point x="552" y="181"/>
      <point x="517" y="160"/>
      <point x="496" y="129"/>
      <point x="496" y="111" type="qcurve"/>
      <point x="496" y="97"/>
      <point x="512" y="74"/>
      <point x="537" y="58"/>
      <point x="570" y="50"/>
    </contour>
    <contour>
      <point x="626" y="238" type="qcurve"/>
      <point x="643" y="238"/>
      <point x="679" y="247"/>
      <point x="709" y="264"/>
      <point x="728" y="288"/>
      <point x="728" y="303" type="qcurve"/>
      <point x="728" y="326"/>
      <point x="681" y="353"/>
      <point x="650" y="353" type="qcurve"/>
      <point x="631" y="353"/>
      <point x="595" y="344"/>
      <point x="566" y="327"/>
      <point x="549" y="303"/>
      <point x="549" y="288" type="qcurve"/>
      <point x="549" y="276"/>
      <point x="562" y="258"/>
      <point x="584" y="245"/>
      <point x="612" y="238"/>
    </contour>
    <contour>
      <point x="16" y="33" type="line"/>
      <point x="354" y="370" type="line"/>
      <point x="681" y="715" type="line"/>
      <point x="716" y="678" type="line"/>
      <point x="382" y="343" type="line"/>
      <point x="50" y="-5" type="line"/>
    </contour>
    <contour>
      <point x="352" y="675" type="line"/>
      <point x="119" y="675" type="line"/>
      <point x="130" y="730" type="line"/>
      <point x="450" y="730" type="line"/>
      <point x="136" y="325" type="line"/>
      <point x="74" y="325" type="line"/>
    </contour>
  </outline>
</glyph>
<glyph name="infinity" format="1">
  <advance width="688"/>
  <unicode hex="221E"/>
  <outline>
    <contour>
      <point x="213" y="517" type="qcurve"/>
      <point x="241" y="517"/>
      <point x="284" y="502"/>
      <point x="317" y="477"/>
      <point x="342" y="444"/>
      <point x="353" y="425" type="qcurve"/>
      <point x="364" y="444"/>
      <point x="389" y="477"/>
      <point x="422" y="502"/>
      <point x="464" y="517"/>
      <point x="493" y="517" type="qcurve"/>
      <point x="529" y="517"/>
      <point x="588" y="491"/>
      <point x="630" y="446"/>
      <point x="652" y="385"/>
      <point x="652" y="351" type="qcurve"/>
      <point x="652" y="317"/>
      <point x="628" y="257"/>
      <point x="585" y="212"/>
      <point x="526" y="186"/>
      <point x="492" y="186" type="qcurve"/>
      <point x="438" y="186"/>
      <point x="376" y="235"/>
      <point x="355" y="269" type="qcurve"/>
      <point x="335" y="235"/>
      <point x="271" y="186"/>
      <point x="213" y="186" type="qcurve"/>
      <point x="183" y="186"/>
      <point x="125" y="212"/>
      <point x="80" y="257"/>
      <point x="53" y="318"/>
      <point x="53" y="352" type="qcurve"/>
      <point x="53" y="386"/>
      <point x="77" y="446"/>
      <point x="120" y="491"/>
      <point x="179" y="517"/>
    </contour>
    <contour>
      <point x="213" y="256" type="qcurve"/>
      <point x="234" y="256"/>
      <point x="267" y="271"/>
      <point x="294" y="297"/>
      <point x="315" y="331"/>
      <point x="325" y="350" type="qcurve"/>
      <point x="315" y="369"/>
      <point x="294" y="404"/>
      <point x="268" y="431"/>
      <point x="235" y="446"/>
      <point x="213" y="446" type="qcurve"/>
      <point x="197" y="446"/>
      <point x="165" y="435"/>
      <point x="139" y="413"/>
      <point x="123" y="377"/>
      <point x="123" y="352" type="qcurve"/>
      <point x="123" y="326"/>
      <point x="139" y="290"/>
      <point x="165" y="267"/>
      <point x="197" y="256"/>
    </contour>
    <contour>
      <point x="493" y="256" type="qcurve"/>
      <point x="509" y="256"/>
      <point x="541" y="267"/>
      <point x="566" y="290"/>
      <point x="582" y="326"/>
      <point x="582" y="352" type="qcurve"/>
      <point x="582" y="377"/>
      <point x="566" y="413"/>
      <point x="541" y="435"/>
      <point x="509" y="446"/>
      <point x="493" y="446" type="qcurve"/>
      <point x="470" y="446"/>
      <point x="437" y="430"/>
      <point x="412" y="403"/>
      <point x="392" y="366"/>
      <point x="383" y="346" type="qcurve"/>
      <point x="402" y="309"/>
      <point x="451" y="256"/>
    </contour>
  </outline>
</glyph>
<glyph name="integral" format="1">
  <advance width="311"/>
  <unicode hex="222B"/>
  <outline>
    <contour>
      <point x="104" y="669" type="line"/>
      <point x="102" y="704"/>
      <point x="100" y="731"/>
      <point x="100" y="737" type="qcurve"/>
      <point x="100" y="775"/>
      <point x="156" y="820"/>
      <point x="207" y="820" type="qcurve"/>
      <point x="230" y="820"/>
      <point x="290" y="808"/>
      <point x="313" y="799" type="qcurve"/>
      <point x="292" y="738" type="line"/>
      <point x="278" y="743"/>
      <point x="248" y="750"/>
      <point x="237" y="750" type="qcurve"/>
      <point x="211" y="750"/>
      <point x="180" y="731"/>
      <point x="180" y="711" type="qcurve"/>
      <point x="180" y="702"/>
      <point x="181" y="683"/>
      <point x="183" y="653" type="qcurve"/>
      <point x="220" y="-22" type="line"/>
      <point x="221" y="-36"/>
      <point x="222" y="-53"/>
      <point x="222" y="-62"/>
      <point x="222" y="-65"/>
      <point x="222" y="-66" type="qcurve"/>
      <point x="222" y="-114"/>
      <point x="167" y="-167"/>
      <point x="117" y="-167" type="qcurve"/>
      <point x="94" y="-167"/>
      <point x="35" y="-155"/>
      <point x="12" y="-146" type="qcurve"/>
      <point x="33" y="-85" type="line"/>
      <point x="47" y="-90"/>
      <point x="76" y="-97"/>
      <point x="87" y="-97" type="qcurve"/>
      <point x="113" y="-97"/>
      <point x="143" y="-66"/>
      <point x="143" y="-40" type="qcurve"/>
      <point x="143" y="-39"/>
      <point x="143" y="-31"/>
      <point x="142" y="-12" type="qcurve"/>
    </contour>
  </outline>
</glyph>
<glyph name="approxequal" format="1">
  <advance width="442"/>
  <unicode hex="2248"/>
  <outline>
    <contour>
      <point x="369" y="335" type="line"/>
      <point x="355" y="316"/>
      <point x="311" y="289"/>
      <point x="277" y="289" type="qcurve"/>
      <point x="254" y="289"/>
      <point x="221" y="302"/>
      <point x="192" y="318"/>
      <point x="164" y="331"/>
      <point x="148" y="331" type="qcurve"/>
      <point x="128" y="331"/>
      <point x="105" y="315"/>
      <point x="100" y="305" type="qcurve"/>
      <point x="60" y="349" type="line"/>
      <point x="72" y="368"/>
      <point x="113" y="396"/>
      <point x="146" y="396" type="qcurve"/>
      <point x="167" y="396"/>
      <point x="199" y="383"/>
      <point x="228" y="366"/>
      <point x="257" y="353"/>
      <point x="275" y="353" type="qcurve"/>
      <point x="298" y="353"/>
      <point x="323" y="367"/>
      <point x="331" y="375" type="qcurve"/>
    </contour>
    <contour>
      <point x="369" y="198" type="line"/>
      <point x="355" y="181"/>
      <point x="311" y="157"/>
      <point x="277" y="157" type="qcurve"/>
      <point x="254" y="157"/>
      <point x="221" y="170"/>
      <point x="192" y="186"/>
      <point x="164" y="199"/>
      <point x="148" y="199" type="qcurve"/>
      <point x="128" y="199"/>
      <point x="105" y="183"/>
      <point x="100" y="173" type="qcurve"/>
      <point x="60" y="217" type="line"/>
      <point x="72" y="236"/>
      <point x="113" y="264"/>
      <point x="146" y="264" type="qcurve"/>
      <point x="167" y="264"/>
      <point x="199" y="251"/>
      <point x="228" y="234"/>
      <point x="257" y="221"/>
      <point x="275" y="221" type="qcurve"/>
      <point x="298" y="221"/>
      <point x="323" y="234"/>
      <point x="331" y="243" type="qcurve"/>
    </contour>
  </outline>
</glyph>
<glyph name="f_i" format="1">
  <advance width="506"/>
  <unicode hex="FB01"/>
  <outline>
    <contour>
      <point x="126" y="453" type="line"/>
      <point x="59" y="453" type="line"/>
      <point x="74" y="522" type="line"/>
      <point x="141" y="522" type="line"/>
      <point x="143" y="533" type="line"/>
      <point x="150" y="572"/>
      <point x="189" y="646"/>
      <point x="249" y="704"/>
      <point x="326" y="740"/>
      <point x="373" y="740" type="qcurve"/>
      <point x="426" y="740"/>
      <point x="499" y="705"/>
      <point x="520" y="688" type="qcurve"/>
      <point x="469" y="623" type="line"/>
      <point x="453" y="640"/>
      <point x="397" y="664"/>
      <point x="362" y="664" type="qcurve"/>
      <point x="335" y="664"/>
      <point x="291" y="641"/>
      <point x="258" y="605"/>
      <point x="237" y="559"/>
      <point x="232" y="536" type="qcurve"/>
      <point x="229" y="522" type="line"/>
      <point x="484" y="522" type="line"/>
      <point x="373" y="0" type="line"/>
      <point x="285" y="0" type="line"/>
      <point x="381" y="453" type="line"/>
      <point x="214" y="453" type="line"/>
      <point x="118" y="0" type="line"/>
      <point x="30" y="0" type="line"/>
    </contour>
  </outline>
</glyph>
<glyph name="s_t" format="1">
  <advance width="791"/>
  <unicode hex="FB06"/>
  <outline>
    <contour>
      <point x="179" y="-10" type="qcurve"/>
      <point x="116" y="-10"/>
      <point x="12" y="33"/>
      <point x="-19" y="64" type="qcurve"/>
      <point x="29" y="124" type="line"/>
      <point x="103" y="55"/>
      <point x="190" y="55" type="qcurve"/>
      <point x="215" y="55"/>
      <point x="264" y="67"/>
      <point x="302" y="91"/>
      <point x="325" y="126"/>
      <point x="325" y="149" type="qcurve"/>
      <point x="325" y="169"/>
      <point x="307" y="195"/>
      <point x="275" y="212"/>
      <point x="233" y="223"/>
      <point x="208" y="228" type="qcurve"/>
      <point x="176" y="235"/>
      <point x="120" y="249"/>
      <point x="79" y="275"/>
      <point x="56" y="316"/>
      <point x="56" y="349" type="qcurve"/>
      <point x="56" y="393"/>
      <point x="97" y="461"/>
      <point x="161" y="507"/>
      <point x="240" y="531"/>
      <point x="278" y="531" type="qcurve"/>
      <point x="307" y="531"/>
      <point x="369" y="517"/>
      <point x="391" y="500" type="qcurve"/>
      <point x="387" y="517"/>
      <point x="381" y="554"/>
      <point x="381" y="574" type="qcurve"/>
      <point x="381" y="605"/>
      <point x="401" y="666"/>
      <point x="447" y="714"/>
      <point x="523" y="744"/>
      <point x="579" y="744" type="qcurve"/>
      <point x="649" y="744"/>
      <point x="700" y="695"/>
      <point x="700" y="647" type="qcurve"/>
      <point x="700" y="621"/>
      <point x="690" y="560"/>
      <point x="682" y="522" type="qcurve"/>
      <point x="792" y="522" type="line"/>
      <point x="777" y="453" type="line"/>
      <point x="668" y="453" type="line"/>
      <point x="599" y="129" type="line"/>
      <point x="598" y="124"/>
      <point x="597" y="118"/>
      <point x="597" y="113" type="qcurve"/>
      <point x="597" y="93"/>
      <point x="623" y="74"/>
      <point x="643" y="74" type="qcurve"/>
      <point x="666" y="74"/>
      <point x="710" y="91"/>
      <point x="720" y="96" type="qcurve"/>
      <point x="724" y="26" type="line"/>
      <point x="715" y="22"/>
      <point x="687" y="11"/>
      <point x="653" y="0"/>
      <point x="615" y="-7"/>
      <point x="596" y="-7" type="qcurve"/>
      <point x="556" y="-7"/>
      <point x="502" y="31"/>
      <point x="502" y="71" type="qcurve"/>
      <point x="502" y="83"/>
      <point x="507" y="108"/>
      <point x="510" y="123" type="qcurve"/>
      <point x="580" y="453" type="line"/>
      <point x="512" y="453" type="line"/>
      <point x="527" y="522" type="line"/>
      <point x="594" y="522" type="line"/>
      <point x="602" y="561"/>
      <point x="611" y="618"/>
      <point x="611" y="638" type="qcurve"/>
      <point x="611" y="673"/>
      <point x="582" y="700"/>
      <point x="548" y="700" type="qcurve"/>
      <point x="514" y="700"/>
      <point x="466" y="679"/>
      <point x="436" y="643"/>
      <point x="422" y="596"/>
      <point x="422" y="569" type="qcurve"/>
      <point x="422" y="550"/>
      <point x="428" y="514"/>
      <point x="436" y="486"/>
      <point x="444" y="466"/>
      <point x="446" y="463" type="qcurve"/>
      <point x="396" y="410" type="line"/>
      <point x="369" y="443"/>
      <point x="301" y="467"/>
      <point x="269" y="467" type="qcurve"/>
      <point x="245" y="467"/>
      <point x="198" y="456"/>
      <point x="162" y="433"/>
      <point x="139" y="396"/>
      <point x="139" y="371" type="qcurve"/>
      <point x="139" y="348"/>
      <point x="157" y="321"/>
      <point x="191" y="304"/>
      <point x="240" y="293"/>
      <point x="271" y="287" type="qcurve"/>
      <point x="301" y="281"/>
      <point x="352" y="267"/>
      <point x="389" y="242"/>
      <point x="410" y="202"/>
      <point x="410" y="171" type="qcurve"/>
      <point x="410" y="126"/>
      <point x="370" y="59"/>
      <point x="305" y="13"/>
      <point x="222" y="-10"/>
    </contour>
  </outline>
</glyph>
<glyph name="D.sc" format="1">
  <advance width="604"/>
  <outline>
    <contour>
      <point x="294" y="707" type="move" name="top"/>
    </contour>
    <contour>
      <point x="131" y="551" type="line"/>
      <point x="333" y="551" type="line"/>
      <point x="391" y="551"/>
      <point x="478" y="517"/>
      <point x="534" y="459"/>
      <point x="562" y="380"/>
      <point x="562" y="334" type="qcurve"/>
      <point x="562" y="261"/>
      <point x="510" y="139"/>
      <point x="417" y="50"/>
      <point x="290" y="0"/>
      <point x="216" y="0" type="qcurve"/>
      <point x="14" y="0" type="line"/>
    </contour>
    <contour>
      <point x="231" y="71" type="line"/>
      <point x="289" y="71"/>
      <point x="381" y="112"/>
      <point x="445" y="181"/>
      <point x="479" y="272"/>
      <point x="479" y="322" type="qcurve"/>
      <point x="479" y="392"/>
      <point x="398" y="480"/>
      <point x="318" y="480" type="qcurve"/>
      <point x="196" y="480" type="line"/>
      <point x="109" y="71" type="line"/>
    </contour>
  </outline>
</glyph>
<glyph name="E.sc" format="1">
  <advance width="510"/>
  <outline>
    <contour>
      <point x="285" y="707" type="move" name="top"/>
    </contour>
    <contour>
      <point x="285" y="0" type="move" name="bottom"/>
    </contour>
    <contour>
      <point x="131" y="551" type="line"/>
      <point x="517" y="551" type="line"/>
      <point x="502" y="480" type="line"/>
      <point x="196" y="480" type="line"/>
      <point x="161" y="314" type="line"/>
      <point x="427" y="314" type="line"/>
      <point x="413" y="248" type="line"/>
      <point x="147" y="248" type="line"/>
      <point x="109" y="71" type="line"/>
      <point x="422" y="71" type="line"/>
      <point x="407" y="0" type="line"/>
      <point x="14" y="0" type="line"/>
    </contour>
  </outline>
</glyph>
<glyph name="F.sc" format="1">
  <advance width="495"/>
  <outline>
    <contour>
      <point x="131" y="551" type="line"/>
      <point x="513" y="551" type="line"/>
      <point x="498" y="480" type="line"/>
      <point x="196" y="480" type="line"/>
      <point x="159" y="308" type="line"/>
      <point x="414" y="308" type="line"/>
      <point x="399" y="241" type="line"/>
      <point x="145" y="241" type="line"/>
      <point x="94" y="0" type="line"/>
      <point x="14" y="0" type="line"/>
    </contour>
  </outline>
</glyph>
<glyph name="I.sc" format="1">
  <advance width="235"/>
  <outline>
    <contour>
      <point x="50" y="707" type="move" name="top"/>
    </contour>
    <contour>
      <point x="51" y="0" type="move" name="bottom"/>
    </contour>
    <contour>
      <point x="131" y="551" type="line"/>
      <point x="211" y="551" type="line"/>
      <point x="94" y="0" type="line"/>
      <point x="14" y="0" type="line"/>
    </contour>
  </outline>
</glyph>
<glyph name="O.sc" format="1">
  <advance width="625"/>
  <outline>
    <contour>
      <point x="315" y="707" type="move" name="top"/>
    </contour>
    <contour>
      <point x="315" y="0" type="move" name="bottom"/>
    </contour>
    <contour>
      <point x="247" y="-4" type="qcurve"/>
      <point x="195" y="-4"/>
      <point x="114" y="34"/>
      <point x="58" y="99"/>
      <point x="29" y="183"/>
      <point x="29" y="228" type="qcurve"/>
      <point x="29" y="290"/>
      <point x="85" y="408"/>
      <point x="178" y="499"/>
      <point x="301" y="554"/>
      <point x="367" y="554" type="qcurve"/>
      <point x="419" y="554"/>
      <point x="500" y="515"/>
      <point x="556" y="450"/>
      <point x="584" y="366"/>
      <point x="584" y="321" type="qcurve"/>
      <point x="584" y="259"/>
      <point x="528" y="142"/>
      <point x="435" y="51"/>
      <point x="313" y="-4"/>
    </contour>
    <contour>
      <point x="264" y="68" type="qcurve"/>
      <point x="315" y="68"/>
      <point x="402" y="113"/>
      <point x="466" y="183"/>
      <point x="502" y="271"/>
      <point x="502" y="314" type="qcurve"/>
      <point x="502" y="348"/>
      <point x="482" y="409"/>
      <point x="443" y="455"/>
      <point x="387" y="482"/>
      <point x="351" y="482" type="qcurve"/>
      <point x="300" y="482"/>
      <point x="213" y="438"/>
      <point x="148" y="368"/>
      <point x="111" y="280"/>
      <point x="111" y="236" type="qcurve"/>
      <point x="111" y="203"/>
      <point x="131" y="142"/>
      <point x="170" y="95"/>
      <point x="227" y="68"/>
    </contour>
  </outline>
</glyph>
<glyph name="U.sc" format="1">
  <advance width="625"/>
  <outline>
    <contour>
      <point x="319" y="707" type="move" name="top"/>
    </contour>
    <contour>
      <point x="319" y="0" type="move" name="bottom"/>
    </contour>
    <contour>
      <point x="249" y="-4" type="qcurve"/>
      <point x="195" y="-4"/>
      <point x="120" y="26"/>
      <point x="74" y="78"/>
      <point x="53" y="147"/>
      <point x="53" y="187" type="qcurve"/>
      <point x="53" y="207"/>
      <point x="58" y="250"/>
      <point x="63" y="272" type="qcurve"/>
      <point x="122" y="551" type="line"/>
      <point x="202" y="551" type="line"/>
      <point x="143" y="272" type="line"/>
      <point x="135" y="234"/>
      <point x="135" y="202" type="qcurve"/>
      <point x="135" y="174"/>
      <point x="148" y="125"/>
      <point x="178" y="89"/>
      <point x="227" y="68"/>
      <point x="263" y="68" type="qcurve"/>
      <point x="311" y="68"/>
      <point x="382" y="103"/>
      <point x="432" y="160"/>
      <point x="463" y="234"/>
      <point x="471" y="272" type="qcurve"/>
      <point x="530" y="551" type="line"/>
      <point x="610" y="551" type="line"/>
      <point x="551" y="272" type="line"/>
      <point x="539" y="216"/>
      <point x="491" y="115"/>
      <point x="416" y="40"/>
      <point x="315" y="-4"/>
    </contour>
  </outline>
</glyph>
<glyph name="eight.lnum" format="1">
  <advance width="576"/>
  <outline>
    <contour>
      <point x="509" y="233" type="qcurve"/>
      <point x="509" y="180"/>
      <point x="460" y="91"/>
      <point x="379" y="27"/>
      <point x="275" y="-8"/>
      <point x="220" y="-8" type="qcurve"/>
      <point x="176" y="-8"/>
      <point x="103" y="19"/>
      <point x="52" y="67"/>
      <point x="24" y="132"/>
      <point x="24" y="170" type="qcurve"/>
      <point x="24" y="211"/>
      <point x="55" y="279"/>
      <point x="103" y="331"/>
      <point x="162" y="369"/>
      <point x="190" y="380" type="qcurve"/>
      <point x="158" y="396"/>
      <point x="116" y="459"/>
      <point x="116" y="500" type="qcurve"/>
      <point x="116" y="549"/>
      <point x="165" y="627"/>
      <point x="241" y="681"/>
      <point x="332" y="710"/>
      <point x="374" y="710" type="qcurve"/>
      <point x="408" y="710"/>
      <point x="474" y="690"/>
      <point x="525" y="650"/>
      <point x="556" y="592"/>
      <point x="556" y="555" type="qcurve"/>
      <point x="556" y="523"/>
      <point x="532" y="469"/>
      <point x="493" y="425"/>
      <point x="443" y="391"/>
      <point x="417" y="380" type="qcurve"/>
      <point x="456" y="362"/>
      <point x="509" y="285"/>
    </contour>
    <contour>
      <point x="420" y="230" type="qcurve"/>
      <point x="420" y="257"/>
      <point x="399" y="299"/>
      <point x="364" y="328"/>
      <point x="319" y="343"/>
      <point x="295" y="343" type="qcurve"/>
      <point x="264" y="343"/>
      <point x="200" y="320"/>
      <point x="149" y="278"/>
      <point x="116" y="219"/>
      <point x="116" y="184" type="qcurve"/>
      <point x="116" y="158"/>
      <point x="137" y="116"/>
      <point x="171" y="87"/>
      <point x="215" y="71"/>
      <point x="239" y="71" type="qcurve"/>
      <point x="270" y="71"/>
      <point x="334" y="94"/>
      <point x="386" y="136"/>
      <point x="420" y="195"/>
    </contour>
    <contour>
      <point x="205" y="503" type="qcurve"/>
      <point x="205" y="481"/>
      <point x="223" y="447"/>
      <point x="253" y="423"/>
      <point x="291" y="411"/>
      <point x="311" y="411" type="qcurve"/>
      <point x="335" y="411"/>
      <point x="389" y="428"/>
      <point x="434" y="461"/>
      <point x="464" y="510"/>
      <point x="464" y="541" type="qcurve"/>
      <point x="464" y="583"/>
      <point x="402" y="631"/>
      <point x="357" y="631" type="qcurve"/>
      <point x="329" y="631"/>
      <point x="275" y="613"/>
      <point x="232" y="580"/>
      <point x="205" y="532"/>
    </contour>
  </outline>
</glyph>
<glyph name="one.lnum" format="1">
  <advance width="424"/>
  <outline>
    <contour>
      <point x="18" y="80" type="line"/>
      <point x="147" y="80" type="line"/>
      <point x="263" y="625" type="line"/>
      <point x="253" y="613"/>
      <point x="212" y="584"/>
      <point x="163" y="557"/>
      <point x="113" y="539"/>
      <point x="94" y="539" type="qcurve"/>
      <point x="111" y="621" type="line"/>
      <point x="136" y="621"/>
      <point x="196" y="650"/>
      <point x="247" y="686"/>
      <point x="282" y="716"/>
      <point x="283" y="718" type="qcurve"/>
      <point x="373" y="718" type="line"/>
      <point x="237" y="80" type="line"/>
      <point x="358" y="80" type="line"/>
      <point x="341" y="0" type="line"/>
      <point x="1" y="0" type="line"/>
    </contour>
  </outline>
</glyph>
<glyph name="q.alt" format="1">
  <advance width="599"/>
  <outline>
    <contour>
      <point x="400" y="103" type="line"/>
      <point x="355" y="47"/>
      <point x="251" y="-10"/>
      <point x="194" y="-10" type="qcurve"/>
      <point x="153" y="-10"/>
      <point x="89" y="24"/>
      <point x="45" y="82"/>
      <point x="22" y="159"/>
      <point x="22" y="203" type="qcurve"/>
      <point x="22" y="269"/>
      <point x="73" y="388"/>
      <point x="157" y="478"/>
      <point x="264" y="531"/>
      <point x="321" y="531" type="qcurve"/>
      <point x="379" y="531"/>
      <point x="461" y="471"/>
      <point x="478" y="423" type="qcurve"/>
      <point x="499" y="522" type="line"/>
      <point x="577" y="522" type="line"/>
      <point x="421" y="-213" type="line"/>
      <point x="333" y="-213" type="line"/>
    </contour>
    <contour>
      <point x="240" y="66" type="qcurve"/>
      <point x="292" y="66"/>
      <point x="382" y="131"/>
      <point x="416" y="178" type="qcurve"/>
      <point x="448" y="328" type="line"/>
      <point x="448" y="353"/>
      <point x="428" y="400"/>
      <point x="394" y="434"/>
      <point x="350" y="455"/>
      <point x="325" y="455" type="qcurve"/>
      <point x="284" y="455"/>
      <point x="207" y="414"/>
      <point x="149" y="347"/>
      <point x="114" y="262"/>
      <point x="114" y="218" type="qcurve"/>
      <point x="114" y="186"/>
      <point x="131" y="131"/>
      <point x="164" y="90"/>
      <point x="210" y="66"/>
    </contour>
  </outline>
</glyph>
<glyph name="seven.lnum" format="1">
  <advance width="514"/>
  <outline>
    <contour>
      <point x="440" y="629" type="line"/>
      <point x="98" y="629" type="line"/>
      <point x="115" y="710" type="line"/>
      <point x="597" y="710" type="line"/>
      <point x="106" y="0" type="line"/>
      <point x="7" y="0" type="line"/>
    </contour>
  </outline>
</glyph>
<glyph name="six.lnum" format="1">
  <advance width="591"/>
  <outline>
    <contour>
      <point x="238" y="-10" type="qcurve"/>
      <point x="147" y="-10"/>
      <point x="47" y="110"/>
      <point x="47" y="216" type="qcurve"/>
      <point x="47" y="316"/>
      <point x="99" y="497"/>
      <point x="192" y="634"/>
      <point x="322" y="715"/>
      <point x="401" y="715" type="qcurve"/>
      <point x="467" y="715"/>
      <point x="559" y="649"/>
      <point x="578" y="589" type="qcurve"/>
      <point x="513" y="536" type="line"/>
      <point x="502" y="583"/>
      <point x="433" y="638"/>
      <point x="383" y="638" type="qcurve"/>
      <point x="345" y="638"/>
      <point x="275" y="601"/>
      <point x="216" y="529"/>
      <point x="169" y="426"/>
      <point x="154" y="360" type="qcurve"/>
      <point x="186" y="412"/>
      <point x="291" y="474"/>
      <point x="349" y="474" type="qcurve"/>
      <point x="391" y="474"/>
      <point x="461" y="444"/>
      <point x="510" y="391"/>
      <point x="537" y="320"/>
      <point x="537" y="278" type="qcurve"/>
      <point x="537" y="220"/>
      <point x="487" y="115"/>
      <point x="404" y="36"/>
      <point x="296" y="-10"/>
    </contour>
    <contour>
      <point x="255" y="66" type="qcurve"/>
      <point x="291" y="66"/>
      <point x="362" y="98"/>
      <point x="417" y="153"/>
      <point x="451" y="225"/>
      <point x="451" y="265" type="qcurve"/>
      <point x="451" y="294"/>
      <point x="433" y="344"/>
      <point x="400" y="382"/>
      <point x="354" y="403"/>
      <point x="326" y="403" type="qcurve"/>
      <point x="289" y="403"/>
      <point x="219" y="371"/>
      <point x="164" y="316"/>
      <point x="130" y="244"/>
      <point x="130" y="205" type="qcurve"/>
      <point x="130" y="176"/>
      <point x="148" y="125"/>
      <point x="181" y="88"/>
      <point x="227" y="66"/>
    </contour>
  </outline>
</glyph>
<glyph name="two.numerator" format="1">
  <advance width="383"/>
  <outline>
    <contour>
      <point x="39" y="320" type="line"/>
      <point x="47" y="359"/>
      <point x="74" y="418"/>
      <point x="113" y="462"/>
      <point x="165" y="495"/>
      <point x="200" y="508" type="qcurve"/>
      <point x="226" y="518"/>
      <point x="280" y="537"/>
      <point x="324" y="561"/>
      <point x="352" y="595"/>
      <point x="352" y="621" type="qcurve"/>
      <point x="352" y="645"/>
      <point x="313" y="677"/>
      <point x="274" y="677" type="qcurve"/>
      <point x="228" y="677"/>
      <point x="162" y="641"/>
      <point x="143" y="624" type="qcurve"/>
      <point x="116" y="663" type="line"/>
      <point x="122" y="670"/>
      <point x="152" y="693"/>
      <point x="198" y="715"/>
      <point x="258" y="731"/>
      <point x="293" y="731" type="qcurve"/>
      <point x="355" y="731"/>
      <point x="415" y="676"/>
      <point x="415" y="632" type="qcurve"/>
      <point x="415" y="574"/>
      <point x="337" y="507"/>
      <point x="254" y="480" type="qcurve"/>
      <point x="223" y="470"/>
      <point x="181" y="445"/>
      <point x="154" y="416"/>
      <point x="140" y="387"/>
      <point x="137" y="374" type="qcurve"/>
      <point x="355" y="374" type="line"/>
      <point x="343" y="320" type="line"/>
    </contour>
  </outline>
</glyph>
<glyph name="u.alt" format="1">
  <advance width="571"/>
  <outline>
    <contour>
      <point x="161" y="-10" type="qcurve"/>
      <point x="90" y="-10"/>
      <point x="33" y="63"/>
      <point x="33" y="122" type="qcurve"/>
      <point x="33" y="160"/>
      <point x="44" y="209" type="qcurve"/>
      <point x="111" y="522" type="line"/>
      <point x="198" y="522" type="line"/>
      <point x="135" y="226" type="line"/>
      <point x="131" y="207"/>
      <point x="126" y="172"/>
      <point x="126" y="156" type="qcurve"/>
      <point x="126" y="115"/>
      <point x="162" y="66"/>
      <point x="208" y="66" type="qcurve"/>
      <point x="233" y="66"/>
      <point x="286" y="86"/>
      <point x="334" y="120"/>
      <point x="376" y="168"/>
      <point x="392" y="195" type="qcurve"/>
      <point x="461" y="522" type="line"/>
      <point x="549" y="522" type="line"/>
      <point x="438" y="0" type="line"/>
      <point x="353" y="0" type="line"/>
      <point x="376" y="107" type="line"/>
      <point x="336" y="51"/>
      <point x="219" y="-10"/>
    </contour>
  </outline>
</glyph>
<glyph name="zero.lnum" format="1">
  <advance width="665"/>
  <outline>
    <contour>
      <point x="267" y="-10" type="qcurve"/>
      <point x="210" y="-10"/>
      <point x="127" y="41"/>
      <point x="74" y="123"/>
      <point x="49" y="225"/>
      <point x="49" y="276" type="qcurve"/>
      <point x="49" y="325"/>
      <point x="76" y="428"/>
      <point x="124" y="525"/>
      <point x="192" y="610"/>
      <point x="274" y="673"/>
      <point x="368" y="710"/>
      <point x="419" y="710" type="qcurve"/>
      <point x="477" y="710"/>
      <point x="559" y="658"/>
      <point x="611" y="575"/>
      <point x="636" y="473"/>
      <point x="636" y="422" type="qcurve"/>
      <point x="636" y="372"/>
      <point x="609" y="270"/>
      <point x="561" y="174"/>
      <point x="493" y="89"/>
      <point x="411" y="26"/>
      <point x="317" y="-10"/>
    </contour>
    <contour>
      <point x="283" y="71" type="qcurve"/>
      <point x="341" y="71"/>
      <point x="437" y="140"/>
      <point x="506" y="243"/>
      <point x="544" y="364"/>
      <point x="544" y="416" type="qcurve"/>
      <point x="544" y="456"/>
      <point x="527" y="532"/>
      <point x="492" y="592"/>
      <point x="439" y="629"/>
      <point x="402" y="629" type="qcurve"/>
      <point x="343" y="629"/>
      <point x="246" y="557"/>
      <point x="178" y="449"/>
      <point x="141" y="323"/>
      <point x="141" y="270" type="qcurve"/>
      <point x="141" y="231"/>
      <point x="157" y="159"/>
      <point x="191" y="104"/>
      <point x="245" y="71"/>
    </contour>
  </outline>
</glyph>
